<?xml version="1.0" encoding="UTF-8"?>
<svg version="1.1" xmlns="http://www.w3.org/2000/svg" width="500" height="500">
<path d="M0 0 C3.93324353 2.49575767 5.87536111 5.77381384 7.1171875 10.16796875 C8.25120646 15.95537586 6.99200003 21.42362871 5.7421875 27.10546875 C6.51304687 27.10546875 7.28390625 27.10546875 8.078125 27.10546875 C11.6328125 27.10546875 15.1875 27.10546875 18.7421875 27.10546875 C15.7721875 25.12546875 12.8021875 23.14546875 9.7421875 21.10546875 C10.0721875 19.78546875 10.4021875 18.46546875 10.7421875 17.10546875 C12.7221875 17.43546875 14.7021875 17.76546875 16.7421875 18.10546875 C15.96739014 15.11394293 15.96739014 15.11394293 14.7421875 12.10546875 C13.7521875 11.77546875 12.7621875 11.44546875 11.7421875 11.10546875 C12.31563687 8.23822189 12.603639 7.24401725 14.7421875 5.10546875 C18.68932148 5.41708459 20.67117216 6.75704525 23.7421875 9.10546875 C24.8765625 9.57984375 26.0109375 10.05421875 27.1796875 10.54296875 C34.78238061 13.87748327 34.78238061 13.87748327 36.71484375 18.36328125 C37.4675499 20.59689299 38.14316848 22.82627442 38.7421875 25.10546875 C39.4021875 25.10546875 40.0621875 25.10546875 40.7421875 25.10546875 C40.7421875 25.76546875 40.7421875 26.42546875 40.7421875 27.10546875 C41.5259375 27.35296875 42.3096875 27.60046875 43.1171875 27.85546875 C46.86972248 29.14944633 50.52871538 30.59902997 54.203125 32.09765625 C56.53156217 33.02186669 58.87491638 33.85018418 61.2421875 34.66796875 C64.7421875 36.10546875 64.7421875 36.10546875 66.7421875 39.10546875 C66.8671875 41.79296875 66.8671875 41.79296875 66.7421875 44.10546875 C68.0621875 44.76546875 69.3821875 45.42546875 70.7421875 46.10546875 C70.7421875 48.08546875 70.7421875 50.06546875 70.7421875 52.10546875 C68.97153639 52.7518015 67.20065997 53.39751705 65.4296875 54.04296875 C64.44355469 54.40261719 63.45742188 54.76226562 62.44140625 55.1328125 C57.47259467 56.92331045 53.08273997 57.9557912 47.80859375 56.61328125 C45.52437824 56.05194284 43.46859617 55.90142462 41.1171875 55.85546875 C40.34117187 55.8296875 39.56515625 55.80390625 38.765625 55.77734375 C31.9584138 56.43927721 31.9584138 56.43927721 25.7421875 59.10546875 C23.50677518 62.86969755 22.62662563 66.79541689 21.6796875 71.04296875 C21.39931641 72.14060547 21.11894531 73.23824219 20.83007812 74.36914062 C19.9058849 78.01914711 19.00777356 81.67031521 18.32250977 85.37329102 C18.13100342 85.94490967 17.93949707 86.51652832 17.7421875 87.10546875 C15.1796875 88.35546875 15.1796875 88.35546875 12.7421875 89.10546875 C12.77699219 89.97042969 12.81179688 90.83539063 12.84765625 91.7265625 C12.63810352 98.44001112 10.49267851 105.01341851 6.1796875 110.16796875 C4.75073349 111.30380399 3.31582483 112.43234679 1.8671875 113.54296875 C0.47100113 115.14038635 0.47100113 115.14038635 0.8671875 117.73046875 C1.75948774 121.17219825 2.81407983 124.50239309 3.9921875 127.85546875 C4.67643906 129.90822344 5.18851822 131.93795755 5.6796875 134.04296875 C6.40470528 137.19589035 6.40470528 137.19589035 8.7421875 138.29296875 C9.4021875 138.56109375 10.0621875 138.82921875 10.7421875 139.10546875 C12.43285408 141.72600195 12.7421875 142.93176597 12.7421875 146.10546875 C13.4021875 146.10546875 14.0621875 146.10546875 14.7421875 146.10546875 C14.19878958 150.67001126 12.94754929 154.07828635 10.7421875 158.10546875 C10.0821875 158.10546875 9.4221875 158.10546875 8.7421875 158.10546875 C8.7421875 158.76546875 8.7421875 159.42546875 8.7421875 160.10546875 C8.0821875 160.10546875 7.4221875 160.10546875 6.7421875 160.10546875 C6.7421875 160.76546875 6.7421875 161.42546875 6.7421875 162.10546875 C6.0821875 162.10546875 5.4221875 162.10546875 4.7421875 162.10546875 C4.7421875 162.76546875 4.7421875 163.42546875 4.7421875 164.10546875 C0.2871875 165.09546875 0.2871875 165.09546875 -4.2578125 166.10546875 C-4.2578125 166.76546875 -4.2578125 167.42546875 -4.2578125 168.10546875 C-6.0859375 169.83203125 -6.0859375 169.83203125 -8.5078125 171.73046875 C-9.29671875 172.36210937 -10.085625 172.99375 -10.8984375 173.64453125 C-13.2578125 175.10546875 -13.2578125 175.10546875 -17.2578125 175.10546875 C-17.37898437 175.67007813 -17.50015625 176.2346875 -17.625 176.81640625 C-19.84979778 184.86413156 -24.91071445 192.77515116 -30.2578125 199.10546875 C-30.9178125 199.10546875 -31.5778125 199.10546875 -32.2578125 199.10546875 C-32.2578125 199.76546875 -32.2578125 200.42546875 -32.2578125 201.10546875 C-33.9375 202.61328125 -33.9375 202.61328125 -36.1328125 204.23046875 C-36.85210937 204.76929688 -37.57140625 205.308125 -38.3125 205.86328125 C-40.2578125 207.10546875 -40.2578125 207.10546875 -42.2578125 207.10546875 C-42.28473734 209.39707194 -42.30417374 211.68876421 -42.3203125 213.98046875 C-42.33191406 215.25664062 -42.34351563 216.5328125 -42.35546875 217.84765625 C-42.48957819 220.99211527 -42.48957819 220.99211527 -41.2578125 223.10546875 C-40.8828125 226.04296875 -40.8828125 226.04296875 -41.2578125 229.10546875 C-43.1953125 231.16796875 -43.1953125 231.16796875 -46.2578125 232.10546875 C-49.40600398 231.44213744 -52.30116616 230.36156033 -55.2578125 229.10546875 C-55.2578125 228.11546875 -55.2578125 227.12546875 -55.2578125 226.10546875 C-56.2478125 225.77546875 -57.2378125 225.44546875 -58.2578125 225.10546875 C-58.2578125 224.44546875 -58.2578125 223.78546875 -58.2578125 223.10546875 C-59.2478125 223.43546875 -60.2378125 223.76546875 -61.2578125 224.10546875 C-62.97348911 227.60841746 -62.97348911 227.60841746 -64.2578125 231.10546875 C-64.9178125 231.10546875 -65.5778125 231.10546875 -66.2578125 231.10546875 C-66.5465625 231.68296875 -66.8353125 232.26046875 -67.1328125 232.85546875 C-67.5040625 233.59796875 -67.8753125 234.34046875 -68.2578125 235.10546875 C-68.4846875 235.82734375 -68.7115625 236.54921875 -68.9453125 237.29296875 C-70.2578125 239.10546875 -70.2578125 239.10546875 -73.8828125 239.85546875 C-74.9965625 239.93796875 -76.1103125 240.02046875 -77.2578125 240.10546875 C-77.2578125 240.76546875 -77.2578125 241.42546875 -77.2578125 242.10546875 C-79.24470981 243.4582499 -81.24526468 244.7911518 -83.2578125 246.10546875 C-83.5878125 246.76546875 -83.9178125 247.42546875 -84.2578125 248.10546875 C-85.5778125 248.10546875 -86.8978125 248.10546875 -88.2578125 248.10546875 C-88.2578125 248.76546875 -88.2578125 249.42546875 -88.2578125 250.10546875 C-89.1653125 250.70359375 -90.0728125 251.30171875 -91.0078125 251.91796875 C-94.3371965 253.92149661 -94.3371965 253.92149661 -96.4453125 256.85546875 C-97.3425 257.96921875 -97.3425 257.96921875 -98.2578125 259.10546875 C-99.2478125 259.10546875 -100.2378125 259.10546875 -101.2578125 259.10546875 C-102.2478125 265.04546875 -102.2478125 265.04546875 -103.2578125 271.10546875 C-105.5678125 271.43546875 -107.8778125 271.76546875 -110.2578125 272.10546875 C-110.36738281 272.65074219 -110.47695313 273.19601562 -110.58984375 273.7578125 C-112.05058998 280.70526408 -113.69813457 287.892951 -117.2578125 294.10546875 C-119.1953125 294.98046875 -119.1953125 294.98046875 -121.2578125 295.10546875 C-122.2478125 294.44546875 -123.2378125 293.78546875 -124.2578125 293.10546875 C-124.2578125 292.44546875 -124.2578125 291.78546875 -124.2578125 291.10546875 C-125.5778125 291.10546875 -126.8978125 291.10546875 -128.2578125 291.10546875 C-128.2578125 289.45546875 -128.2578125 287.80546875 -128.2578125 286.10546875 C-129.2478125 285.77546875 -130.2378125 285.44546875 -131.2578125 285.10546875 C-130.9278125 284.11546875 -130.5978125 283.12546875 -130.2578125 282.10546875 C-131.2478125 281.77546875 -132.2378125 281.44546875 -133.2578125 281.10546875 C-132.79375 279.52765625 -132.79375 279.52765625 -132.3203125 277.91796875 C-131.50096156 274.97794479 -130.80297319 272.10385252 -130.2578125 269.10546875 C-130.9178125 268.77546875 -131.5778125 268.44546875 -132.2578125 268.10546875 C-132.2578125 267.44546875 -132.2578125 266.78546875 -132.2578125 266.10546875 C-131.5978125 266.10546875 -130.9378125 266.10546875 -130.2578125 266.10546875 C-130.2578125 265.44546875 -130.2578125 264.78546875 -130.2578125 264.10546875 C-131.2478125 263.77546875 -132.2378125 263.44546875 -133.2578125 263.10546875 C-132.73407184 259.28964391 -132.41268966 257.04798214 -129.3671875 254.5625 C-124.66955129 251.83819056 -120.63854249 250.55386292 -115.2578125 250.10546875 C-114.9278125 249.77546875 -114.5978125 249.44546875 -114.2578125 249.10546875 C-112.59164135 249.06483043 -110.92393155 249.06274775 -109.2578125 249.10546875 C-109.2578125 248.44546875 -109.2578125 247.78546875 -109.2578125 247.10546875 C-107.61351421 245.41672996 -105.94397032 243.7524136 -104.2578125 242.10546875 C-102.02855575 239.47813044 -100.86549668 237.50850017 -100.2578125 234.10546875 C-99.5978125 234.10546875 -98.9378125 234.10546875 -98.2578125 234.10546875 C-98.2578125 232.78546875 -98.2578125 231.46546875 -98.2578125 230.10546875 C-97.5978125 230.10546875 -96.9378125 230.10546875 -96.2578125 230.10546875 C-95.9896875 229.40421875 -95.7215625 228.70296875 -95.4453125 227.98046875 C-94.1896676 224.94048635 -92.75546127 222.03269135 -91.2578125 219.10546875 C-90.5978125 219.10546875 -89.9378125 219.10546875 -89.2578125 219.10546875 C-89.2578125 218.44546875 -89.2578125 217.78546875 -89.2578125 217.10546875 C-88.5978125 217.10546875 -87.9378125 217.10546875 -87.2578125 217.10546875 C-87.2578125 216.44546875 -87.2578125 215.78546875 -87.2578125 215.10546875 C-86.5978125 215.10546875 -85.9378125 215.10546875 -85.2578125 215.10546875 C-85.1134375 214.48671875 -84.9690625 213.86796875 -84.8203125 213.23046875 C-84.2578125 211.10546875 -84.2578125 211.10546875 -83.2578125 209.10546875 C-81.09313789 208.47877676 -78.89916726 207.95119501 -76.6953125 207.48046875 C-75.49777344 207.22007812 -74.30023438 206.9596875 -73.06640625 206.69140625 C-71.67615234 206.40136719 -71.67615234 206.40136719 -70.2578125 206.10546875 C-70.2578125 205.44546875 -70.2578125 204.78546875 -70.2578125 204.10546875 C-69.5978125 204.10546875 -68.9378125 204.10546875 -68.2578125 204.10546875 C-68.15984375 203.12964844 -68.061875 202.15382813 -67.9609375 201.1484375 C-67.81140625 199.87613281 -67.661875 198.60382813 -67.5078125 197.29296875 C-67.36859375 196.02839844 -67.229375 194.76382813 -67.0859375 193.4609375 C-66.2578125 190.10546875 -66.2578125 190.10546875 -64.3671875 188.15625 C-62.2578125 187.10546875 -62.2578125 187.10546875 -59.2578125 187.10546875 C-59.2578125 186.11546875 -59.2578125 185.12546875 -59.2578125 184.10546875 C-58.5978125 184.10546875 -57.9378125 184.10546875 -57.2578125 184.10546875 C-57.11972168 183.52369873 -56.98163086 182.94192871 -56.83935547 182.3425293 C-56.3035859 180.28154836 -55.67067929 178.31620289 -54.953125 176.3125 C-54.70054932 175.60359619 -54.44797363 174.89469238 -54.18774414 174.16430664 C-53.9221167 173.42301514 -53.65648926 172.68172363 -53.3828125 171.91796875 C-52.84209055 170.39205367 -52.30172274 168.86601305 -51.76171875 167.33984375 C-50.90032278 164.91056776 -50.03375427 162.48352776 -49.16015625 160.05859375 C-48.46967208 158.09312254 -47.85321018 156.10180215 -47.2578125 154.10546875 C-47.5878125 153.44546875 -47.9178125 152.78546875 -48.2578125 152.10546875 C-50.24490765 151.5278872 -50.24490765 151.5278872 -52.5703125 151.16796875 C-58.7952021 149.8892892 -58.7952021 149.8892892 -61.2578125 147.10546875 C-61.2578125 145.78546875 -61.2578125 144.46546875 -61.2578125 143.10546875 C-61.8765625 142.89921875 -62.4953125 142.69296875 -63.1328125 142.48046875 C-65.2578125 141.10546875 -65.2578125 141.10546875 -66.5703125 138.54296875 C-67.74567319 132.6661653 -67.16622799 127.37399189 -64.2578125 122.10546875 C-63.5978125 122.10546875 -62.9378125 122.10546875 -62.2578125 122.10546875 C-62.7528125 118.64046875 -62.7528125 118.64046875 -63.2578125 115.10546875 C-62.2678125 114.77546875 -61.2778125 114.44546875 -60.2578125 114.10546875 C-59.9278125 111.79546875 -59.5978125 109.48546875 -59.2578125 107.10546875 C-58.5978125 107.10546875 -57.9378125 107.10546875 -57.2578125 107.10546875 C-57.2578125 106.44546875 -57.2578125 105.78546875 -57.2578125 105.10546875 C-54.2578125 103.10546875 -54.2578125 103.10546875 -50.2578125 103.10546875 C-49.9278125 101.45546875 -49.5978125 99.80546875 -49.2578125 98.10546875 C-48.2678125 97.77546875 -47.2778125 97.44546875 -46.2578125 97.10546875 C-46.9178125 96.11546875 -47.5778125 95.12546875 -48.2578125 94.10546875 C-48.2578125 92.78546875 -48.2578125 91.46546875 -48.2578125 90.10546875 C-47.5978125 90.10546875 -46.9378125 90.10546875 -46.2578125 90.10546875 C-46.9178125 89.11546875 -47.5778125 88.12546875 -48.2578125 87.10546875 C-47.9453125 84.41796875 -47.9453125 84.41796875 -47.2578125 81.10546875 C-47.08048 79.73180359 -46.91414216 78.35668233 -46.7578125 76.98046875 C-46.2578125 73.10546875 -46.2578125 73.10546875 -45.6328125 70.85546875 C-45.14418934 68.57522734 -45.44040084 67.28523317 -46.2578125 65.10546875 C-47.24512992 63.76271706 -48.24375993 62.42814602 -49.2578125 61.10546875 C-49.2578125 60.44546875 -49.2578125 59.78546875 -49.2578125 59.10546875 C-49.9178125 59.10546875 -50.5778125 59.10546875 -51.2578125 59.10546875 C-52.2478125 56.63046875 -52.2478125 56.63046875 -53.2578125 54.10546875 C-53.9178125 54.10546875 -54.5778125 54.10546875 -55.2578125 54.10546875 C-55.68320312 53.63238281 -56.10859375 53.15929687 -56.546875 52.671875 C-58.82601671 50.58526353 -60.59791136 50.47118083 -63.6328125 50.04296875 C-67.47446598 49.48735771 -70.69062065 48.63852612 -74.2578125 47.10546875 C-77.2202797 46.11797968 -79.96519522 45.77212303 -83.05957031 45.45922852 C-92.61827399 44.49200332 -100.93424931 43.14341489 -109.2578125 38.10546875 C-113.51514311 36.60751909 -118.01219061 35.10059174 -122.2578125 37.10546875 C-123.28483749 38.87066795 -124.30732315 40.64119149 -125.2265625 42.46484375 C-126.73777062 44.86903849 -128.62212947 45.24887176 -131.2578125 46.10546875 C-131.8765625 46.74484375 -132.4953125 47.38421875 -133.1328125 48.04296875 C-136.71758357 51.52230538 -141.40085718 53.13407769 -146.2578125 54.10546875 C-147.67142477 49.86463193 -145.91249608 47.03086529 -144.2578125 43.10546875 C-143.97035156 42.4196875 -143.68289062 41.73390625 -143.38671875 41.02734375 C-142.68782973 39.38211217 -141.97428475 37.74311961 -141.2578125 36.10546875 C-140.5978125 36.10546875 -139.9378125 36.10546875 -139.2578125 36.10546875 C-139.2578125 35.44546875 -139.2578125 34.78546875 -139.2578125 34.10546875 C-133.81965556 28.80675174 -127.46563793 24.90014565 -119.6953125 24.79296875 C-116.98116699 24.89349266 -114.36664491 25.22778587 -111.671875 25.59765625 C-105.57796207 26.38023699 -99.43862035 26.45318102 -93.30273438 26.62304688 C-87.92531361 26.81973652 -83.44746477 27.60678635 -78.2578125 29.10546875 C-74.58372374 29.17352891 -74.58372374 29.17352891 -70.9453125 28.79296875 C-69.12580078 28.64408203 -69.12580078 28.64408203 -67.26953125 28.4921875 C-64.34081591 28.28432813 -64.34081591 28.28432813 -62.2578125 27.10546875 C-56.71935096 26.87469952 -56.71935096 26.87469952 -54.2578125 28.10546875 C-50.48354747 28.46492256 -47.8604636 28.03581923 -44.4453125 26.54296875 C-39.88077634 24.65358628 -36.01930474 25.19064501 -31.2578125 26.10546875 C-28.8521317 22.16471172 -28.8521317 22.16471172 -28.5703125 17.73046875 C-28.7971875 17.19421875 -29.0240625 16.65796875 -29.2578125 16.10546875 C-28.5978125 16.10546875 -27.9378125 16.10546875 -27.2578125 16.10546875 C-27.3403125 15.07421875 -27.4228125 14.04296875 -27.5078125 12.98046875 C-27.2070156 8.31811677 -26.34953458 6.58365609 -23.2578125 3.10546875 C-17.03353456 -1.83419163 -7.36736374 -2.91890363 0 0 Z " fill="#F4F4F4" transform="translate(370.2578125,93.89453125)"/>
<path d="M0 0 C4.16253275 -0.09938095 8.32442479 -0.17170617 12.48779297 -0.21972656 C13.90197795 -0.23975843 15.31608097 -0.26699248 16.72998047 -0.30175781 C18.77071419 -0.35065489 20.8103469 -0.37305123 22.8515625 -0.390625 C24.68968506 -0.4220459 24.68968506 -0.4220459 26.56494141 -0.45410156 C30.68612946 0.09070368 32.78866671 1.4063434 36 4 C38.70827845 8.06241767 38.64175877 11.23038545 38 16 C36.61025316 19.92133974 34.68856357 22.51487567 31.25 24.9375 C30.5075 25.288125 29.765 25.63875 29 26 C29.68468801 29.07756672 30.71280415 31.84770192 31.9375 34.75 C33.71760963 39.13530656 35.07148004 43.3574002 36 48 C35 49 35 49 31.40234375 49.09765625 C29.91403133 49.0909822 28.42573568 49.07902183 26.9375 49.0625 C25.79958008 49.05573242 25.79958008 49.05573242 24.63867188 49.04882812 C22.75908129 49.0370068 20.87953101 49.01907078 19 49 C15.30242951 43.26239061 13.57964808 37.61776809 12 31 C9.90661568 33.09338432 10.0002671 37.11727274 9.5 40 C8.13513514 47.86486486 8.13513514 47.86486486 7 49 C4.3226862 49.09981214 1.67695825 49.13879875 -1 49.125 C-2.12535156 49.13080078 -2.12535156 49.13080078 -3.2734375 49.13671875 C-8.87338947 49.12661053 -8.87338947 49.12661053 -10 48 C-8.79738786 35.89544742 -6.0508853 23.97341855 -3.375 12.125 C-3.15682617 11.15546387 -2.93865234 10.18592773 -2.71386719 9.18701172 C-2.50665039 8.28225098 -2.29943359 7.37749023 -2.0859375 6.4453125 C-1.9007959 5.63594238 -1.7156543 4.82657227 -1.52490234 3.99267578 C-1 2 -1 2 0 0 Z M16 6 C15.01 10.95 14.02 15.9 13 21 C14.65 21 16.3 21 18 21 C21.08644287 17.663305 22.24204985 15.09298302 22.25 10.625 C22.1675 9.42875 22.085 8.2325 22 7 C19.03 6.505 19.03 6.505 16 6 Z " fill="#04F941" transform="translate(222,184)"/>
<path d="M0 0 C0.79075928 0.00523682 1.58151855 0.01047363 2.39624023 0.01586914 C3.67724609 0.02070313 3.67724609 0.02070313 4.98413086 0.02563477 C5.88196289 0.03401367 6.77979492 0.04239258 7.70483398 0.05102539 C8.6065332 0.05553711 9.50823242 0.06004883 10.43725586 0.06469727 C12.67234712 0.07652315 14.90730835 0.09300319 17.14233398 0.11352539 C19.05355904 5.38587038 20.05649686 10.68863145 20.99780273 16.19165039 C21.72942428 20.31390512 22.71547299 24.17735712 24.14233398 28.11352539 C24.3240918 27.31430664 24.50584961 26.51508789 24.69311523 25.69165039 C29.24345758 5.8101546 29.24345758 5.8101546 31.14233398 0.11352539 C33.78233398 0.11352539 36.42233398 0.11352539 39.14233398 0.11352539 C38.72629351 5.10601105 38.04579287 9.76742993 36.76733398 14.61352539 C35.4534508 19.60755712 34.49276772 24.58857925 33.64233398 29.67602539 C32.53071342 36.29632704 31.04906428 42.66696107 29.14233398 49.11352539 C22.87233398 49.11352539 16.60233398 49.11352539 10.14233398 49.11352539 C8.1792416 43.22424825 6.65611715 38.27285941 5.57983398 32.30102539 C4.83626965 28.1799146 4.10481317 24.7987648 2.14233398 21.11352539 C2.00134277 21.81960938 1.86035156 22.52569336 1.71508789 23.25317383 C1.07173078 26.45784043 0.41963231 29.66066732 -0.23266602 32.86352539 C-0.45438477 33.97469727 -0.67610352 35.08586914 -0.90454102 36.23071289 C-1.12368164 37.30063477 -1.34282227 38.37055664 -1.56860352 39.47290039 C-1.76760254 40.45742188 -1.96660156 41.44194336 -2.17163086 42.45629883 C-2.80730772 44.9184721 -3.62300155 46.90122697 -4.85766602 49.11352539 C-7.16766602 49.11352539 -9.47766602 49.11352539 -11.85766602 49.11352539 C-12.18367997 43.35394552 -11.34296637 38.87281532 -9.71313477 33.36352539 C-8.69479635 29.4947694 -8.01510382 25.61934347 -7.35766602 21.67602539 C-3.74701335 0.22898688 -3.74701335 0.22898688 0 0 Z " fill="#03FA41" transform="translate(167.857666015625,243.886474609375)"/>
<path d="M0 0 C-0.14433868 1.35432679 -0.29056661 2.70845225 -0.4375 4.0625 C-0.51871094 4.81660156 -0.59992188 5.57070312 -0.68359375 6.34765625 C-1.06823886 9.57202696 -1.54077199 12.78540391 -2 16 C-6.95 16 -11.9 16 -17 16 C-17 11.71 -17 7.42 -17 3 C-21.12938915 3.59179027 -21.12938915 3.59179027 -23.0625 6.6875 C-28.21243237 16.66167731 -28.44942266 28.04740342 -28 39 C-25.83125748 38.49396008 -24.00032373 38.00016187 -22 37 C-21.09656316 35.11736119 -21.09656316 35.11736119 -20.375 32.9375 C-20.11460937 32.20402344 -19.85421875 31.47054687 -19.5859375 30.71484375 C-19.39257812 30.14894531 -19.19921875 29.58304687 -19 29 C-20.98 29 -22.96 29 -25 29 C-24.34 27.02 -23.68 25.04 -23 23 C-16.4 23 -9.8 23 -3 23 C-3.28875 25.495625 -3.5775 27.99125 -3.875 30.5625 C-4.00430908 31.71987671 -4.00430908 31.71987671 -4.13623047 32.90063477 C-4.68403263 37.44461317 -5.63357903 41.63089764 -7 46 C-8.62418745 46.08090971 -10.24951745 46.13914995 -11.875 46.1875 C-12.77992188 46.22230469 -13.68484375 46.25710938 -14.6171875 46.29296875 C-15.79667969 46.14794922 -15.79667969 46.14794922 -17 46 C-17.66 45.01 -18.32 44.02 -19 43 C-19.77537109 43.73089844 -19.77537109 43.73089844 -20.56640625 44.4765625 C-23.81374361 46.50940611 -26.12964632 46.39938327 -29.9375 46.375 C-31.74541016 46.38660156 -31.74541016 46.38660156 -33.58984375 46.3984375 C-37.2017879 45.97642341 -39.14553069 45.22074463 -42 43 C-42 42.34 -42 41.68 -42 41 C-42.66 41 -43.32 41 -44 41 C-47.22046349 35.74331753 -47.45905555 31.5351135 -47.375 25.5625 C-47.38660156 24.74201172 -47.39820313 23.92152344 -47.41015625 23.07617188 C-47.36947029 14.57958692 -44.65352586 9.04405325 -38.890625 2.796875 C-28.97653836 -6.62560404 -11.66229024 -6.22337461 0 0 Z " fill="#03F941" transform="translate(254,247)"/>
<path d="M0 0 C5.94 0 11.88 0 18 0 C17.34 5.28 16.68 10.56 16 16 C16.66 15.01 17.32 14.02 18 13 C18.66 13 19.32 13 20 13 C20 12.34 20 11.68 20 11 C20.66 11 21.32 11 22 11 C22.66 9.35 23.32 7.7 24 6 C24.66 6 25.32 6 26 6 C26 5.34 26 4.68 26 4 C26.66 4 27.32 4 28 4 C28 3.34 28 2.68 28 2 C28.66 2 29.32 2 30 2 C30 1.34 30 0.68 30 0 C33.3 0 36.6 0 40 0 C39.34 1.65 38.68 3.3 38 5 C37.34 5 36.68 5 36 5 C36 5.66 36 6.32 36 7 C35.34 7 34.68 7 34 7 C33.79375 7.53625 33.5875 8.0725 33.375 8.625 C32.03057167 10.94719439 30.85907346 12.06707688 28.875 13.8125 C26.42883046 16.20470991 26.03116109 16.83173013 25.375 20.375 C25.98075034 23.88835194 27.06768544 26.37589187 28.77734375 29.4765625 C30.41113636 32.84854342 31.57639253 36.32091063 32.75 39.875 C32.97260498 40.54208984 33.19520996 41.20917969 33.42456055 41.89648438 C35 46.72725517 35 46.72725517 35 49 C29.06 49 23.12 49 17 49 C12.71428571 36.8125 12.71428571 36.8125 13 32 C12.34 32 11.68 32 11 32 C10.86722656 32.80824219 10.73445313 33.61648438 10.59765625 34.44921875 C10.33275391 36.05216797 10.33275391 36.05216797 10.0625 37.6875 C9.80146484 39.27111328 9.80146484 39.27111328 9.53515625 40.88671875 C9.06886987 43.59934828 8.53979276 46.30103618 8 49 C2.06 49 -3.88 49 -10 49 C-7.25696126 32.54176757 -3.97717843 16.20331955 0 0 Z " fill="#03FB41" transform="translate(95,244)"/>
<path d="M0 0 C-0.47505678 1.81358154 -0.95516042 3.62584179 -1.4375 5.4375 C-1.70433594 6.44683594 -1.97117187 7.45617187 -2.24609375 8.49609375 C-3 11 -3 11 -4 12 C-6.18639453 12.07258946 -8.37500389 12.08373783 -10.5625 12.0625 C-12.35880859 12.04896484 -12.35880859 12.04896484 -14.19140625 12.03515625 C-15.11824219 12.02355469 -16.04507812 12.01195312 -17 12 C-17.33 9.03 -17.66 6.06 -18 3 C-20.91517292 4.07401108 -22.77810176 4.77810176 -25 7 C-25.16687448 9.58354218 -25.16687448 9.58354218 -25 12 C-24.3709375 12.18175781 -23.741875 12.36351562 -23.09375 12.55078125 C-6.61387384 17.39050392 -6.61387384 17.39050392 -4 22 C-3.17343112 27.76364246 -3.21368926 33.20721151 -5.5625 38.5625 C-12.58390345 45.58390345 -19.26753612 46.20558565 -28.75 46.25 C-29.83539063 46.270625 -30.92078125 46.29125 -32.0390625 46.3125 C-37.85716085 46.34095036 -42.09110129 46.26115648 -47 43 C-47.17791204 38.46324303 -47.0461125 35.092225 -45 31 C-44 30 -44 30 -41.09375 29.8671875 C-39.9078125 29.86976563 -38.721875 29.87234375 -37.5 29.875 C-36.3140625 29.87242187 -35.128125 29.86984375 -33.90625 29.8671875 C-31 30 -31 30 -30 31 C-29.63239269 33.32817964 -29.29758419 35.6618385 -29 38 C-27.16299211 38.77242269 -27.16299211 38.77242269 -25 39 C-22.53243984 37.35495989 -22.05039701 36.19700648 -21.3125 33.3125 C-21.209375 32.549375 -21.10625 31.78625 -21 31 C-21.66 31 -22.32 31 -23 31 C-23 30.34 -23 29.68 -23 29 C-24.12148438 28.70996094 -24.12148438 28.70996094 -25.265625 28.4140625 C-26.25046875 28.15367187 -27.2353125 27.89328125 -28.25 27.625 C-29.22453125 27.36976563 -30.1990625 27.11453125 -31.203125 26.8515625 C-33.65837303 26.10401491 -35.75617405 25.22876183 -38 24 C-38 23.34 -38 22.68 -38 22 C-38.66 22 -39.32 22 -40 22 C-42.9936128 17.50958079 -42.82355185 13.25749621 -42 8 C-39.15516625 2.27895565 -33.8670231 -0.91037533 -28 -3 C-18.26504539 -5.16332325 -8.90946357 -4.58972366 0 0 Z " fill="#03FA41" transform="translate(299,247)"/>
<path d="M0 0 C0.74886475 0.00523682 1.49772949 0.01047363 2.26928711 0.01586914 C3.07817383 0.0190918 3.88706055 0.02231445 4.72045898 0.02563477 C5.5705957 0.03401367 6.42073242 0.04239258 7.29663086 0.05102539 C8.15063477 0.05553711 9.00463867 0.06004883 9.88452148 0.06469727 C12.00108749 0.07652166 14.11761771 0.0944577 16.23413086 0.11352539 C15.80212508 7.81514572 14.38244605 14.72595173 12.23413086 22.11352539 C10.83028343 27.47211376 9.66475035 32.53359639 10.23413086 38.11352539 C14.11571966 40.70125125 15.76839562 39.99072338 20.23413086 39.11352539 C21.71913086 38.61852539 21.71913086 38.61852539 23.23413086 38.11352539 C23.34370117 37.38649414 23.45327148 36.65946289 23.56616211 35.91040039 C24.56049397 29.6048813 25.83169996 23.46968815 27.43725586 17.29321289 C28.86340028 11.60261702 30.03640712 5.85580373 31.23413086 0.11352539 C33.87413086 0.11352539 36.51413086 0.11352539 39.23413086 0.11352539 C38.00648708 13.86313577 36.28049082 32.56699885 28.23413086 44.11352539 C20.97735553 49.40492407 12.14070435 50.9519489 3.30444336 49.59008789 C-0.81133024 48.6426834 -4.47896668 47.49687019 -7.43383789 44.32055664 C-12.83663477 35.36870844 -6.88418363 19.67680857 -4.76586914 10.11352539 C-4.58636719 9.26193848 -4.40686523 8.41035156 -4.22192383 7.53295898 C-4.04822266 6.71778809 -3.87452148 5.90261719 -3.69555664 5.06274414 C-3.54070801 4.32757568 -3.38585937 3.59240723 -3.22631836 2.83496094 C-2.61342356 0.54359232 -2.39551911 0.15400475 0 0 Z " fill="#02FD41" transform="translate(175.765869140625,183.886474609375)"/>
<path d="M0 0 C0 0.66 0 1.32 0 2 C0.66 2 1.32 2 2 2 C2 2.66 2 3.32 2 4 C2.66 4 3.32 4 4 4 C8.22123659 10.07858069 8.48825943 15.77830242 8 23 C7 26.625 7 26.625 6 29 C5.34 29 4.68 29 4 29 C4 28.34 4 27.68 4 27 C2.02 26.34 0.04 25.68 -2 25 C-2 25.66 -2 26.32 -2 27 C-2.66 27 -3.32 27 -4 27 C-4 27.66 -4 28.32 -4 29 C-4.66 29 -5.32 29 -6 29 C-6.93423645 32.01031744 -7.04449911 32.86650268 -6 36 C-4.02 35.505 -4.02 35.505 -2 35 C-2.33 35.99 -2.66 36.98 -3 38 C-12.27596776 40.98717606 -18.18681288 39.90148995 -27 36 C-27 35.34 -27 34.68 -27 34 C-27.66 34 -28.32 34 -29 34 C-29 33.34 -29 32.68 -29 32 C-29.66 32 -30.32 32 -31 32 C-34.2933288 24.82524797 -36.56566118 19.03248236 -34.125 11.1875 C-33 9 -33 9 -31 6 C-30.34 6 -29.68 6 -29 6 C-29 5.34 -29 4.68 -29 4 C-28.34 4 -27.68 4 -27 4 C-27 3.34 -27 2.68 -27 2 C-26.34 2 -25.68 2 -25 2 C-24.835 1.38125 -24.67 0.7625 -24.5 0.125 C-22.57491273 -2.60220696 -20.63471039 -3.15154116 -17.42578125 -3.8203125 C-11.39903475 -4.26673817 -5.27945388 -2.91110074 0 0 Z M-16 4 C-15.67 6.97 -15.34 9.94 -15 13 C-11.7 13.33 -8.4 13.66 -5 14 C-2.43611957 10.44727895 -2.43611957 10.44727895 -2.3125 6.1875 C-2.6528125 5.1046875 -2.6528125 5.1046875 -3 4 C-3.99 3.67 -4.98 3.34 -6 3 C-6 2.34 -6 1.68 -6 1 C-10.27343092 0.63370592 -12.48812804 1.59185923 -16 4 Z M-30 20 C-30.66 21.98 -31.32 23.96 -32 26 C-31.34 26 -30.68 26 -30 26 C-30 26.66 -30 27.32 -30 28 C-29.34 28 -28.68 28 -28 28 C-28 28.66 -28 29.32 -28 30 C-27.34 30 -26.68 30 -26 30 C-26 30.66 -26 31.32 -26 32 C-23.83125748 31.49396008 -22.00032373 31.00016187 -20 30 C-21.21044132 25.39257135 -21.21044132 25.39257135 -23 21 C-25.32156597 20.59270772 -27.6568787 20.25561323 -30 20 Z " fill="#D9D9D9" transform="translate(368,341)"/>
<path d="M0 0 C1.39120471 0.00015906 2.78241534 0.00585033 4.17358398 0.01586914 C4.90463852 0.01728409 5.63569305 0.01869904 6.38890076 0.02015686 C8.73253406 0.02577131 11.07607313 0.03832617 13.41967773 0.05102539 C15.00496282 0.05603853 16.59024939 0.06060176 18.17553711 0.06469727 C22.06945383 0.07574542 25.96329979 0.09301967 29.85717773 0.11352539 C29.19717773 2.42352539 28.53717773 4.73352539 27.85717773 7.11352539 C22.90717773 7.11352539 17.95717773 7.11352539 12.85717773 7.11352539 C12.19717773 11.07352539 11.53717773 15.03352539 10.85717773 19.11352539 C14.48717773 19.11352539 18.11717773 19.11352539 21.85717773 19.11352539 C21.89959497 21.44647314 21.89810711 23.78055106 21.85717773 26.11352539 C20.85717773 27.11352539 20.85717773 27.11352539 18.35327148 27.21118164 C17.34393555 27.19958008 16.33459961 27.18797852 15.29467773 27.17602539 C14.28276367 27.16700195 13.27084961 27.15797852 12.22827148 27.14868164 C11.05458008 27.1312793 11.05458008 27.1312793 9.85717773 27.11352539 C8.3705379 29.86898237 7.44215483 32.38363227 6.78686523 35.44165039 C6.52583008 36.64047852 6.52583008 36.64047852 6.25952148 37.86352539 C6.08549805 38.68852539 5.91147461 39.51352539 5.73217773 40.36352539 C5.55041992 41.20399414 5.36866211 42.04446289 5.18139648 42.91040039 C4.73518232 44.9770765 4.29553328 47.04516816 3.85717773 49.11352539 C-1.75282227 49.11352539 -7.36282227 49.11352539 -13.14282227 49.11352539 C-14.23131626 45.8480434 -14.0610484 44.82500266 -13.32250977 41.56274414 C-13.11916016 40.64638184 -12.91581055 39.73001953 -12.70629883 38.78588867 C-12.47910156 37.80088379 -12.2519043 36.81587891 -12.01782227 35.80102539 C-11.67702637 34.28484619 -11.67702637 34.28484619 -11.3293457 32.73803711 C-10.85029414 30.61129857 -10.36779122 28.48533491 -9.88208008 26.36010742 C-9.15208639 23.15421045 -8.43823383 19.94511333 -7.72875977 16.73461914 C-7.28387287 14.73582645 -6.83857576 12.737125 -6.39282227 10.73852539 C-6.18254395 9.7880835 -5.97226562 8.8376416 -5.75561523 7.85839844 C-5.5585498 6.98610596 -5.36148437 6.11381348 -5.15844727 5.21508789 C-4.98603516 4.44503418 -4.81362305 3.67498047 -4.63598633 2.8815918 C-3.77727392 -0.19701973 -3.38929002 0.12242833 0 0 Z " fill="#04FB42" transform="translate(273.142822265625,183.886474609375)"/>
<path d="M0 0 C13.86 0 27.72 0 42 0 C41.67 2.31 41.34 4.62 41 7 C36.71 7 32.42 7 28 7 C27.89429688 8.16789063 27.78859375 9.33578125 27.6796875 10.5390625 C26.9736459 16.8637088 25.75919645 23.0926729 24.52587891 29.33154297 C24.12212781 31.38964082 23.73490517 33.45046063 23.34765625 35.51171875 C23.08955143 36.82832335 22.8304721 38.14473738 22.5703125 39.4609375 C22.34102051 40.64478027 22.11172852 41.82862305 21.87548828 43.04833984 C21.00095947 45.99676521 20.50187352 47.26582882 18 49 C14.71484375 49.36328125 14.71484375 49.36328125 10.9375 49.3125 C9.68839844 49.30863281 8.43929687 49.30476563 7.15234375 49.30078125 C4 49 4 49 2 47 C2.2740484 44.2805966 2.66040751 41.73436308 3.1875 39.0625 C3.3311499 38.29341309 3.4747998 37.52432617 3.62280273 36.73193359 C4.60772519 31.60474861 5.84166342 26.59481374 7.3046875 21.58203125 C8.50927152 17.10882878 9.22921131 12.5654407 10 8 C6.37 7.67 2.74 7.34 -1 7 C-0.67 4.69 -0.34 2.38 0 0 Z " fill="#03FC42" transform="translate(129,184)"/>
<path d="M0 0 C5.94 0 11.88 0 18 0 C17.08872875 5.88821422 16.14660715 11.67534834 14.625 17.4375 C12.86356782 24.15240137 11.64969058 30.95777036 10.44580078 37.79077148 C10.28708496 38.66419189 10.12836914 39.5376123 9.96484375 40.4375 C9.8268335 41.21996094 9.68882324 42.00242187 9.54663086 42.80859375 C9 45 9 45 7 49 C1.39 49 -4.22 49 -10 49 C-9.60636762 43.64659968 -9.00041617 38.65129669 -7.62109375 33.4609375 C-5.95723028 26.97552075 -4.6425862 20.44766916 -3.375 13.875 C-2.94796126 11.66354937 -2.51840612 9.45258268 -2.0859375 7.2421875 C-1.9007959 6.2816748 -1.7156543 5.32116211 -1.52490234 4.33154297 C-1 2 -1 2 0 0 Z " fill="#06F642" transform="translate(141,244)"/>
<path d="M0 0 C4.16253275 -0.09938095 8.32442479 -0.17170617 12.48779297 -0.21972656 C13.90197795 -0.23975843 15.31608097 -0.26699248 16.72998047 -0.30175781 C18.77071419 -0.35065489 20.8103469 -0.37305123 22.8515625 -0.390625 C24.68968506 -0.4220459 24.68968506 -0.4220459 26.56494141 -0.45410156 C30.68612946 0.09070368 32.78866671 1.4063434 36 4 C38.70827845 8.06241767 38.64175877 11.23038545 38 16 C36.61025316 19.92133974 34.68856357 22.51487567 31.25 24.9375 C30.5075 25.288125 29.765 25.63875 29 26 C29.68468801 29.07756672 30.71280415 31.84770192 31.9375 34.75 C33.71760963 39.13530656 35.07148004 43.3574002 36 48 C35 49 35 49 31.40234375 49.09765625 C29.91403133 49.0909822 28.42573568 49.07902183 26.9375 49.0625 C25.79958008 49.05573242 25.79958008 49.05573242 24.63867188 49.04882812 C22.75908129 49.0370068 20.87953101 49.01907078 19 49 C15.61352315 44.37181497 14.35708151 39.94736946 13.5 34.3125 C13.3040625 33.02988281 13.108125 31.74726563 12.90625 30.42578125 C13 27 13 27 14.78125 24.60546875 C17 23 17 23 20 22 C20.66 17.05 21.32 12.1 22 7 C19.03 6.505 19.03 6.505 16 6 C15.83564453 7.48113281 15.83564453 7.48113281 15.66796875 8.9921875 C15.43013672 10.91417969 15.43013672 10.91417969 15.1875 12.875 C15.03667969 14.15117187 14.88585937 15.42734375 14.73046875 16.7421875 C14 20 14 20 11 22 C9.83811397 16.61307386 10.07596382 14.56149645 13 10 C13.25136033 6.79083829 13.25136033 6.79083829 13 4 C19.625 3.75 19.625 3.75 23 6 C23.29296875 9.2578125 23.29296875 9.2578125 23.1875 13.125 C23.16042969 14.40632812 23.13335937 15.68765625 23.10546875 17.0078125 C23.07066406 17.99523437 23.03585938 18.98265625 23 20 C23.66 20 24.32 20 25 20 C25 19.34 25 18.68 25 18 C28.73059699 17.04070363 31.26798075 17.15323933 35 18 C34.88610125 16.20759337 34.75852313 14.41605165 34.625 12.625 C34.52058594 11.12839844 34.52058594 11.12839844 34.4140625 9.6015625 C34.23636036 6.84491121 34.23636036 6.84491121 32 5 C31.34 4.34 30.68 3.68 30 3 C28.12692858 2.79419655 28.12692858 2.79419655 26 2.9375 C22.6090298 3.01901371 19.37044373 2.88444124 16 2.5 C11.30292804 1.9772851 6.72406253 1.92380544 2 2 C1.01 7.61 0.02 13.22 -1 19 C-0.34 19.33 0.32 19.66 1 20 C0.01 20.33 -0.98 20.66 -2 21 C-2.33 21.99 -2.66 22.98 -3 24 C-3.66 24 -4.32 24 -5 24 C-4.73609929 22.24894115 -4.46333824 20.4992181 -4.1875 18.75 C-4.03667969 17.77546875 -3.88585937 16.8009375 -3.73046875 15.796875 C-2.70668183 10.47537293 -1.35032194 5.24678133 0 0 Z " fill="#03FC41" transform="translate(222,184)"/>
<path d="M0 0 C3.10776329 5.82705616 2.7111525 12.4220722 1 18.625 C0.67 19.40875 0.34 20.1925 0 21 C-0.66 21 -1.32 21 -2 21 C-2 20.34 -2 19.68 -2 19 C-3.98 18.34 -5.96 17.68 -8 17 C-8 17.66 -8 18.32 -8 19 C-8.66 19 -9.32 19 -10 19 C-10 19.66 -10 20.32 -10 21 C-10.66 21 -11.32 21 -12 21 C-12.66 22.32 -13.32 23.64 -14 25 C-14.69867188 24.855625 -15.39734375 24.71125 -16.1171875 24.5625 C-17.02726562 24.376875 -17.93734375 24.19125 -18.875 24 C-19.77992188 23.814375 -20.68484375 23.62875 -21.6171875 23.4375 C-23.92407903 22.93980405 -23.92407903 22.93980405 -26 23 C-26.39036513 21.39950296 -26.76178619 19.79437629 -27.125 18.1875 C-27.33382813 17.29417969 -27.54265625 16.40085937 -27.7578125 15.48046875 C-28 13 -28 13 -26 10 C-25.67 9.01 -25.34 8.02 -25 7 C-23.41773035 6.80372609 -21.83410729 6.61834462 -20.25 6.4375 C-18.92742187 6.28087891 -18.92742187 6.28087891 -17.578125 6.12109375 C-15.11567549 6.00543324 -13.33461936 6.26361305 -11 7 C-10.896875 6.401875 -10.79375 5.80375 -10.6875 5.1875 C-8.8776845 -0.57100385 -5.586599 -0.31622259 0 0 Z " fill="#F1F1F0" transform="translate(374,349)"/>
<path d="M0 0 C6.6 0 13.2 0 20 0 C19.71125 2.495625 19.4225 4.99125 19.125 7.5625 C18.99569092 8.71987671 18.99569092 8.71987671 18.86376953 9.90063477 C18.31596737 14.44461317 17.36642097 18.63089764 16 23 C14.37581255 23.08090971 12.75048255 23.13914995 11.125 23.1875 C10.22007812 23.22230469 9.31515625 23.25710938 8.3828125 23.29296875 C7.20332031 23.14794922 7.20332031 23.14794922 6 23 C5.34 22.01 4.68 21.02 4 20 C3.22462891 20.73089844 3.22462891 20.73089844 2.43359375 21.4765625 C-0.81374361 23.50940611 -3.12964632 23.39938327 -6.9375 23.375 C-8.74541016 23.38660156 -8.74541016 23.38660156 -10.58984375 23.3984375 C-14.18119018 22.97883001 -16.09126484 22.08634135 -19 20 C-17.0625 19.4375 -17.0625 19.4375 -15 19 C-14.67 19.33 -14.34 19.66 -14 20 C-11.81707226 20.23481693 -9.62796826 20.41363323 -7.4375 20.5625 C-6.23996094 20.64628906 -5.04242188 20.73007812 -3.80859375 20.81640625 C-2.41833984 20.90728516 -2.41833984 20.90728516 -1 21 C-1 20.01 -1 19.02 -1 18 C-2.65 18 -4.3 18 -6 18 C-6 17.34 -6 16.68 -6 16 C-6.66 16 -7.32 16 -8 16 C-8 14.35 -8 12.7 -8 11 C-7.34 11 -6.68 11 -6 11 C-5.67 12.65 -5.34 14.3 -5 16 C-2.83125748 15.49396008 -1.00032373 15.00016187 1 14 C1.90343684 12.11736119 1.90343684 12.11736119 2.625 9.9375 C2.88539063 9.20402344 3.14578125 8.47054688 3.4140625 7.71484375 C3.60742188 7.14894531 3.80078125 6.58304687 4 6 C2.02 6 0.04 6 -2 6 C-1.34 4.02 -0.68 2.04 0 0 Z " fill="#06F641" transform="translate(231,270)"/>
<path d="M0 0 C1.43791516 0.14168137 2.8753237 0.28851043 4.3125 0.4375 C5.11300781 0.51871094 5.91351563 0.59992188 6.73828125 0.68359375 C9 1 9 1 12 2 C14.45410358 5.68115537 14.23287843 7.65293598 14 12 C12.88820837 15.33537489 11.52588702 16.63707344 9 19 C17.20979047 17.67435142 17.20979047 17.67435142 25 15 C26.43923199 12.49004504 26.43923199 12.49004504 27 10 C27.66 10 28.32 10 29 10 C27.64352598 14.43936951 25.83191061 16.4156882 22 19 C16.40727209 21.63557229 11.1394089 21.33070524 5.0625 21.3125 C3.99064453 21.32861328 2.91878906 21.34472656 1.81445312 21.36132812 C-3.95189496 21.36489862 -8.12972959 21.21014346 -13 18 C-13.17791204 13.46324303 -13.0461125 10.092225 -11 6 C-10 5 -10 5 -7.09375 4.8671875 C-5.9078125 4.86976563 -4.721875 4.87234375 -3.5 4.875 C-2.3140625 4.87242187 -1.128125 4.86984375 0.09375 4.8671875 C3 5 3 5 4 6 C4.36760731 8.32817964 4.70241581 10.6618385 5 13 C6.83700789 13.77242269 6.83700789 13.77242269 9 14 C11.46756016 12.35495989 11.94960299 11.19700648 12.6875 8.3125 C12.790625 7.549375 12.89375 6.78625 13 6 C12.34 6 11.68 6 11 6 C11 5.34 11 4.68 11 4 C7.37 3.01 3.74 2.02 0 1 C0 0.67 0 0.34 0 0 Z " fill="#04E23B" transform="translate(265,272)"/>
<path d="M0 0 C1.39120471 0.00015906 2.78241534 0.00585033 4.17358398 0.01586914 C4.90463852 0.01728409 5.63569305 0.01869904 6.38890076 0.02015686 C8.73253406 0.02577131 11.07607313 0.03832617 13.41967773 0.05102539 C15.00496282 0.05603853 16.59024939 0.06060176 18.17553711 0.06469727 C22.06945383 0.07574542 25.96329979 0.09301967 29.85717773 0.11352539 C29.19717773 2.42352539 28.53717773 4.73352539 27.85717773 7.11352539 C22.90717773 7.11352539 17.95717773 7.11352539 12.85717773 7.11352539 C12.19717773 11.07352539 11.53717773 15.03352539 10.85717773 19.11352539 C14.48717773 19.11352539 18.11717773 19.11352539 21.85717773 19.11352539 C21.89959497 21.44647314 21.89810711 23.78055106 21.85717773 26.11352539 C20.85717773 27.11352539 20.85717773 27.11352539 18.35327148 27.21118164 C17.34393555 27.19958008 16.33459961 27.18797852 15.29467773 27.17602539 C14.28276367 27.16700195 13.27084961 27.15797852 12.22827148 27.14868164 C11.05458008 27.1312793 11.05458008 27.1312793 9.85717773 27.11352539 C9.85717773 26.45352539 9.85717773 25.79352539 9.85717773 25.11352539 C12.82717773 24.78352539 15.79717773 24.45352539 18.85717773 24.11352539 C19.18717773 23.12352539 19.51717773 22.13352539 19.85717773 21.11352539 C16.55717773 21.11352539 13.25717773 21.11352539 9.85717773 21.11352539 C8.73360988 17.74282181 8.91309314 15.63207984 9.23217773 12.11352539 C9.32241211 11.06165039 9.41264648 10.00977539 9.50561523 8.92602539 C9.85717773 6.11352539 9.85717773 6.11352539 10.85717773 3.11352539 C6.56717773 2.45352539 2.27717773 1.79352539 -2.14282227 1.11352539 C-2.29750977 2.62946289 -2.29750977 2.62946289 -2.45532227 4.17602539 C-3.5571962 12.97527578 -5.30037748 21.71592919 -8.14282227 30.11352539 C-8.51813672 32.44047503 -8.86199429 34.77329224 -9.14282227 37.11352539 C-9.80282227 37.11352539 -10.46282227 37.11352539 -11.14282227 37.11352539 C-11.14282227 39.09352539 -11.14282227 41.07352539 -11.14282227 43.11352539 C-11.47282227 43.11352539 -11.80282227 43.11352539 -12.14282227 43.11352539 C-12.57856967 36.86781265 -11.15803164 31.35590366 -9.66967773 25.31420898 C-9.04065198 22.68675848 -8.45187975 20.05159528 -7.86547852 17.41430664 C-7.53229614 15.91975952 -7.53229614 15.91975952 -7.19238281 14.39501953 C-6.74523714 12.38553424 -6.30006395 10.37560894 -5.85693359 8.36523438 C-5.64963623 7.44170166 -5.44233887 6.51816895 -5.22875977 5.56665039 C-5.04361816 4.73294922 -4.85847656 3.89924805 -4.66772461 3.0402832 C-3.79579647 -0.16030137 -3.50807238 0.126719 0 0 Z " fill="#12E648" transform="translate(273.142822265625,183.886474609375)"/>
<path d="M0 0 C6.27 0 12.54 0 19 0 C20.79387042 5.38161126 21.90637467 10.52957498 22.85546875 16.078125 C23.5870903 20.20037973 24.573139 24.06383173 26 28 C26.18175781 27.20078125 26.36351562 26.4015625 26.55078125 25.578125 C31.1011236 5.69662921 31.1011236 5.69662921 33 0 C35.64 0 38.28 0 41 0 C40.49406762 6.07118853 39.38232701 11.64062876 37.82421875 17.5234375 C36.65954129 22.43605809 35.85549705 27.39949461 35.09033203 32.38867188 C34.2134951 37.7865049 34.2134951 37.7865049 32 40 C32.31328058 31.19573542 32.61045808 23.25279772 36 15 C34.35 15.33 32.7 15.66 31 16 C30.83564453 17.68029297 30.83564453 17.68029297 30.66796875 19.39453125 C30.50850107 20.86726222 30.34830683 22.33991465 30.1875 23.8125 C30.11724609 24.55048828 30.04699219 25.28847656 29.97460938 26.04882812 C29.35233341 31.54974762 29.35233341 31.54974762 27.42578125 34.01171875 C26.72001953 34.50091797 26.72001953 34.50091797 26 35 C26 34.34 26 33.68 26 33 C24.515 32.505 24.515 32.505 23 32 C22.87625 30.824375 22.7525 29.64875 22.625 28.4375 C22.28571666 25.66991733 21.79935239 23.3228143 21 20.625 C19.96724852 16.8812759 19.55243495 13.3847421 19.24609375 9.52734375 C18.96769472 6.66822992 18.47225846 3.83355075 18 1 C12.06 1 6.12 1 0 1 C0 0.67 0 0.34 0 0 Z " fill="#16BA3F" transform="translate(166,244)"/>
<path d="M0 0 C2.64 0 5.28 0 8 0 C6.88092197 12.5336739 4.24279951 24.85675076 1 37 C0.67 37 0.34 37 0 37 C-0.33 33.04 -0.66 29.08 -1 25 C-1.45439453 26.32064453 -1.45439453 26.32064453 -1.91796875 27.66796875 C-6.42732716 40.16929777 -6.42732716 40.16929777 -11 43 C-14.8125 42.8125 -14.8125 42.8125 -18 42 C-18 41.67 -18 41.34 -18 41 C-16.906875 40.690625 -15.81375 40.38125 -14.6875 40.0625 C-12.44592006 39.41662103 -10.2130649 38.7376883 -8 38 C-7.89042969 37.27296875 -7.78085938 36.5459375 -7.66796875 35.796875 C-6.67363689 29.49135591 -5.4024309 23.35616276 -3.796875 17.1796875 C-2.37073058 11.48909163 -1.19772374 5.74227834 0 0 Z " fill="#19C544" transform="translate(207,184)"/>
<path d="M0 0 C0.33 0 0.66 0 1 0 C1.16272705 3.90544925 1.06008879 7.16746591 0 10.9375 C-1.14496813 15.05777264 -1.15227775 18.73622305 -1 23 C0.60414215 21.81476003 0.60414215 21.81476003 2 20 C2.04165365 18.33385392 2.04165365 16.66614608 2 15 C2.66 14.01 3.32 13.02 4 12 C4.66 12 5.32 12 6 12 C8.09570426 17.69398894 9.45018084 22.95198929 10 29 C9.34 29 8.68 29 8 29 C7.51171875 26.98177083 7.0234375 24.96354167 6.53515625 22.9453125 C6.05153008 20.9414343 6.05153008 20.9414343 5 19 C4.85900879 19.70608398 4.71801758 20.41216797 4.57275391 21.13964844 C3.9293968 24.34431504 3.27729833 27.54714193 2.625 30.75 C2.40328125 31.86117188 2.1815625 32.97234375 1.953125 34.1171875 C1.73398438 35.18710937 1.51484375 36.25703125 1.2890625 37.359375 C1.09006348 38.34389648 0.89106445 39.32841797 0.68603516 40.34277344 C0.0503583 42.80494671 -0.76533553 44.78770158 -2 47 C-4.31 47 -6.62 47 -9 47 C-9.32593444 41.24182492 -8.48704677 36.76143958 -6.85546875 31.25390625 C-5.8327019 27.36365609 -5.15727933 23.46549803 -4.5 19.5 C-3.3931859 12.86940449 -1.9609937 6.43929135 0 0 Z " fill="#14D945" transform="translate(165,246)"/>
<path d="M0 0 C-0.47505678 1.81358154 -0.95516042 3.62584179 -1.4375 5.4375 C-1.70433594 6.44683594 -1.97117187 7.45617187 -2.24609375 8.49609375 C-3 11 -3 11 -4 12 C-6.18639453 12.07258946 -8.37500389 12.08373783 -10.5625 12.0625 C-12.35880859 12.04896484 -12.35880859 12.04896484 -14.19140625 12.03515625 C-15.11824219 12.02355469 -16.04507812 12.01195312 -17 12 C-17.33 9.03 -17.66 6.06 -18 3 C-20.91517292 4.07401108 -22.77810176 4.77810176 -25 7 C-25.16687448 9.58354218 -25.16687448 9.58354218 -25 12 C-24.3709375 12.18175781 -23.741875 12.36351562 -23.09375 12.55078125 C-17.62938892 14.15552584 -12.30780262 15.93585454 -7 18 C-10.87451979 19.2915066 -12.17364786 18.34630909 -16 17 C-18.98741238 16.27267248 -21.99041758 15.62866833 -25 15 C-25 14.34 -25 13.68 -25 13 C-25.66 13 -26.32 13 -27 13 C-27.33 10.36 -27.66 7.72 -28 5 C-27.01 5 -26.02 5 -25 5 C-25 4.01 -25 3.02 -25 2 C-19.375 0.875 -19.375 0.875 -16 2 C-15.67 4.64 -15.34 7.28 -15 10 C-11.7 9.67 -8.4 9.34 -5 9 C-4.34 6.03 -3.68 3.06 -3 0 C-8.01608525 -1.0176403 -12.78608306 -1.11856434 -17.875 -1.0625 C-19.050625 -1.05573242 -19.050625 -1.05573242 -20.25 -1.04882812 C-22.16670014 -1.03714093 -24.08336048 -1.01920908 -26 -1 C-26.33 -0.34 -26.66 0.32 -27 1 C-28.73611537 1.72065166 -30.47320546 2.43921632 -32.21875 3.13671875 C-34.63191138 4.3062553 -36.18854734 6.05436566 -38 8 C-38.66 8 -39.32 8 -40 8 C-39.85904936 9.6254308 -39.71207913 11.25034051 -39.5625 12.875 C-39.44068359 14.23238281 -39.44068359 14.23238281 -39.31640625 15.6171875 C-39.13010715 18.01110861 -39.13010715 18.01110861 -38 20 C-35.98330173 21.13350534 -35.98330173 21.13350534 -34 22 C-34 22.99 -34 23.98 -34 25 C-35.32 24.67 -36.64 24.34 -38 24 C-38 23.34 -38 22.68 -38 22 C-38.66 22 -39.32 22 -40 22 C-42.9936128 17.50958079 -42.82355185 13.25749621 -42 8 C-39.15516625 2.27895565 -33.8670231 -0.91037533 -28 -3 C-18.26504539 -5.16332325 -8.90946357 -4.58972366 0 0 Z " fill="#19B23F" transform="translate(299,247)"/>
<path d="M0 0 C4.16253275 -0.09938095 8.32442479 -0.17170617 12.48779297 -0.21972656 C13.90197795 -0.23975843 15.31608097 -0.26699248 16.72998047 -0.30175781 C18.77071419 -0.35065489 20.8103469 -0.37305123 22.8515625 -0.390625 C24.68968506 -0.4220459 24.68968506 -0.4220459 26.56494141 -0.45410156 C30.68612946 0.09070368 32.78866671 1.4063434 36 4 C38.70827845 8.06241767 38.64175877 11.23038545 38 16 C36.61025316 19.92133974 34.68856357 22.51487567 31.25 24.9375 C30.5075 25.288125 29.765 25.63875 29 26 C29.75035741 29.11799003 30.63363411 32.18070403 31.5625 35.25 C31.83191406 36.14203125 32.10132813 37.0340625 32.37890625 37.953125 C32.58386719 38.62859375 32.78882813 39.3040625 33 40 C32.01 40.495 32.01 40.495 31 41 C30.32532438 39.25307205 29.66055844 37.50231475 29 35.75 C28.62875 34.77546875 28.2575 33.8009375 27.875 32.796875 C27 30 27 30 27 26 C26.34 26 25.68 26 25 26 C23.875 20.25 23.875 20.25 25 18 C28.68894825 16.87282137 31.28851043 17.17176491 35 18 C34.88610125 16.20759337 34.75852313 14.41605165 34.625 12.625 C34.52058594 11.12839844 34.52058594 11.12839844 34.4140625 9.6015625 C34.23636036 6.84491121 34.23636036 6.84491121 32 5 C31.34 4.34 30.68 3.68 30 3 C28.12692858 2.79419655 28.12692858 2.79419655 26 2.9375 C22.6090298 3.01901371 19.37044373 2.88444124 16 2.5 C11.30292804 1.9772851 6.72406253 1.92380544 2 2 C1.01 7.61 0.02 13.22 -1 19 C-0.34 19.33 0.32 19.66 1 20 C0.01 20.33 -0.98 20.66 -2 21 C-2.33 21.99 -2.66 22.98 -3 24 C-3.66 24 -4.32 24 -5 24 C-4.73609929 22.24894115 -4.46333824 20.4992181 -4.1875 18.75 C-4.03667969 17.77546875 -3.88585937 16.8009375 -3.73046875 15.796875 C-2.70668183 10.47537293 -1.35032194 5.24678133 0 0 Z " fill="#06F744" transform="translate(222,184)"/>
<path d="M0 0 C3.3 0 6.6 0 10 0 C9.34 1.65 8.68 3.3 8 5 C7.34 5 6.68 5 6 5 C6 5.66 6 6.32 6 7 C5.34 7 4.68 7 4 7 C3.690625 7.804375 3.690625 7.804375 3.375 8.625 C2.04931932 10.91481208 0.86677131 12.11691104 -1.0625 13.875 C-4.02213371 16.69781366 -4.80174587 18.83666336 -5 23 C-5.99 22.67 -6.98 22.34 -8 22 C-8 20.35 -8 18.7 -8 17 C-8.66 17 -9.32 17 -10 17 C-10 17.66 -10 18.32 -10 19 C-12.35438733 20.42944945 -13.48032433 21.08661261 -16.25 20.625 C-17.11625 20.315625 -17.11625 20.315625 -18 20 C-17.67 18.02 -17.34 16.04 -17 14 C-16.34 14 -15.68 14 -15 14 C-14.67 14.66 -14.34 15.32 -14 16 C-13.34 15.01 -12.68 14.02 -12 13 C-11.34 13 -10.68 13 -10 13 C-10 12.34 -10 11.68 -10 11 C-9.34 11 -8.68 11 -8 11 C-7.34 9.35 -6.68 7.7 -6 6 C-5.34 6 -4.68 6 -4 6 C-4 5.34 -4 4.68 -4 4 C-3.34 4 -2.68 4 -2 4 C-2 3.34 -2 2.68 -2 2 C-1.34 2 -0.68 2 0 2 C0 1.34 0 0.68 0 0 Z " fill="#0DD841" transform="translate(125,244)"/>
<path d="M0 0 C2.58445773 -0.1081866 5.16437352 -0.18737237 7.75 -0.25 C8.47960937 -0.28351563 9.20921875 -0.31703125 9.9609375 -0.3515625 C13.50121829 -0.41593124 15.58897502 -0.28714574 18.52734375 1.765625 C20.18516816 4.2809448 20.38466575 5.09951619 19.8125 8 C19.69519531 8.66 19.57789063 9.32 19.45703125 10 C18.99853616 12.00640586 18.49916885 14.00332459 18 16 C14.37 16 10.74 16 7 16 C6.67 11.71 6.34 7.42 6 3 C4.02 3 2.04 3 0 3 C0 2.01 0 1.02 0 0 Z " fill="#03FC41" transform="translate(232,245)"/>
<path d="M0 0 C2.39774745 -0.13572155 4.78775245 -0.23436868 7.1875 -0.3125 C8.19780273 -0.3753418 8.19780273 -0.3753418 9.22851562 -0.43945312 C13.06030188 -0.53291133 14.84282284 -0.11416026 17.96875 2.15625 C20.29867181 5.41814053 20.55011486 6.86809333 20.3125 10.8125 C20.24482422 12.27623047 20.24482422 12.27623047 20.17578125 13.76953125 C20.11777344 14.50558594 20.05976563 15.24164063 20 16 C16.98968256 16.93423645 16.13349732 17.04449911 13 16 C12.01 16 11.02 16 10 16 C10 16.66 10 17.32 10 18 C9.34 18 8.68 18 8 18 C8 13.38 8 8.76 8 4 C3.545 3.01 3.545 3.01 -1 2 C-0.67 1.34 -0.34 0.68 0 0 Z " fill="#02FC40" transform="translate(237,186)"/>
<path d="M0 0 C0.74886475 0.00523682 1.49772949 0.01047363 2.26928711 0.01586914 C3.07817383 0.0190918 3.88706055 0.02231445 4.72045898 0.02563477 C5.5705957 0.03401367 6.42073242 0.04239258 7.29663086 0.05102539 C8.15063477 0.05553711 9.00463867 0.06004883 9.88452148 0.06469727 C12.00108749 0.07652166 14.11761771 0.0944577 16.23413086 0.11352539 C15.80212508 7.81514572 14.38244605 14.72595173 12.23413086 22.11352539 C10.82883011 27.47766119 9.67562339 32.52845068 10.23413086 38.11352539 C11.58842927 40.05722277 11.58842927 40.05722277 13.23413086 41.11352539 C11.25413086 41.60852539 11.25413086 41.60852539 9.23413086 42.11352539 C7.1211783 38.94409655 6.98162157 38.11722586 7.04663086 34.48852539 C7.05629883 33.29356445 7.05629883 33.29356445 7.06616211 32.07446289 C7.23413086 30.11352539 7.23413086 30.11352539 8.23413086 29.11352539 C8.39387583 27.59594819 8.51148348 26.0738596 8.60913086 24.55102539 C8.9116619 21.06447914 9.43261915 18.20964223 10.79663086 14.98852539 C12.51764975 10.89483967 12.47039701 7.52382696 12.23413086 3.11352539 C7.94413086 2.78352539 3.65413086 2.45352539 -0.76586914 2.11352539 C-0.55961914 3.55727539 -0.35336914 5.00102539 -0.14086914 6.48852539 C0.21069336 8.94946289 0.21069336 8.94946289 0.23413086 11.11352539 C-0.42586914 11.77352539 -1.08586914 12.43352539 -1.76586914 13.11352539 C-2.48514209 15.43118268 -3.15685844 17.76448413 -3.76586914 20.11352539 C-4.42586914 20.11352539 -5.08586914 20.11352539 -5.76586914 20.11352539 C-4.1916019 0.26947254 -4.1916019 0.26947254 0 0 Z " fill="#1BC745" transform="translate(175.765869140625,183.886474609375)"/>
<path d="M0 0 C2.31 0 4.62 0 7 0 C10.10776329 5.82705616 9.7111525 12.4220722 8 18.625 C7.67 19.40875 7.34 20.1925 7 21 C6.34 21 5.68 21 5 21 C5 20.34 5 19.68 5 19 C4.34 18.67 3.68 18.34 3 18 C3 17.34 3 16.68 3 16 C2.01 16 1.02 16 0 16 C-3.32286996 8.48520179 -3.32286996 8.48520179 -2.53125 4.84375 C-1.6875 2.9375 -1.6875 2.9375 0 0 Z " fill="#EBEBEB" transform="translate(367,349)"/>
<path d="M0 0 C-0.14433868 1.35432679 -0.29056661 2.70845225 -0.4375 4.0625 C-0.51871094 4.81660156 -0.59992188 5.57070312 -0.68359375 6.34765625 C-1.06823886 9.57202696 -1.54077199 12.78540391 -2 16 C-6.95 16 -11.9 16 -17 16 C-17 11.71 -17 7.42 -17 3 C-20.91191492 3.54074316 -20.91191492 3.54074316 -22.265625 5.62890625 C-22.59046875 6.26699219 -22.9153125 6.90507812 -23.25 7.5625 C-23.8275 8.696875 -24.405 9.83125 -25 11 C-26.11808489 7.64574534 -25.78694699 5.41010364 -25 2 C-25 1.01 -25 0.02 -25 -1 C-27.31 -0.34 -29.62 0.32 -32 1 C-32.66 0.34 -33.32 -0.32 -34 -1 C-24.55441818 -6.66734909 -9.43296875 -5.03373669 0 0 Z M-22 -2 C-22 -1.01 -22 -0.02 -22 1 C-20.02 1 -18.04 1 -16 1 C-15.67 5.29 -15.34 9.58 -15 14 C-11.37 14 -7.74 14 -4 14 C-2.02545012 8.10116829 -2.02545012 8.10116829 -2 2 C-3.46030709 -0.29171305 -3.46030709 -0.29171305 -6 -2 C-8.89449949 -2.2906124 -11.37949935 -2.38186045 -14.25 -2.25 C-14.99507812 -2.23195312 -15.74015625 -2.21390625 -16.5078125 -2.1953125 C-18.33909701 -2.14835649 -20.16971649 -2.07661652 -22 -2 Z " fill="#15C142" transform="translate(254,247)"/>
<path d="M0 0 C5.78159553 -0.36134972 9.72006588 0.54209963 15 3 C15.33 3.99 15.66 4.98 16 6 C17.32 5.67 18.64 5.34 20 5 C19.67 5.99 19.34 6.98 19 8 C11.02984176 10.56666113 5.55497789 10.62638939 -2 7 C-2 6.34 -2 5.68 -2 5 C-2.66 5 -3.32 5 -4 5 C-4 4.34 -4 3.68 -4 3 C-3.01 3 -2.02 3 -1 3 C-0.67 2.01 -0.34 1.02 0 0 Z " fill="#D9D9D9" transform="translate(346,371)"/>
<path d="M0 0 C-0.875 7.875 -0.875 7.875 -2 9 C-2.21520966 10.59576471 -2.37088315 12.19966131 -2.5 13.8046875 C-2.5825 14.78050781 -2.665 15.75632812 -2.75 16.76171875 C-2.8325 17.78910156 -2.915 18.81648438 -3 19.875 C-3.16331756 21.89350294 -3.32984449 23.91174948 -3.5 25.9296875 C-3.5721875 26.82929199 -3.644375 27.72889648 -3.71875 28.65576172 C-4 31 -4 31 -5 34 C-11.27 34 -17.54 34 -24 34 C-24 33.34 -24 32.68 -24 32 C-18.06 32 -12.12 32 -6 32 C-6 28.04 -6 24.08 -6 20 C-6.99 20 -7.98 20 -9 20 C-8.52342708 17.39533418 -8.04385281 14.79128286 -7.5625 12.1875 C-7.42779297 11.44951172 -7.29308594 10.71152344 -7.15429688 9.95117188 C-6.58580263 6.88684924 -5.98690349 3.96071047 -5 1 C-3 0 -3 0 0 0 Z " fill="#15DF47" transform="translate(202,259)"/>
<path d="M0 0 C0.33 0 0.66 0 1 0 C0.98952637 0.62567871 0.97905273 1.25135742 0.96826172 1.89599609 C0.92676809 4.7222901 0.90069527 7.54852011 0.875 10.375 C0.85824219 11.35984375 0.84148437 12.3446875 0.82421875 13.359375 C0.81777344 14.30039063 0.81132812 15.24140625 0.8046875 16.2109375 C0.79421387 17.08024902 0.78374023 17.94956055 0.77294922 18.84521484 C0.79404891 21.21345939 0.79404891 21.21345939 3 23 C3.66 23.66 4.32 24.32 5 25 C8.97155642 26.11854887 12.82992563 26.13391981 16.9375 26.125 C18.71447266 26.12886719 18.71447266 26.12886719 20.52734375 26.1328125 C23.77535743 26.0085915 26.81203717 25.61325697 30 25 C30 24.34 30 23.68 30 23 C30.99 23 31.98 23 33 23 C33.33 21.68 33.66 20.36 34 19 C34.66 19 35.32 19 36 19 C36.33 18.34 36.66 17.68 37 17 C37.495 17.99 37.495 17.99 38 19 C36.31492068 23.00206339 33.99591008 25.15164794 30.1484375 27.1484375 C21.66708072 30.51013891 12.66789586 30.94023441 4.125 27.6875 C0.93144784 25.96298184 -0.19484207 25.06184604 -2 22 C-3.00972328 14.59536264 -1.78229291 7.19282497 0 0 Z " fill="#18AA3F" transform="translate(169,204)"/>
<path d="M0 0 C1.33804688 0.04060547 1.33804688 0.04060547 2.703125 0.08203125 C3.37859375 0.11683594 4.0540625 0.15164063 4.75 0.1875 C4.42 3.1575 4.09 6.1275 3.75 9.1875 C2.76 9.5175 1.77 9.8475 0.75 10.1875 C0.42 10.8475 0.09 11.5075 -0.25 12.1875 C-3.25 12.1875 -3.25 12.1875 -5.25 11.1875 C-5.58 12.5075 -5.91 13.8275 -6.25 15.1875 C-7.24 14.8575 -8.23 14.5275 -9.25 14.1875 C-8.95703125 12.20182292 -8.6640625 10.21614583 -8.37109375 8.23046875 C-8.11095201 5.9849658 -8.11095201 5.9849658 -9.25 3.1875 C-6.10408067 0.38704377 -4.182936 -0.16511589 0 0 Z " fill="#02F93E" transform="translate(244.25,271.8125)"/>
<path d="M0 0 C1.39120471 0.00015906 2.78241534 0.00585033 4.17358398 0.01586914 C4.90463852 0.01728409 5.63569305 0.01869904 6.38890076 0.02015686 C8.73253406 0.02577131 11.07607313 0.03832617 13.41967773 0.05102539 C15.00496282 0.05603853 16.59024939 0.06060176 18.17553711 0.06469727 C22.06945383 0.07574542 25.96329979 0.09301967 29.85717773 0.11352539 C29.19717773 2.42352539 28.53717773 4.73352539 27.85717773 7.11352539 C22.90717773 7.11352539 17.95717773 7.11352539 12.85717773 7.11352539 C12.52717773 7.77352539 12.19717773 8.43352539 11.85717773 9.11352539 C11.85717773 8.12352539 11.85717773 7.13352539 11.85717773 6.11352539 C16.80717773 6.11352539 21.75717773 6.11352539 26.85717773 6.11352539 C27.18717773 4.46352539 27.51717773 2.81352539 27.85717773 1.11352539 C17.95717773 1.11352539 8.05717773 1.11352539 -2.14282227 1.11352539 C-2.47282227 3.75352539 -2.80282227 6.39352539 -3.14282227 9.11352539 C-3.59481212 11.66016539 -4.07358464 14.2022117 -4.58032227 16.73852539 C-4.8265332 17.98891602 -5.07274414 19.23930664 -5.32641602 20.52758789 C-6.07628112 23.82125375 -7.06116727 26.91793054 -8.14282227 30.11352539 C-8.51813672 32.44047503 -8.86199429 34.77329224 -9.14282227 37.11352539 C-9.80282227 37.11352539 -10.46282227 37.11352539 -11.14282227 37.11352539 C-11.14282227 39.09352539 -11.14282227 41.07352539 -11.14282227 43.11352539 C-11.47282227 43.11352539 -11.80282227 43.11352539 -12.14282227 43.11352539 C-12.57856967 36.86781265 -11.15803164 31.35590366 -9.66967773 25.31420898 C-9.04065198 22.68675848 -8.45187975 20.05159528 -7.86547852 17.41430664 C-7.53229614 15.91975952 -7.53229614 15.91975952 -7.19238281 14.39501953 C-6.74523714 12.38553424 -6.30006395 10.37560894 -5.85693359 8.36523438 C-5.64963623 7.44170166 -5.44233887 6.51816895 -5.22875977 5.56665039 C-5.04361816 4.73294922 -4.85847656 3.89924805 -4.66772461 3.0402832 C-3.79579647 -0.16030137 -3.50807238 0.126719 0 0 Z " fill="#1FB748" transform="translate(273.142822265625,183.886474609375)"/>
<path d="M0 0 C2.19115765 3.28673647 3.60630245 6.66669154 5.0625 10.3125 C5.33126953 10.96412109 5.60003906 11.61574219 5.87695312 12.28710938 C7.4916743 16.30981873 8.27321746 19.63930475 9 24 C3.06 24 -2.88 24 -9 24 C-13.28571429 11.8125 -13.28571429 11.8125 -13 7 C-13.66 7 -14.32 7 -15 7 C-15.33 9.97 -15.66 12.94 -16 16 C-16.33 16 -16.66 16 -17 16 C-17.08121924 14.39667209 -17.13929134 12.79215974 -17.1875 11.1875 C-17.22230469 10.29417969 -17.25710937 9.40085937 -17.29296875 8.48046875 C-17 6 -17 6 -15.61328125 4.17578125 C-14 3 -14 3 -12 3 C-10.57741188 6.82320557 -9.75957724 9.91281305 -10 14 C-9.34 14.33 -8.68 14.66 -8 15 C-8 15.99 -8 16.98 -8 18 C-7.34 18.33 -6.68 18.66 -6 19 C-6 20.32 -6 21.64 -6 23 C-2.04 23 1.92 23 6 23 C5.3783476 20.76989746 4.7525397 18.54095304 4.125 16.3125 C3.77695313 15.07113281 3.42890625 13.82976562 3.0703125 12.55078125 C2.0974547 9.10191407 2.0974547 9.10191407 0.8671875 6.29296875 C0 4 0 4 0 0 Z " fill="#19C53F" transform="translate(121,269)"/>
<path d="M0 0 C13.86 0 27.72 0 42 0 C41.67 1.65 41.34 3.3 41 5 C40.34 5 39.68 5 39 5 C39 3.68 39 2.36 39 1 C26.79 1 14.58 1 2 1 C1.67 2.32 1.34 3.64 1 5 C1.71027344 4.98839844 2.42054688 4.97679687 3.15234375 4.96484375 C4.07144531 4.95582031 4.99054688 4.94679687 5.9375 4.9375 C6.85402344 4.92589844 7.77054688 4.91429687 8.71484375 4.90234375 C11 5 11 5 12 6 C12.4857159 11.3654663 12.06149392 15.97510856 10 21 C9.34 21 8.68 21 8 21 C8.66 16.71 9.32 12.42 10 8 C6.37 7.67 2.74 7.34 -1 7 C-0.67 4.69 -0.34 2.38 0 0 Z " fill="#1ED14E" transform="translate(129,184)"/>
<path d="M0 0 C1.43791516 0.14168137 2.8753237 0.28851043 4.3125 0.4375 C5.11300781 0.51871094 5.91351563 0.59992188 6.73828125 0.68359375 C9 1 9 1 12 2 C14.45410358 5.68115537 14.23287843 7.65293598 14 12 C12.88820837 15.33537489 11.52588702 16.63707344 9 19 C9.99 19.33 10.98 19.66 12 20 C7.71 20 3.42 20 -1 20 C-1.66 18.35 -2.32 16.7 -3 15 C0 14 0 14 2.375 14.5625 C5.5930697 15.09884495 7.12987507 14.47384794 10 13 C12.35953094 10.64046906 12.49141413 9.22104383 13 6 C12.34 6 11.68 6 11 6 C11 5.34 11 4.68 11 4 C7.37 3.01 3.74 2.02 0 1 C0 0.67 0 0.34 0 0 Z " fill="#09F745" transform="translate(265,272)"/>
<path d="M0 0 C0.59375 1.84765625 0.59375 1.84765625 1 4 C0.505 4.804375 0.01 5.60875 -0.5 6.4375 C-2.29290969 8.9151804 -2.29290969 8.9151804 -1.6875 11.8125 C-1.460625 12.534375 -1.23375 13.25625 -1 14 C-4.5034257 17.30248108 -7.21497412 17.40524029 -11.9375 17.375 C-13.74541016 17.38660156 -13.74541016 17.38660156 -15.58984375 17.3984375 C-19.18119018 16.97883001 -21.09126484 16.08634135 -24 14 C-22.0625 13.4375 -22.0625 13.4375 -20 13 C-19.67 13.33 -19.34 13.66 -19 14 C-16.81707226 14.23481693 -14.62796826 14.41363323 -12.4375 14.5625 C-11.23996094 14.64628906 -10.04242188 14.73007812 -8.80859375 14.81640625 C-7.88175781 14.87699219 -6.95492187 14.93757813 -6 15 C-6 14.01 -6 13.02 -6 12 C-7.65 12 -9.3 12 -11 12 C-11 11.34 -11 10.68 -11 10 C-11.66 10 -12.32 10 -13 10 C-13 8.35 -13 6.7 -13 5 C-12.34 5 -11.68 5 -11 5 C-10.67 6.65 -10.34 8.3 -10 10 C-7.83125748 9.49396008 -6.00032373 9.00016187 -4 8 C-2.87775145 6.11986894 -2.87775145 6.11986894 -1.875 3.9375 C-1.52179688 3.20402344 -1.16859375 2.47054688 -0.8046875 1.71484375 C-0.53914063 1.14894531 -0.27359375 0.58304687 0 0 Z " fill="#14CA44" transform="translate(236,276)"/>
<path d="M0 0 C2.64 0 5.28 0 8 0 C7.8823475 4.90931783 7.70605939 8.089555 4.625 12.0625 C2 14 2 14 -1 14 C-1.02705729 12.22925083 -1.04642195 10.45838289 -1.0625 8.6875 C-1.07410156 7.70136719 -1.08570313 6.71523437 -1.09765625 5.69921875 C-1 3 -1 3 0 0 Z " fill="#14DB47" transform="translate(199,244)"/>
<path d="M0 0 C6.6 0 13.2 0 20 0 C19.34 5.28 18.68 10.56 18 16 C17.67 16 17.34 16 17 16 C16.77668801 14.41870971 16.57195356 12.83478911 16.375 11.25 C16.20097656 9.92742187 16.20097656 9.92742187 16.0234375 8.578125 C15.99792183 5.77140122 16.55156156 4.36615134 18 2 C17.278125 2.165 16.55625 2.33 15.8125 2.5 C13 3 13 3 10.4375 2.875 C7.9138084 2.77189298 7.9138084 2.77189298 6.0625 4.5 C3.3050831 6.50539411 1.32679926 6.22682722 -2 6 C-1.34 4.02 -0.68 2.04 0 0 Z " fill="#10F54B" transform="translate(231,270)"/>
<path d="M0 0 C5.94 0 11.88 0 18 0 C17.67 1.65 17.34 3.3 17 5 C16.67 3.68 16.34 2.36 16 1 C13.87422093 1.0868276 11.74930419 1.1949951 9.625 1.3125 C8.44164062 1.37050781 7.25828125 1.42851562 6.0390625 1.48828125 C5.03617188 1.65714844 4.03328125 1.82601562 3 2 C0.79086 5.31371 0.77518447 6.3446021 0.875 10.1875 C0.90207031 11.53908203 0.90207031 11.53908203 0.9296875 12.91796875 C0.95289063 13.60503906 0.97609375 14.29210937 1 15 C0.01 15.495 0.01 15.495 -1 16 C-1.75180669 18.21900712 -1.75180669 18.21900712 -2.2890625 20.91015625 C-2.50820312 21.89951172 -2.72734375 22.88886719 -2.953125 23.90820312 C-3.17484375 24.94912109 -3.3965625 25.99003906 -3.625 27.0625 C-3.85445312 28.10728516 -4.08390625 29.15207031 -4.3203125 30.22851562 C-4.88775336 32.81746456 -5.44727475 35.40787648 -6 38 C-6.66 37.67 -7.32 37.34 -8 37 C-5.88848037 24.49561068 -3.48827132 12.20894961 0 0 Z " fill="#16B93F" transform="translate(141,244)"/>
<path d="M0 0 C4.95 0 9.9 0 15 0 C15 1.32 15 2.64 15 4 C15.66 4 16.32 4 17 4 C17 4.66 17 5.32 17 6 C12.71 6 8.42 6 4 6 C3.67 8.97 3.34 11.94 3 15 C2.67 15 2.34 15 2 15 C1.91878076 13.39667209 1.86070866 11.79215974 1.8125 10.1875 C1.77769531 9.29417969 1.74289063 8.40085938 1.70703125 7.48046875 C2.04918998 4.58352485 2.75393573 3.77444972 5 2 C3.35 1.67 1.7 1.34 0 1 C0 0.67 0 0.34 0 0 Z " fill="#14D543" transform="translate(153,185)"/>
<path d="M0 0 C1.32 0 2.64 0 4 0 C3.35401634 4.87310005 2.49028264 9.63131839 1.4375 14.4375 C1.16808594 15.67371094 0.89867187 16.90992188 0.62109375 18.18359375 C0.41613281 19.11300781 0.21117187 20.04242188 0 21 C-1.32 21 -2.64 21 -4 21 C-4.2396943 15.36718401 -3.38529821 10.45461169 -2 5 C-1.34 5 -0.68 5 0 5 C0 3.35 0 1.7 0 0 Z " fill="#03FB43" transform="translate(209,186)"/>
<path d="M0 0 C9.9 0 19.8 0 30 0 C30 0.33 30 0.66 30 1 C20.76 1.33 11.52 1.66 2 2 C1.01 7.61 0.02 13.22 -1 19 C-0.34 19.33 0.32 19.66 1 20 C0.01 20.33 -0.98 20.66 -2 21 C-2.33 21.99 -2.66 22.98 -3 24 C-3.66 24 -4.32 24 -5 24 C-4.73609929 22.24894115 -4.46333824 20.4992181 -4.1875 18.75 C-4.03667969 17.77546875 -3.88585937 16.8009375 -3.73046875 15.796875 C-2.70831209 10.48384679 -1.3122292 5.24891679 0 0 Z " fill="#1FD14B" transform="translate(222,184)"/>
<path d="M0 0 C1.98 0.66 3.96 1.32 6 2 C5.85566132 3.35432679 5.70943339 4.70845225 5.5625 6.0625 C5.48128906 6.81660156 5.40007812 7.57070312 5.31640625 8.34765625 C4.93176114 11.57202696 4.45922801 14.78540391 4 18 C-0.95 18 -5.9 18 -11 18 C-11 13.71 -11 9.42 -11 5 C-12.32 4.67 -13.64 4.34 -15 4 C-13.35 4 -11.7 4 -10 4 C-8.17910521 7.64178957 -8.94878887 12.00553148 -9 16 C-5.37 16 -1.74 16 2 16 C2.33 12.04 2.66 8.08 3 4 C2.01 3.34 1.02 2.68 0 2 C0 1.34 0 0.68 0 0 Z " fill="#159F34" transform="translate(248,245)"/>
<path d="M0 0 C0.68797533 9.66987552 0.68797533 9.66987552 -1.8125 13.625 C-2.8953125 14.800625 -2.8953125 14.800625 -4 16 C-4.99 16 -5.98 16 -7 16 C-7.17602338 10.89532194 -7.24526856 6.71506397 -5 2 C-2 0 -2 0 0 0 Z " fill="#0EEC44" transform="translate(166,274)"/>
<path d="M0 0 C0.66 0.33 1.32 0.66 2 1 C2 1.66 2 2.32 2 3 C2.66 3 3.32 3 4 3 C4 3.66 4 4.32 4 5 C4.66 5 5.32 5 6 5 C6.66 6.32 7.32 7.64 8 9 C5.69 9 3.38 9 1 9 C0.67 9.99 0.34 10.98 0 12 C-1 10 -1 10 -1.4375 7.4375 C-1.7159375 6.2309375 -1.7159375 6.2309375 -2 5 C-2.66 4.67 -3.32 4.34 -4 4 C-4 3.34 -4 2.68 -4 2 C-6.31 2.33 -8.62 2.66 -11 3 C-8.60319558 -1.79360885 -4.63722482 -1.10890159 0 0 Z " fill="#AEAEAE" transform="translate(366,340)"/>
<path d="M0 0 C0.33 0 0.66 0 1 0 C0.2723382 6.31877747 -0.72804186 12.55676267 -1.875 18.8125 C-2.11669922 20.22305664 -2.11669922 20.22305664 -2.36328125 21.66210938 C-2.52957031 22.56380859 -2.69585937 23.46550781 -2.8671875 24.39453125 C-3.01269043 25.20768799 -3.15819336 26.02084473 -3.30810547 26.85864258 C-4.11225733 29.34742732 -4.91542066 30.43493522 -7 32 C-10.35546875 32.29296875 -10.35546875 32.29296875 -14.1875 32.1875 C-15.45980469 32.16042969 -16.73210937 32.13335937 -18.04296875 32.10546875 C-19.01878906 32.07066406 -19.99460938 32.03585938 -21 32 C-21 31.67 -21 31.34 -21 31 C-16.05 30.67 -11.1 30.34 -6 30 C-5.896875 27.875625 -5.79375 25.75125 -5.6875 23.5625 C-5.26212336 17.53430539 -4.16578791 12.59126878 -2 7 C-1.2917428 4.67657089 -0.64759374 2.34130046 0 0 Z " fill="#159632" transform="translate(154,201)"/>
<path d="M0 0 C0.33 0 0.66 0 1 0 C1.31918373 7.85546636 0.35709504 15.26940505 -1 23 C1.46800047 21.84826645 3.04783565 20.95216435 5 19 C4.125 23.75 4.125 23.75 3 26 C0.69 26 -1.62 26 -4 26 C-4.33623767 20.0598011 -3.41587657 15.32770933 -1.734375 9.6328125 C-0.83788774 6.41881029 -0.36792479 3.31132313 0 0 Z " fill="#19BF43" transform="translate(160,267)"/>
<path d="M0 0 C-0.185625 0.515625 -0.37125 1.03125 -0.5625 1.5625 C-1.15419517 4.85908739 -0.567267 7.72245735 0 11 C-0.99 10.67 -1.98 10.34 -3 10 C-3 8.35 -3 6.7 -3 5 C-3.66 5 -4.32 5 -5 5 C-5 5.66 -5 6.32 -5 7 C-7.35438733 8.42944945 -8.48032433 9.08661261 -11.25 8.625 C-11.8275 8.41875 -12.405 8.2125 -13 8 C-12.67 6.02 -12.34 4.04 -12 2 C-11.34 2 -10.68 2 -10 2 C-9.67 2.66 -9.34 3.32 -9 4 C-8.34 3.01 -7.68 2.02 -7 1 C-2.5 -1.25 -2.5 -1.25 0 0 Z " fill="#11DF42" transform="translate(120,256)"/>
<path d="M0 0 C1.17464159 3.52392476 0.7362104 4.63592558 -0.3125 8.125 C-1.74406897 13.05668942 -2.92977216 17.97816169 -4 23 C-9.61 23 -15.22 23 -21 23 C-21.33 22.01 -21.66 21.02 -22 20 C-21.01 18.515 -21.01 18.515 -20 17 C-20 18.65 -20 20.3 -20 22 C-15.38 21.67 -10.76 21.34 -6 21 C-5.7525 19.205625 -5.505 17.41125 -5.25 15.5625 C-4.31849785 9.87223688 -2.65254886 5.09907451 0 0 Z " fill="#109C38" transform="translate(281,210)"/>
<path d="M0 0 C6.625 -0.25 6.625 -0.25 10 2 C10.29296875 4.3828125 10.29296875 4.3828125 10.1875 7.125 C10.16042969 8.03507813 10.13335937 8.94515625 10.10546875 9.8828125 C10.07066406 10.58148438 10.03585938 11.28015625 10 12 C9.01 12.495 9.01 12.495 8 13 C8.33 9.7 8.66 6.4 9 3 C6.03 2.505 6.03 2.505 3 2 C2.89042969 2.98742187 2.78085938 3.97484375 2.66796875 4.9921875 C2.50941406 6.27351562 2.35085937 7.55484375 2.1875 8.875 C2.03667969 10.15117187 1.88585937 11.42734375 1.73046875 12.7421875 C1 16 1 16 -2 18 C-3.16188603 12.61307386 -2.92403618 10.56149645 0 6 C0.25136033 2.79083829 0.25136033 2.79083829 0 0 Z " fill="#18D047" transform="translate(235,188)"/>
<path d="M0 0 C0.33 0.66 0.66 1.32 1 2 C0.5875 2.350625 0.175 2.70125 -0.25 3.0625 C-2.21947125 5.24298602 -3.55128955 7.60177678 -4.9375 10.18359375 C-6 12 -6 12 -7.55078125 13.70703125 C-9.63975194 17.01222207 -9.82093831 20.44313915 -10.1875 24.25 C-10.26935547 24.99507813 -10.35121094 25.74015625 -10.43554688 26.5078125 C-10.63491994 28.33735356 -10.81898474 30.16855151 -11 32 C-11.33 32 -11.66 32 -12 32 C-12.08172936 29.4784979 -12.14083373 26.95970083 -12.1875 24.4375 C-12.22520508 23.38079102 -12.22520508 23.38079102 -12.26367188 22.30273438 C-12.36130491 15.2406114 -10.249949 9.88439351 -5.4375 4.625 C-4.83808594 3.95726562 -4.23867187 3.28953125 -3.62109375 2.6015625 C-2 1 -2 1 0 0 Z " fill="#1FBF48" transform="translate(219,247)"/>
<path d="M0 0 C2 1 2 1 3.125 3.3125 C4 6 4 6 4 10 C8.62 10 13.24 10 18 10 C18 7.69 18 5.38 18 3 C18.33 3 18.66 3 19 3 C19.36122881 4.31057393 19.71380311 5.62353624 20.0625 6.9375 C20.35833984 8.03384766 20.35833984 8.03384766 20.66015625 9.15234375 C20.77230469 9.76207031 20.88445312 10.37179688 21 11 C20 12 20 12 16.40234375 12.09765625 C14.91403133 12.0909822 13.42573568 12.07902183 11.9375 12.0625 C10.79958008 12.05573242 10.79958008 12.05573242 9.63867188 12.04882812 C7.75908129 12.0370068 5.87953101 12.01907078 4 12 C-0.57142857 4.71428571 -0.57142857 4.71428571 0 0 Z " fill="#1AA53F" transform="translate(237,221)"/>
<path d="M0 0 C0.66 0 1.32 0 2 0 C4.09570426 5.69398894 5.45018084 10.95198929 6 17 C5.34 17 4.68 17 4 17 C3.51171875 14.98177083 3.0234375 12.96354167 2.53515625 10.9453125 C2.05153008 8.9414343 2.05153008 8.9414343 1 7 C0.01 11.62 -0.98 16.24 -2 21 C-2.33 21 -2.66 21 -3 21 C-3.22151549 19.20991533 -3.42682213 17.41781838 -3.625 15.625 C-3.74101562 14.62726563 -3.85703125 13.62953125 -3.9765625 12.6015625 C-3.98429688 11.74304688 -3.99203125 10.88453125 -4 10 C-3.34 9.34 -2.68 8.68 -2 8 C-2 7.195625 -2 6.39125 -2 5.5625 C-2 3 -2 3 0 0 Z " fill="#19BB3F" transform="translate(169,258)"/>
<path d="M0 0 C0.33 0 0.66 0 1 0 C1.26783326 20.92075346 1.26783326 20.92075346 -1.5625 25.5625 C-2.036875 26.036875 -2.51125 26.51125 -3 27 C-3.66 26.67 -4.32 26.34 -5 26 C-1.92482916 8.14350797 -1.92482916 8.14350797 0 0 Z " fill="#14C93E" transform="translate(136,205)"/>
<path d="M0 0 C0.33 0 0.66 0 1 0 C1.3551549 9.27348915 -0.07450216 17.22350649 -3 26 C-3.37531446 28.32694964 -3.71917202 30.65976685 -4 33 C-4.66 33 -5.32 33 -6 33 C-6 34.98 -6 36.96 -6 39 C-6.33 39 -6.66 39 -7 39 C-7.3958181 33.32660722 -6.27876197 28.41311715 -4.93359375 22.91015625 C-3.7850285 18.19243383 -2.80349047 13.44035411 -1.8125 8.6875 C-1.63364258 7.8325293 -1.45478516 6.97755859 -1.27050781 6.09667969 C-0.84589932 4.0646839 -0.42278568 2.03237583 0 0 Z " fill="#17A63A" transform="translate(268,188)"/>
<path d="M0 0 C0.33 0 0.66 0 1 0 C1 4.62 1 9.24 1 14 C2.93875 13.855625 4.8775 13.71125 6.875 13.5625 C7.96554688 13.48128906 9.05609375 13.40007812 10.1796875 13.31640625 C12.94728971 13.16998297 12.94728971 13.16998297 15 12 C15 13.32 15 14.64 15 16 C12.35409986 16.02684679 9.70846904 16.04676357 7.0625 16.0625 C6.30775391 16.07087891 5.55300781 16.07925781 4.77539062 16.08789062 C2.85005687 16.09652441 0.92464419 16.05224333 -1 16 C-1.33 15.67 -1.66 15.34 -2 15 C-1.72219381 12.31454012 -1.39137544 9.66889755 -1 7 C-0.90332031 6.31164062 -0.80664062 5.62328125 -0.70703125 4.9140625 C-0.47627258 3.27534154 -0.23881182 1.63756675 0 0 Z " fill="#15A43F" transform="translate(214,217)"/>
<path d="M0 0 C2.19115765 3.28673647 3.60630245 6.66669154 5.0625 10.3125 C5.33126953 10.96412109 5.60003906 11.61574219 5.87695312 12.28710938 C7.4916743 16.30981873 8.27321746 19.63930475 9 24 C3.72 24 -1.56 24 -7 24 C-7.33 23.34 -7.66 22.68 -8 22 C-1.07 22.495 -1.07 22.495 6 23 C5.38125 20.793125 4.7625 18.58625 4.125 16.3125 C3.60292969 14.45044922 3.60292969 14.45044922 3.0703125 12.55078125 C2.0974547 9.10191407 2.0974547 9.10191407 0.8671875 6.29296875 C0 4 0 4 0 0 Z " fill="#1DB442" transform="translate(121,269)"/>
<path d="M0 0 C0.6875 1.8125 0.6875 1.8125 1 4 C-0.4375 5.75 -0.4375 5.75 -2 7 C-0.68 8.32 0.64 9.64 2 11 C1.360625 11.556875 0.72125 12.11375 0.0625 12.6875 C-2.19680987 15.22066561 -2.63149047 16.68341424 -3 20 C-3.33 20 -3.66 20 -4 20 C-4 18.02 -4 16.04 -4 14 C-4.66 13.67 -5.32 13.34 -6 13 C-5.34 13 -4.68 13 -4 13 C-4.33 12.01 -4.66 11.02 -5 10 C-5.99 10.33 -6.98 10.66 -8 11 C-8 10.34 -8 9.68 -8 9 C-7.34 9 -6.68 9 -6 9 C-5.34 7.35 -4.68 5.7 -4 4 C-3.34 4 -2.68 4 -2 4 C-2 3.34 -2 2.68 -2 2 C-1.34 2 -0.68 2 0 2 C0 1.34 0 0.68 0 0 Z " fill="#0FB739" transform="translate(123,246)"/>
<path d="M0 0 C0.66 0 1.32 0 2 0 C0.40989827 5.20396931 -2.31770324 7.53457532 -7.0234375 10.10546875 C-11.44573165 11.43447841 -15.7241209 11.20930944 -20.3125 11.125 C-21.24384766 11.11597656 -22.17519531 11.10695313 -23.13476562 11.09765625 C-25.4234436 11.07418263 -27.71158672 11.04134729 -30 11 C-30 10.34 -30 9.68 -30 9 C-28.99839844 9.02320313 -27.99679687 9.04640625 -26.96484375 9.0703125 C-25.62240336 9.08908789 -24.27995482 9.10728618 -22.9375 9.125 C-21.62652344 9.14820313 -20.31554687 9.17140625 -18.96484375 9.1953125 C-14.98522569 8.9992722 -11.77561523 8.22638597 -8 7 C-6.906875 6.731875 -5.81375 6.46375 -4.6875 6.1875 C-1.77547038 5.23417555 -1.77547038 5.23417555 -0.625 2.375 C-0.315625 1.199375 -0.315625 1.199375 0 0 Z " fill="#1EB541" transform="translate(292,282)"/>
<path d="M0 0 C6.27 0 12.54 0 19 0 C21.77135239 8.31405718 23.27831263 15.23315218 23 24 C22.34 23.67 21.68 23.34 21 23 C20.54453178 20.41901343 20.20248867 17.91399751 19.9375 15.3125 C19.78108101 13.89180187 19.62354536 12.47122621 19.46484375 11.05078125 C19.399021 10.41825439 19.33319824 9.78572754 19.26538086 9.1340332 C18.92676032 6.41105056 18.4511037 3.70662221 18 1 C12.06 1 6.12 1 0 1 C0 0.67 0 0.34 0 0 Z " fill="#21C84D" transform="translate(166,244)"/>
<path d="M0 0 C0.33 0 0.66 0 1 0 C1.144375 1.093125 1.28875 2.18625 1.4375 3.3125 C1.88288104 6.93122987 1.88288104 6.93122987 3 10 C2.2884375 10.495 2.2884375 10.495 1.5625 11 C-0.85791615 14.09813267 -0.68198917 17.12026792 -1 21 C-1.99 21 -2.98 21 -4 21 C-2.87723429 13.94090922 -1.62436599 6.96156852 0 0 Z " fill="#16CC42" transform="translate(94,249)"/>
<path d="M0 0 C5.94 0 11.88 0 18 0 C17.34 4.29 16.68 8.58 16 13 C15.34 13 14.68 13 14 13 C13.92377142 9.03611362 14.0318352 5.8726592 15 2 C10.71 1.67 6.42 1.34 2 1 C1.34 2.32 0.68 3.64 0 5 C0 3.35 0 1.7 0 0 Z " fill="#1FC74C" transform="translate(95,244)"/>
<path d="M0 0 C3.63 0 7.26 0 11 0 C11.04241723 2.33294775 11.04092937 4.66702567 11 7 C10 8 10 8 7.49609375 8.09765625 C5.98208984 8.08025391 5.98208984 8.08025391 4.4375 8.0625 C3.42558594 8.05347656 2.41367187 8.04445312 1.37109375 8.03515625 C0.58863281 8.02355469 -0.19382812 8.01195312 -1 8 C-1 7.34 -1 6.68 -1 6 C3.455 5.505 3.455 5.505 8 5 C8.33 4.01 8.66 3.02 9 2 C5.7 2 2.4 2 -1 2 C-0.67 1.34 -0.34 0.68 0 0 Z " fill="#29D359" transform="translate(284,203)"/>
<path d="M0 0 C0.66 0.33 1.32 0.66 2 1 C2.05395478 2.62463842 2.09277195 4.24978541 2.125 5.875 C2.14820313 6.77992188 2.17140625 7.68484375 2.1953125 8.6171875 C2 11 2 11 0 13 C-0.71927295 15.31765729 -1.3909893 17.65095874 -2 20 C-2.66 20 -3.32 20 -4 20 C-2.62131519 2.62131519 -2.62131519 2.62131519 0 0 Z " fill="#13C340" transform="translate(174,184)"/>
<path d="M0 0 C0.33 0 0.66 0 1 0 C1.0270043 1.45823212 1.04639787 2.91660675 1.0625 4.375 C1.07410156 5.18710937 1.08570312 5.99921875 1.09765625 6.8359375 C1 9 1 9 0 11 C4.95 11 9.9 11 15 11 C15.33 9.35 15.66 7.7 16 6 C17 8 17 8 16 13 C10.06 13 4.12 13 -2 13 C-1.67 11.02 -1.34 9.04 -1 7 C-0.66140041 4.66742506 -0.3267961 2.33425788 0 0 Z " fill="#2BAE4B" transform="translate(87,280)"/>
<path d="M0 0 C3.4165052 -0.08724706 6.83272313 -0.14047325 10.25 -0.1875 C11.70212891 -0.22520508 11.70212891 -0.22520508 13.18359375 -0.26367188 C14.58544922 -0.27817383 14.58544922 -0.27817383 16.015625 -0.29296875 C16.87446289 -0.3086792 17.73330078 -0.32438965 18.61816406 -0.34057617 C21.54700758 0.07821603 22.89750767 0.94066031 25 3 C25.390625 6.13671875 25.390625 6.13671875 25.25 9.6875 C25.21390625 10.86699219 25.1778125 12.04648438 25.140625 13.26171875 C25.07101562 14.61716797 25.07101562 14.61716797 25 16 C24.67 16 24.34 16 24 16 C23.95101563 15.30132812 23.90203125 14.60265625 23.8515625 13.8828125 C23.77679688 12.97273437 23.70203125 12.06265625 23.625 11.125 C23.55539062 10.22007812 23.48578125 9.31515625 23.4140625 8.3828125 C23.20431868 5.82058097 23.20431868 5.82058097 21 4 C20.34 3.34 19.68 2.68 19 2 C17.12692858 1.79419655 17.12692858 1.79419655 15 1.9375 C9.93804324 2.06096236 5.02325453 1.58726984 0 1 C0 0.67 0 0.34 0 0 Z " fill="#15E647" transform="translate(233,185)"/>
<path d="M0 0 C0.33 0 0.66 0 1 0 C1 2.64 1 5.28 1 8 C5.62 8 10.24 8 15 8 C15.33 7.34 15.66 6.68 16 6 C16.33 6.66 16.66 7.32 17 8 C16.67 8.66 16.34 9.32 16 10 C10.39 10 4.78 10 -1 10 C-0.67 6.7 -0.34 3.4 0 0 Z " fill="#22BB46" transform="translate(132,283)"/>
<path d="M0 0 C0.5625 1.9375 0.5625 1.9375 1 4 C0.67 4.33 0.34 4.66 0 5 C-0.31845612 7.96635979 -0.56206308 10.90009605 -0.75 13.875 C-0.81832031 14.70386719 -0.88664063 15.53273437 -0.95703125 16.38671875 C-1.00730469 17.18464844 -1.05757812 17.98257813 -1.109375 18.8046875 C-1.16061523 19.53671387 -1.21185547 20.26874023 -1.26464844 21.02294922 C-0.92424289 23.56594199 0.06397373 24.39508614 2 26 C0.68 26.33 -0.64 26.66 -2 27 C-4.11295256 23.83057116 -4.25250929 23.00370047 -4.1875 19.375 C-4.17783203 18.18003906 -4.17783203 18.18003906 -4.16796875 16.9609375 C-4 15 -4 15 -3 14 C-2.71515469 11.51777659 -2.55193447 9.03531145 -2.37890625 6.54296875 C-1.99620288 3.97451622 -1.2874172 2.2360404 0 0 Z " fill="#1ADA48" transform="translate(187,199)"/>
<path d="M0 0 C0.66 0 1.32 0 2 0 C1.85691406 0.99128906 1.71382812 1.98257812 1.56640625 3.00390625 C0.99860104 6.9785427 0.46480587 10.95731719 -0.0625 14.9375 C-0.15337891 15.62134766 -0.24425781 16.30519531 -0.33789062 17.00976562 C-0.55889797 18.67313669 -0.77949285 20.33656255 -1 22 C-1.66 21.67 -2.32 21.34 -3 21 C-3.37369729 13.52605426 -2.04061541 7.17859349 0 0 Z " fill="#1CC03F" transform="translate(226,258)"/>
<path d="M0 0 C0.33 0.99 0.66 1.98 1 3 C4.96 3 8.92 3 13 3 C13.16803599 8.54518774 13.13843222 12.78757146 11 18 C10.34 18 9.68 18 9 18 C9.66 13.71 10.32 9.42 11 5 C7.37 4.67 3.74 4.34 0 4 C0 2.68 0 1.36 0 0 Z " fill="#1CB342" transform="translate(128,187)"/>
<path d="M0 0 C0.33 0 0.66 0 1 0 C1.06058594 0.77085937 1.12117188 1.54171875 1.18359375 2.3359375 C1.26738281 3.33882813 1.35117187 4.34171875 1.4375 5.375 C1.55931641 6.87160156 1.55931641 6.87160156 1.68359375 8.3984375 C1.84965626 10.97927613 1.84965626 10.97927613 3 13 C5.01669827 14.13350534 5.01669827 14.13350534 7 15 C7 15.99 7 16.98 7 18 C5.68 17.67 4.36 17.34 3 17 C3 16.34 3 15.68 3 15 C2.34 15 1.68 15 1 15 C-1.26166232 11.60750652 -1.24515545 10.34798499 -1.1875 6.375 C-1.18105469 5.39273437 -1.17460937 4.41046875 -1.16796875 3.3984375 C-1 1 -1 1 0 0 Z " fill="#1CB142" transform="translate(258,254)"/>
<path d="M0 0 C6.6 0 13.2 0 20 0 C19.67 1.32 19.34 2.64 19 4 C19 3.01 19 2.02 19 1 C13.06 1 7.12 1 1 1 C1 1.99 1 2.98 1 4 C2.32 4.33 3.64 4.66 5 5 C4 6 4 6 0.9375 6.0625 C-0.5165625 6.0315625 -0.5165625 6.0315625 -2 6 C-1.34 4.02 -0.68 2.04 0 0 Z " fill="#17A83A" transform="translate(231,270)"/>
<path d="M0 0 C1.43791516 0.14168137 2.8753237 0.28851043 4.3125 0.4375 C5.11300781 0.51871094 5.91351563 0.59992188 6.73828125 0.68359375 C9 1 9 1 12 2 C14.45410358 5.68115537 14.23287843 7.65293598 14 12 C13.67 12.99 13.34 13.98 13 15 C11.68 14.67 10.36 14.34 9 14 C9.474375 13.608125 9.94875 13.21625 10.4375 12.8125 C12.35179633 10.59191626 12.61266988 8.86624291 13 6 C12.34 6 11.68 6 11 6 C11 5.34 11 4.68 11 4 C7.37 3.01 3.74 2.02 0 1 C0 0.67 0 0.34 0 0 Z " fill="#1AB740" transform="translate(265,272)"/>
<path d="M0 0 C1.98 0 3.96 0 6 0 C4.68 0.33 3.36 0.66 2 1 C1.67 4.63 1.34 8.26 1 12 C1.99 12.33 2.98 12.66 4 13 C3.01 13.495 3.01 13.495 2 14 C-0.125 13.0625 -0.125 13.0625 -2 12 C-2.17835515 7.45194365 -1.99785435 4.1205746 0 0 Z " fill="#13AC3A" transform="translate(254,278)"/>
<path d="M0 0 C1.01126953 0.23009766 1.01126953 0.23009766 2.04296875 0.46484375 C5.46877952 1.08483857 8.83893447 1.3352574 12.3125 1.5625 C13.56675781 1.64628906 14.82101563 1.73007812 16.11328125 1.81640625 C17.54220703 1.90728516 17.54220703 1.90728516 19 2 C19 2.66 19 3.32 19 4 C16.77144426 4.0814222 14.54202345 4.13938079 12.3125 4.1875 C10.45044922 4.23970703 10.45044922 4.23970703 8.55078125 4.29296875 C4.80907731 3.9842473 2.96217879 3.24853724 0 1 C0 0.67 0 0.34 0 0 Z " fill="#1DB040" transform="translate(212,289)"/>
<path d="M0 0 C4.29 0 8.58 0 13 0 C13 0.99 13 1.98 13 3 C9.04 3 5.08 3 1 3 C0.67 2.01 0.34 1.02 0 0 Z " fill="#02FD42" transform="translate(285,186)"/>
<path d="M0 0 C0.99 0.33 1.98 0.66 3 1 C3 1.66 3 2.32 3 3 C3.66 3 4.32 3 5 3 C5 3.66 5 4.32 5 5 C5.66 5 6.32 5 7 5 C7 5.66 7 6.32 7 7 C7.99 7.33 8.98 7.66 10 8 C9.01 8 8.02 8 7 8 C7 8.66 7 9.32 7 10 C7.66 10.33 8.32 10.66 9 11 C8.01 11 7.02 11 6 11 C6 10.34 6 9.68 6 9 C5.34 9 4.68 9 4 9 C4 8.34 4 7.68 4 7 C3.34 7 2.68 7 2 7 C0.5393715 4.35261084 0 3.10551666 0 0 Z " fill="#909090" transform="translate(335,366)"/>
<path d="M0 0 C0.66 0 1.32 0 2 0 C1.67 1.98 1.34 3.96 1 6 C-2.3 6 -5.6 6 -9 6 C-9.33 4.35 -9.66 2.7 -10 1 C-9.34 1 -8.68 1 -8 1 C-8 1.99 -8 2.98 -8 4 C-5.69 4 -3.38 4 -1 4 C-0.67 2.68 -0.34 1.36 0 0 Z " fill="#1DB040" transform="translate(246,287)"/>
<path d="M0 0 C2.96157034 0.94852343 5.91860731 1.91047128 8.875 2.875 C10.13763672 3.27912109 10.13763672 3.27912109 11.42578125 3.69140625 C12.23144531 3.95566406 13.03710938 4.21992188 13.8671875 4.4921875 C14.61081543 4.73308105 15.35444336 4.97397461 16.12060547 5.22216797 C18 6 18 6 20 8 C11 6 11 6 2 4 C2 3.34 2 2.68 2 2 C1.34 2 0.68 2 0 2 C0 1.34 0 0.68 0 0 Z " fill="#1EB63D" transform="translate(272,258)"/>
<path d="M0 0 C-0.48828125 6.0546875 -0.48828125 6.0546875 -1 8 C-1.99 8.66 -2.98 9.32 -4 10 C-5 9 -5 9 -5.09765625 7.15234375 C-5.06510417 5.1015625 -5.03255208 3.05078125 -5 1 C-3 0 -3 0 0 0 Z " fill="#03FC3F" transform="translate(202,259)"/>
<path d="M0 0 C0.33 0 0.66 0 1 0 C1 4.29 1 8.58 1 13 C1.66 13.33 2.32 13.66 3 14 C2.01 14.33 1.02 14.66 0 15 C-0.33 15.99 -0.66 16.98 -1 18 C-1.66 18 -2.32 18 -3 18 C-2 12 -1 6 0 0 Z " fill="#15BD3B" transform="translate(220,190)"/>
<path d="M0 0 C0.66 0.33 1.32 0.66 2 1 C2.53877102 7.59994499 1.94343357 11.59186253 -2 17 C-2.99 17.33 -3.98 17.66 -5 18 C-4.39816251 15.97954558 -3.72693904 13.97888961 -3 12 C-2.34 11.67 -1.68 11.34 -1 11 C-0.5316735 8.41394668 -0.5316735 8.41394668 -0.375 5.4375 C-0.30023438 4.42558594 -0.22546875 3.41367188 -0.1484375 2.37109375 C-0.09945313 1.58863281 -0.05046875 0.80617187 0 0 Z " fill="#1BB140" transform="translate(258,190)"/>
<path d="M0 0 C5.94 0 11.88 0 18 0 C17.67 1.65 17.34 3.3 17 5 C16.67 3.68 16.34 2.36 16 1 C13.91599266 1.03312728 11.83254234 1.10263869 9.75 1.1875 C8.00976562 1.23970703 8.00976562 1.23970703 6.234375 1.29296875 C2.21238929 2.17217094 1.18500716 3.60891216 -1 7 C-0.67 4.69 -0.34 2.38 0 0 Z " fill="#1FC248" transform="translate(141,244)"/>
<path d="M0 0 C6.27 0 12.54 0 19 0 C18.67 1.32 18.34 2.64 18 4 C18 3.01 18 2.02 18 1 C16.35 1 14.7 1 13 1 C13 1.66 13 2.32 13 3 C9.37 2.34 5.74 1.68 2 1 C1.67 2.32 1.34 3.64 1 5 C0.67 3.35 0.34 1.7 0 0 Z " fill="#0FF545" transform="translate(165,245)"/>
<path d="M0 0 C5.28 0 10.56 0 16 0 C16 0.66 16 1.32 16 2 C13.03 1.67 10.06 1.34 7 1 C7 1.66 7 2.32 7 3 C4.69 3 2.38 3 0 3 C0 2.01 0 1.02 0 0 Z " fill="#0BF745" transform="translate(232,245)"/>
<path d="M0 0 C2.64 0 5.28 0 8 0 C9 6.625 9 6.625 9 10 C7.35 9.67 5.7 9.34 4 9 C4.66 6.36 5.32 3.72 6 1 C4.02 1 2.04 1 0 1 C0 0.67 0 0.34 0 0 Z " fill="#18D446" transform="translate(261,278)"/>
<path d="M0 0 C0.33 0 0.66 0 1 0 C1.08133791 1.91595968 1.13934367 3.83291932 1.1875 5.75 C1.22230469 6.81734375 1.25710937 7.8846875 1.29296875 8.984375 C0.97082786 12.30027855 0.22851086 13.59016673 -2 16 C-2.08997924 10.87118304 -1.93119789 6.0698552 -1 1 C-0.67 0.67 -0.34 0.34 0 0 Z " fill="#16D747" transform="translate(204,200)"/>
<path d="M0 0 C1.98 0.66 3.96 1.32 6 2 C5.88490339 3.41750563 5.75746342 4.83401169 5.625 6.25 C5.55539063 7.03890625 5.48578125 7.8278125 5.4140625 8.640625 C4.98492887 11.085877 4.21399362 12.84836903 3 15 C3.03480469 14.22914063 3.06960937 13.45828125 3.10546875 12.6640625 C3.13253906 11.66117187 3.15960938 10.65828125 3.1875 9.625 C3.22230469 8.62726563 3.25710937 7.62953125 3.29296875 6.6015625 C3.19628906 5.74304688 3.09960938 4.88453125 3 4 C2.01 3.34 1.02 2.68 0 2 C0 1.34 0 0.68 0 0 Z " fill="#1DB543" transform="translate(248,245)"/>
<path d="M0 0 C2.475 0.495 2.475 0.495 5 1 C5 3.64 5 6.28 5 9 C4.67 9 4.34 9 4 9 C3.67 7.35 3.34 5.7 3 4 C1.03177114 5.96822886 1.33751619 9.34808709 1 12 C0.67 12 0.34 12 0 12 C0 8.04 0 4.08 0 0 Z " fill="#1AB93F" transform="translate(231,211)"/>
<path d="M0 0 C-0.66 1.32 -1.32 2.64 -2 4 C-2.99 4 -3.98 4 -5 4 C-5.33 4.66 -5.66 5.32 -6 6 C-6.66 5.67 -7.32 5.34 -8 5 C-8 3.68 -8 2.36 -8 1 C-5.07175348 0.02391783 -3.04386724 -0.08226668 0 0 Z " fill="#09F746" transform="translate(132,245)"/>
<path d="M0 0 C0.66 0 1.32 0 2 0 C2.33 1.98 2.66 3.96 3 6 C-2.28 6 -7.56 6 -13 6 C-13.33 5.34 -13.66 4.68 -14 4 C-7.07 4.495 -7.07 4.495 0 5 C0 3.35 0 1.7 0 0 Z " fill="#2DAA4B" transform="translate(127,287)"/>
<path d="M0 0 C1.32 0.33 2.64 0.66 4 1 C4 2.98 4 4.96 4 7 C2.68 7.33 1.36 7.66 0 8 C0 5.36 0 2.72 0 0 Z " fill="#01FD42" transform="translate(159,282)"/>
<path d="M0 0 C1.32 0.33 2.64 0.66 4 1 C3.79503906 1.55171875 3.59007812 2.1034375 3.37890625 2.671875 C2.87886008 5.74432361 3.70701436 7.41615428 4.9375 10.25 C5.31777344 11.14203125 5.69804687 12.0340625 6.08984375 12.953125 C6.39019531 13.62859375 6.69054687 14.3040625 7 15 C6.34 15.66 5.68 16.32 5 17 C4.16301614 14.54285453 3.33027576 12.08441143 2.5 9.625 C2.26152344 8.92632812 2.02304688 8.22765625 1.77734375 7.5078125 C0 2.2265625 0 2.2265625 0 0 Z " fill="#1CB041" transform="translate(248,208)"/>
<path d="M0 0 C2.6875 -0.25 2.6875 -0.25 5 0 C5 0.66 5 1.32 5 2 C7.97 2.495 7.97 2.495 11 3 C11 3.33 11 3.66 11 4 C6.38 4 1.76 4 -3 4 C-2.01 2.68 -1.02 1.36 0 0 Z " fill="#0FF34C" transform="translate(159,186)"/>
<path d="M0 0 C0.33 0 0.66 0 1 0 C1.3690205 10.55808656 1.3690205 10.55808656 -1 15 C-1.66 14.67 -2.32 14.34 -3 14 C-3 11.69 -3 9.38 -3 7 C-2.34 6.67 -1.68 6.34 -1 6 C-0.34227572 2.97065509 -0.34227572 2.97065509 0 0 Z " fill="#12F24A" transform="translate(103,276)"/>
<path d="M0 0 C4.92307692 4.30769231 4.92307692 4.30769231 5.3125 7.8125 C5.209375 8.534375 5.10625 9.25625 5 10 C4.34 9.67 3.68 9.34 3 9 C3 8.34 3 7.68 3 7 C2.34 7 1.68 7 1 7 C-1 4 -1 4 -0.625 1.8125 C-0.41875 1.214375 -0.2125 0.61625 0 0 Z M-3 4 C-1 5 -1 5 -1 5 Z " fill="#08F445" transform="translate(116,263)"/>
<path d="M0 0 C0.99 0 1.98 0 3 0 C3.6875 1.75 3.6875 1.75 4 4 C2.5625 6.25 2.5625 6.25 1 8 C0.01 7.67 -0.98 7.34 -2 7 C-1.34 4.69 -0.68 2.38 0 0 Z " fill="#02FA41" transform="translate(200,250)"/>
<path d="M0 0 C0.5625 1.9375 0.5625 1.9375 1 4 C0 5 0 5 -2.50390625 5.09765625 C-4.01791016 5.08025391 -4.01791016 5.08025391 -5.5625 5.0625 C-6.57441406 5.05347656 -7.58632813 5.04445312 -8.62890625 5.03515625 C-9.41136719 5.02355469 -10.19382812 5.01195312 -11 5 C-11 4.34 -11 3.68 -11 3 C-5.555 2.505 -5.555 2.505 0 2 C0 1.34 0 0.68 0 0 Z " fill="#179132" transform="translate(294,206)"/>
<path d="M0 0 C-0.08708669 1.45945288 -0.19526907 2.91765868 -0.3125 4.375 C-0.37050781 5.18710938 -0.42851562 5.99921875 -0.48828125 6.8359375 C-1 9 -1 9 -4 11 C-4.75 7.75 -4.75 7.75 -5 4 C-1.92307692 0 -1.92307692 0 0 0 Z " fill="#0EBF38" transform="translate(237,195)"/>
<path d="M0 0 C3.3 0 6.6 0 10 0 C9.34 1.65 8.68 3.3 8 5 C7.34 5 6.68 5 6 5 C5.67 5.66 5.34 6.32 5 7 C5.50603992 4.83125748 5.99983813 3.00032373 7 1 C4.69 1.33 2.38 1.66 0 2 C0 1.34 0 0.68 0 0 Z " fill="#1FAD45" transform="translate(125,244)"/>
<path d="M0 0 C0.33 0 0.66 0 1 0 C1.0270043 1.45823212 1.04639787 2.91660675 1.0625 4.375 C1.07410156 5.18710937 1.08570312 5.99921875 1.09765625 6.8359375 C1 9 1 9 0 11 C1.32 11.33 2.64 11.66 4 12 C2.02 12.33 0.04 12.66 -2 13 C-1.855625 12.154375 -1.71125 11.30875 -1.5625 10.4375 C-0.9941203 6.96406851 -0.48797607 3.48554338 0 0 Z " fill="#19A139" transform="translate(87,280)"/>
<path d="M0 0 C3 2 3 2 5 4 C7.57061311 4.64767793 7.57061311 4.64767793 10 5 C9.34 5.66 8.68 6.32 8 7 C4.875 6.625 4.875 6.625 2 6 C1.34 4.02 0.68 2.04 0 0 Z " fill="#13C847" transform="translate(169,225)"/>
<path d="M0 0 C2.5625 0.25 2.5625 0.25 5 1 C5.33 1.66 5.66 2.32 6 3 C4.68 2.67 3.36 2.34 2 2 C1.34 3.32 0.68 4.64 0 6 C-0.99 6 -1.98 6 -3 6 C-2.42655063 3.13275314 -2.1385485 2.1385485 0 0 Z " fill="#8D8D8D" transform="translate(385,99)"/>
<path d="M0 0 C0.33 0 0.66 0 1 0 C1.28571429 7.42857143 1.28571429 7.42857143 -1 11 C-1.33 11 -1.66 11 -2 11 C-2.28571429 3.57142857 -2.28571429 3.57142857 0 0 Z " fill="#21D64B" transform="translate(151,213)"/>
<path d="M0 0 C1.65 1.32 3.3 2.64 5 4 C4.67 5.65 4.34 7.3 4 9 C3.34 9 2.68 9 2 9 C1.34 6.03 0.68 3.06 0 0 Z " fill="#0FA82C" transform="translate(110,284)"/>
<path d="M0 0 C0.66 0 1.32 0 2 0 C1.6875 1.9375 1.6875 1.9375 1 4 C0.01 4.33 -0.98 4.66 -2 5 C-2.33 5.66 -2.66 6.32 -3 7 C-3.33 5.02 -3.66 3.04 -4 1 C-2.68 1.33 -1.36 1.66 0 2 C0 1.34 0 0.68 0 0 Z " fill="#0EF349" transform="translate(205,218)"/>
<path d="M0 0 C1.4540625 0.0309375 1.4540625 0.0309375 2.9375 0.0625 C2.31875 0.10375 1.7 0.145 1.0625 0.1875 C0.36125 0.47625 -0.34 0.765 -1.0625 1.0625 C-2.3670656 4.05865946 -2.3670656 4.05865946 -3.0625 7.0625 C-3.3925 7.0625 -3.7225 7.0625 -4.0625 7.0625 C-4.10504356 5.06295254 -4.10330783 3.06208364 -4.0625 1.0625 C-3.0625 0.0625 -3.0625 0.0625 0 0 Z " fill="#1FC94B" transform="translate(257.0625,277.9375)"/>
<path d="M0 0 C0.66 0.33 1.32 0.66 2 1 C0.37660195 2.70884005 -1.29319053 4.37446717 -3 6 C-3.66 6 -4.32 6 -5 6 C-4.75 4.125 -4.75 4.125 -4 2 C-2.0625 0.6875 -2.0625 0.6875 0 0 Z " fill="#16D849" transform="translate(264,249)"/>
<path d="M0 0 C0.66 0.33 1.32 0.66 2 1 C1.67 4.3 1.34 7.6 1 11 C0.67 11 0.34 11 0 11 C-0.19406478 9.35492782 -0.38007935 7.70890406 -0.5625 6.0625 C-0.66691406 5.14597656 -0.77132812 4.22945313 -0.87890625 3.28515625 C-0.91886719 2.53105469 -0.95882812 1.77695312 -1 1 C-0.67 0.67 -0.34 0.34 0 0 Z " fill="#17B439" transform="translate(248,275)"/>
<path d="M0 0 C0.33 0 0.66 0 1 0 C1.08121924 1.60332791 1.13929134 3.20784026 1.1875 4.8125 C1.23970703 6.15248047 1.23970703 6.15248047 1.29296875 7.51953125 C0.95081002 10.41647515 0.24606427 11.22555028 -2 13 C-1.855625 12.154375 -1.71125 11.30875 -1.5625 10.4375 C-0.9941203 6.96406851 -0.48797607 3.48554338 0 0 Z " fill="#19B03F" transform="translate(160,267)"/>
<path d="M0 0 C2.64 0.99 5.28 1.98 8 3 C8 3.66 8 4.32 8 5 C5.03 4.505 5.03 4.505 2 4 C2 3.34 2 2.68 2 2 C1.34 2 0.68 2 0 2 C0 1.34 0 0.68 0 0 Z " fill="#20D84E" transform="translate(272,258)"/>
<path d="M0 0 C0.66 0 1.32 0 2 0 C2 1.32 2 2.64 2 4 C1.34 4 0.68 4 0 4 C0 4.99 0 5.98 0 7 C-0.66 7 -1.32 7 -2 7 C-2.33 5.68 -2.66 4.36 -3 3 C-2.01 2.67 -1.02 2.34 0 2 C0 1.34 0 0.68 0 0 Z " fill="#13F346" transform="translate(220,247)"/>
<path d="M0 0 C0.66 0.33 1.32 0.66 2 1 C1.01 2.32 0.02 3.64 -1 5 C-3.31 4.67 -5.62 4.34 -8 4 C-8 3.67 -8 3.34 -8 3 C-6.865625 2.690625 -5.73125 2.38125 -4.5625 2.0625 C-1.21224901 1.37075469 -1.21224901 1.37075469 0 0 Z " fill="#16A938" transform="translate(197,222)"/>
<path d="M0 0 C0.66 1.32 1.32 2.64 2 4 C1.34 4.66 0.68 5.32 0 6 C-0.66 5.67 -1.32 5.34 -2 5 C-2.33 5.99 -2.66 6.98 -3 8 C-2.45276317 4.62537285 -1.9451 2.91765 0 0 Z " fill="#11AE35" transform="translate(212,253)"/>
<path d="M0 0 C0.33 0 0.66 0 1 0 C1 1.98 1 3.96 1 6 C1.66 6 2.32 6 3 6 C2.67 7.32 2.34 8.64 2 10 C1.34 10 0.68 10 0 10 C0 6.7 0 3.4 0 0 Z " fill="#13E34A" transform="translate(236,212)"/>
<path d="M0 0 C0.33 0 0.66 0 1 0 C1 1.65 1 3.3 1 5 C-2.28976808 6.09658936 -3.71303767 5.79953138 -7 5 C-7 4.67 -7 4.34 -7 4 C-6.030625 3.71125 -5.06125 3.4225 -4.0625 3.125 C-0.89335797 2.35785318 -0.89335797 2.35785318 0 0 Z " fill="#0D9626" transform="translate(242,201)"/>
</svg>
