<?xml version="1.0" encoding="UTF-8"?>
<svg version="1.1" xmlns="http://www.w3.org/2000/svg" width="500" height="500">
<path d="M0 0 C1.1034375 -0.02578125 2.206875 -0.0515625 3.34375 -0.078125 C7.59884938 0.36423682 9.97466369 2.01324083 13.234375 4.65625 C17.02638844 9.43137804 16.64514814 16.62364769 16.125 22.375 C15.931226 24.00180036 15.72823574 25.62767567 15.5 27.25 C17.12487471 27.41788373 18.74990442 27.58426787 20.375 27.75 C21.27992188 27.8428125 22.18484375 27.935625 23.1171875 28.03125 C25.43313211 28.28047295 25.43313211 28.28047295 27.5 28.25 C26.84 27.92 26.18 27.59 25.5 27.25 C25.5 26.59 25.5 25.93 25.5 25.25 C24.324375 24.7859375 24.324375 24.7859375 23.125 24.3125 C20.5 23.25 20.5 23.25 18.5 22.25 C18.83 20.93 19.16 19.61 19.5 18.25 C21.15 18.25 22.8 18.25 24.5 18.25 C23.38145414 14.52385847 23.38145414 14.52385847 20.5 12.25 C20.6875 10.4375 20.6875 10.4375 21.5 8.25 C24.0625 6.5 24.0625 6.5 26.5 5.25 C27.345625 6.013125 28.19125 6.77625 29.0625 7.5625 C32.27125736 10.25664533 35.63509064 11.63376518 39.5 13.25 C44.88435155 16.43166228 45.98383504 20.48117724 47.5 26.25 C48.16 26.25 48.82 26.25 49.5 26.25 C49.5 26.91 49.5 27.57 49.5 28.25 C50.345625 28.518125 51.19125 28.78625 52.0625 29.0625 C54.93335393 30.05424954 57.67316418 31.16537908 60.4375 32.41796875 C62.58681895 33.32495957 62.58681895 33.32495957 65.25 34.05078125 C72.78244488 36.32453788 72.78244488 36.32453788 75.0234375 39.21484375 C76.0625 41.375 76.0625 41.375 76.81640625 43.4453125 C77.43955301 45.46340716 77.43955301 45.46340716 79.5 47.25 C79.625 50.375 79.625 50.375 79.5 53.25 C78.51 53.25 77.52 53.25 76.5 53.25 C76.5 53.91 76.5 54.57 76.5 55.25 C69.8358374 57.54421991 63.58466685 59.53878685 56.52734375 57.75 C52.82476038 56.83683878 49.2841839 57.00308056 45.5 57.25 C44.55769531 57.27449219 43.61539063 57.29898438 42.64453125 57.32421875 C39.23386502 57.75227807 37.31282578 58.23891915 34.5 60.25 C31.91275087 65.71526709 30.69999105 71.34869268 29.5 77.25 C29.01949014 79.4002816 28.52300534 81.54715748 28 83.6875 C27.8246875 84.53183594 27.649375 85.37617188 27.46875 86.24609375 C26.5 88.25 26.5 88.25 23.90625 89.53515625 C22.71515625 89.88900391 22.71515625 89.88900391 21.5 90.25 C21.53867187 91.11238281 21.57734375 91.97476563 21.6171875 92.86328125 C21.4939332 96.42533047 20.79067028 99.0808801 19.625 102.4375 C19.10292969 103.97470703 19.10292969 103.97470703 18.5703125 105.54296875 C17.5 108.25 17.5 108.25 15.5 111.25 C14.84 111.25 14.18 111.25 13.5 111.25 C13.5 111.91 13.5 112.57 13.5 113.25 C11.5 114.875 11.5 114.875 9.5 116.25 C10.04159591 120.5827673 11.20622751 124.21440838 12.8203125 128.2265625 C13.5 130.25 13.5 130.25 13.875 134.0625 C14.08125 135.114375 14.2875 136.16625 14.5 137.25 C16.13064764 138.30771739 17.80280873 139.30273046 19.5 140.25 C22.40795883 143.69244347 23.51559545 146.34546403 23.4375 150.875 C22.52376587 154.16444287 21.55837353 156.53294694 19.5 159.25 C18.84 159.25 18.18 159.25 17.5 159.25 C17.5 159.91 17.5 160.57 17.5 161.25 C16.84 161.25 16.18 161.25 15.5 161.25 C15.5 161.91 15.5 162.57 15.5 163.25 C14.84 163.25 14.18 163.25 13.5 163.25 C13.5 163.91 13.5 164.57 13.5 165.25 C12.63632812 165.48460937 11.77265625 165.71921875 10.8828125 165.9609375 C5.95015584 167.84058727 2.38249572 171.06233806 -1.6953125 174.3515625 C-4.5 176.25 -4.5 176.25 -8.5 176.25 C-8.6546875 177.0234375 -8.6546875 177.0234375 -8.8125 177.8125 C-10.54501358 183.95504816 -13.42199338 189.01477363 -17.0625 194.1875 C-17.46146484 194.77595703 -17.86042969 195.36441406 -18.27148438 195.97070312 C-19.2919444 197.43750793 -20.39019203 198.84957818 -21.5 200.25 C-22.16 200.25 -22.82 200.25 -23.5 200.25 C-23.5 200.91 -23.5 201.57 -23.5 202.25 C-24.16 202.25 -24.82 202.25 -25.5 202.25 C-25.5 202.91 -25.5 203.57 -25.5 204.25 C-30.91176471 208.25 -30.91176471 208.25 -33.5 208.25 C-33.52692484 210.54160319 -33.54636124 212.83329546 -33.5625 215.125 C-33.57410156 216.40117187 -33.58570313 217.67734375 -33.59765625 218.9921875 C-33.73176569 222.13664652 -33.73176569 222.13664652 -32.5 224.25 C-32.45977609 226.5829866 -32.45679753 228.91706666 -32.5 231.25 C-35.3125 232.375 -35.3125 232.375 -38.5 233.25 C-39.985 232.26 -39.985 232.26 -41.5 231.25 C-43.15549531 230.86500109 -44.8222433 230.52206865 -46.5 230.25 C-46.5 229.26 -46.5 228.27 -46.5 227.25 C-49.3424854 225.67726432 -49.3424854 225.67726432 -52.5 225.25 C-53.49 227.56 -54.48 229.87 -55.5 232.25 C-56.16 232.25 -56.82 232.25 -57.5 232.25 C-57.78875 232.8275 -58.0775 233.405 -58.375 234 C-58.74625 234.7425 -59.1175 235.485 -59.5 236.25 C-59.7475 236.95125 -59.995 237.6525 -60.25 238.375 C-62.10871229 241.16306843 -64.34261404 241.41232617 -67.5 242.25 C-68.49 242.58 -69.48 242.91 -70.5 243.25 C-70.5 243.91 -70.5 244.57 -70.5 245.25 C-71.4590625 245.683125 -71.4590625 245.683125 -72.4375 246.125 C-74.65206079 247.07823451 -74.65206079 247.07823451 -75.5 249.25 C-76.82 249.25 -78.14 249.25 -79.5 249.25 C-79.5 249.91 -79.5 250.57 -79.5 251.25 C-81.15532623 252.26866229 -82.82260138 253.26810813 -84.5 254.25 C-84.83 254.91 -85.16 255.57 -85.5 256.25 C-86.16 256.25 -86.82 256.25 -87.5 256.25 C-88.16 257.57 -88.82 258.89 -89.5 260.25 C-90.49 260.25 -91.48 260.25 -92.5 260.25 C-92.63277344 261.10464844 -92.76554687 261.95929688 -92.90234375 262.83984375 C-93.07894531 263.94457031 -93.25554687 265.04929687 -93.4375 266.1875 C-93.61152344 267.28964844 -93.78554688 268.39179688 -93.96484375 269.52734375 C-94.5 272.25 -94.5 272.25 -95.5 273.25 C-97.49958364 273.29080783 -99.50045254 273.29254356 -101.5 273.25 C-101.68175781 274.10271484 -101.68175781 274.10271484 -101.8671875 274.97265625 C-103.36369839 281.86811797 -105.21865645 288.56892246 -107.5 295.25 C-109.8125 295.875 -109.8125 295.875 -112.5 296.25 C-113.49 295.59 -114.48 294.93 -115.5 294.25 C-115.5 293.59 -115.5 292.93 -115.5 292.25 C-116.82 292.25 -118.14 292.25 -119.5 292.25 C-119.5 290.6 -119.5 288.95 -119.5 287.25 C-120.49 286.92 -121.48 286.59 -122.5 286.25 C-122.5 285.59 -122.5 284.93 -122.5 284.25 C-123.16 283.59 -123.82 282.93 -124.5 282.25 C-123.92526445 279.50895353 -123.28256399 276.92586397 -122.5 274.25 C-122.16124721 272.91803325 -121.82628529 271.58507558 -121.5 270.25 C-122.16 269.92 -122.82 269.59 -123.5 269.25 C-123.5 268.59 -123.5 267.93 -123.5 267.25 C-122.84 267.25 -122.18 267.25 -121.5 267.25 C-121.5 266.59 -121.5 265.93 -121.5 265.25 C-122.49 265.25 -123.48 265.25 -124.5 265.25 C-124.375 262 -124.375 262 -123.5 258.25 C-120.6875 255.9375 -120.6875 255.9375 -117.5 254.25 C-116.860625 253.858125 -116.22125 253.46625 -115.5625 253.0625 C-112.62019 251.90340818 -109.62296359 251.66246689 -106.5 251.25 C-106.17 250.92 -105.84 250.59 -105.5 250.25 C-103.83382885 250.20936168 -102.16611905 250.207279 -100.5 250.25 C-100.5 249.59 -100.5 248.93 -100.5 248.25 C-98.85570171 246.56126121 -97.18615782 244.89694485 -95.5 243.25 C-93.27074325 240.62266169 -92.10768418 238.65303142 -91.5 235.25 C-90.84 235.25 -90.18 235.25 -89.5 235.25 C-89.5 233.93 -89.5 232.61 -89.5 231.25 C-88.84 231.25 -88.18 231.25 -87.5 231.25 C-87.231875 230.54875 -86.96375 229.8475 -86.6875 229.125 C-85.4318551 226.0850176 -83.99764877 223.1772226 -82.5 220.25 C-81.84 220.25 -81.18 220.25 -80.5 220.25 C-80.5 219.59 -80.5 218.93 -80.5 218.25 C-79.84 218.25 -79.18 218.25 -78.5 218.25 C-78.5 217.59 -78.5 216.93 -78.5 216.25 C-77.84 216.25 -77.18 216.25 -76.5 216.25 C-76.355625 215.63125 -76.21125 215.0125 -76.0625 214.375 C-75.5 212.25 -75.5 212.25 -74.5 210.25 C-72.33532539 209.62330801 -70.14135476 209.09572626 -67.9375 208.625 C-66.73996094 208.36460937 -65.54242188 208.10421875 -64.30859375 207.8359375 C-62.91833984 207.54589844 -62.91833984 207.54589844 -61.5 207.25 C-61.5 206.59 -61.5 205.93 -61.5 205.25 C-60.84 205.25 -60.18 205.25 -59.5 205.25 C-59.40203125 204.27417969 -59.3040625 203.29835938 -59.203125 202.29296875 C-59.05359375 201.02066406 -58.9040625 199.74835938 -58.75 198.4375 C-58.61078125 197.17292969 -58.4715625 195.90835938 -58.328125 194.60546875 C-57.5 191.25 -57.5 191.25 -55.609375 189.30078125 C-53.5 188.25 -53.5 188.25 -50.5 188.25 C-50.5 187.26 -50.5 186.27 -50.5 185.25 C-49.84 185.25 -49.18 185.25 -48.5 185.25 C-48.39558594 184.59 -48.29117188 183.93 -48.18359375 183.25 C-47.3142331 179.4347487 -45.96540653 175.89688412 -44.5625 172.25 C-44.29759766 171.55132812 -44.03269531 170.85265625 -43.75976562 170.1328125 C-42.65245549 167.22028461 -41.5323742 164.32639456 -40.31640625 161.45703125 C-39.2774496 158.64836855 -39.36193838 156.21832473 -39.5 153.25 C-40.10328125 153.12882813 -40.7065625 153.00765625 -41.328125 152.8828125 C-42.12734375 152.71523437 -42.9265625 152.54765625 -43.75 152.375 C-44.93335938 152.13136719 -44.93335938 152.13136719 -46.140625 151.8828125 C-48.46831144 151.25849925 -50.39031952 150.40161458 -52.5 149.25 C-52.5 147.6 -52.5 145.95 -52.5 144.25 C-53.11875 144.04375 -53.7375 143.8375 -54.375 143.625 C-56.5 142.25 -56.5 142.25 -57.8125 139.6875 C-58.98786069 133.81069655 -58.40841549 128.51852314 -55.5 123.25 C-54.84 123.25 -54.18 123.25 -53.5 123.25 C-53.995 119.785 -53.995 119.785 -54.5 116.25 C-53.51 115.92 -52.52 115.59 -51.5 115.25 C-51.17 112.94 -50.84 110.63 -50.5 108.25 C-49.84 108.25 -49.18 108.25 -48.5 108.25 C-48.5 107.59 -48.5 106.93 -48.5 106.25 C-45.5 104.25 -45.5 104.25 -41.5 104.25 C-41.17 102.6 -40.84 100.95 -40.5 99.25 C-39.51 98.92 -38.52 98.59 -37.5 98.25 C-38.16 97.26 -38.82 96.27 -39.5 95.25 C-39.18404492 93.57995171 -38.84820041 91.91362417 -38.5 90.25 C-38.685625 89.363125 -38.87125 88.47625 -39.0625 87.5625 C-39.75687075 82.30512148 -38.41893834 77.23371336 -36.8671875 72.1953125 C-36.41312811 69.78976383 -36.61923911 68.53734917 -37.5 66.25 C-39.12335609 63.90985946 -39.12335609 63.90985946 -41.0625 61.625 C-44.5 57.46126761 -44.5 57.46126761 -44.5 55.25 C-45.16 55.25 -45.82 55.25 -46.5 55.25 C-46.9021875 54.77691406 -47.304375 54.30382812 -47.71875 53.81640625 C-50.29491756 51.55096066 -52.63071132 51.57830713 -56 51.1875 C-62.19199179 50.45533881 -62.19199179 50.45533881 -65.5 48.25 C-70.38775113 46.66225919 -75.32885934 46.15808189 -80.4375 45.875 C-85.45048402 45.51376095 -89.33908079 44.39208082 -93.9140625 42.37109375 C-96.85882391 41.09443737 -99.83664859 40.03362802 -102.875 39 C-103.85210937 38.66484375 -104.82921875 38.3296875 -105.8359375 37.984375 C-108.68212368 37.07283479 -108.68212368 37.07283479 -112.5 37.25 C-113.89915746 38.93865105 -113.89915746 38.93865105 -114.9375 41.125 C-117.05052534 44.8195535 -118.36276319 45.97700406 -122.5 47.25 C-123.11875 47.889375 -123.7375 48.52875 -124.375 49.1875 C-127.95977107 52.66683663 -132.64304468 54.27860894 -137.5 55.25 C-138.91361227 51.00916318 -137.15468358 48.17539654 -135.5 44.25 C-135.21253906 43.56421875 -134.92507812 42.8784375 -134.62890625 42.171875 C-133.93001723 40.52664342 -133.21647225 38.88765086 -132.5 37.25 C-131.84 37.25 -131.18 37.25 -130.5 37.25 C-130.5 36.59 -130.5 35.93 -130.5 35.25 C-126.50720938 30.19246521 -121.67950077 27.90747543 -115.5 26.25 C-110.71158094 25.7228346 -106.12096197 26.17421439 -101.359375 26.7421875 C-95.27373399 27.43669987 -89.17179864 27.59002566 -83.05273438 27.76757812 C-78.09710102 27.95831783 -74.21869 28.66179001 -69.5 30.25 C-65.90156422 30.31618384 -65.90156422 30.31618384 -62.25 29.9375 C-61.02796875 29.83824219 -59.8059375 29.73898438 -58.546875 29.63671875 C-55.5881332 29.4319976 -55.5881332 29.4319976 -53.5 28.25 C-47.96153846 28.01923077 -47.96153846 28.01923077 -45.5 29.25 C-41.71053351 29.60250851 -39.66879629 29.32962089 -36.1875 27.6875 C-32.03705145 26.06952853 -29.78805896 26.26156991 -25.515625 27.0234375 C-23.29695724 27.41577266 -23.29695724 27.41577266 -20.5 26.25 C-19.65545644 22.87182575 -19.39155081 20.57534757 -20.5 17.25 C-19.84 17.25 -19.18 17.25 -18.5 17.25 C-18.561875 16.033125 -18.62375 14.81625 -18.6875 13.5625 C-18.6875 9.68642899 -18.06741815 7.29286595 -15.5 4.25 C-14.51 4.25 -13.52 4.25 -12.5 4.25 C-12.17 3.26 -11.84 2.27 -11.5 1.25 C-7.63050773 0.35481895 -3.96946297 0.05564668 0 0 Z " fill="#080808" transform="translate(361.5,92.75)"/>
<path d="M0 0 C4.16253275 -0.09938095 8.32442479 -0.17170617 12.48779297 -0.21972656 C13.90197795 -0.23975843 15.31608097 -0.26699248 16.72998047 -0.30175781 C18.77071419 -0.35065489 20.8103469 -0.37305123 22.8515625 -0.390625 C24.68968506 -0.4220459 24.68968506 -0.4220459 26.56494141 -0.45410156 C30.65834097 0.08703015 32.83350203 1.39486053 36 4 C36 4.66 36 5.32 36 6 C36.66 6 37.32 6 38 6 C38.62198953 15.70994764 38.62198953 15.70994764 36.3125 20.5 C34.02776118 22.96998791 31.9985145 24.50074275 29 26 C30.81885876 31.70460249 32.86487199 37.2362753 35.23046875 42.73828125 C36 45 36 45 36 49 C30.06 49 24.12 49 18 49 C12.77678571 35.74107143 12.77678571 35.74107143 12 31 C11.70996094 32.06927734 11.70996094 32.06927734 11.4140625 33.16015625 C11.15367187 34.11792969 10.89328125 35.07570312 10.625 36.0625 C10.24214844 37.47208984 10.24214844 37.47208984 9.8515625 38.91015625 C8.92295489 42.2795536 7.96015528 45.63945652 7 49 C1.39 49 -4.22 49 -10 49 C-8.9650578 37.40864741 -6.6265215 26.01433894 -3.69140625 14.765625 C-2.79708338 11.18833353 -2.09844471 7.58630553 -1.4296875 3.9609375 C-1 2 -1 2 0 0 Z M17 6 C15.1866078 9.20010388 14.47786026 12.13283843 13.875 15.75 C13.70742187 16.73484375 13.53984375 17.7196875 13.3671875 18.734375 C13.24601562 19.48203125 13.12484375 20.2296875 13 21 C15.40326842 21.20867992 15.40326842 21.20867992 18 21 C21.08644287 17.663305 22.24204985 15.09298302 22.25 10.625 C22.1675 9.42875 22.085 8.2325 22 7 C20.35 6.67 18.7 6.34 17 6 Z " fill="#03FC42" transform="translate(222,184)"/>
<path d="M0 0 C0.79075928 0.00523682 1.58151855 0.01047363 2.39624023 0.01586914 C3.67724609 0.02070313 3.67724609 0.02070313 4.98413086 0.02563477 C5.88196289 0.03401367 6.77979492 0.04239258 7.70483398 0.05102539 C8.6065332 0.05553711 9.50823242 0.06004883 10.43725586 0.06469727 C12.67234712 0.07652315 14.90730835 0.09300319 17.14233398 0.11352539 C18.72945698 4.55336514 19.77014547 8.91989401 20.64233398 13.55102539 C21.57803269 18.50921146 22.69727317 23.28627483 24.14233398 28.11352539 C24.3240918 27.3259082 24.50584961 26.53829102 24.69311523 25.72680664 C25.22109542 23.43889251 25.74979027 21.15114323 26.27905273 18.86352539 C26.849496 16.38558178 27.41469874 13.90642526 27.97436523 11.42602539 C28.36688477 9.69352539 28.36688477 9.69352539 28.76733398 7.92602539 C29.00709961 6.8599707 29.24686523 5.79391602 29.49389648 4.69555664 C30.14233398 2.11352539 30.14233398 2.11352539 31.14233398 0.11352539 C33.78233398 0.11352539 36.42233398 0.11352539 39.14233398 0.11352539 C38.81647096 5.29362388 38.22929404 10.18546019 36.76733398 15.17602539 C35.37104351 19.9545923 34.45810673 24.71135043 33.64233398 29.61352539 C32.53287327 36.25703798 31.05556921 42.64496821 29.14233398 49.11352539 C22.87233398 49.11352539 16.60233398 49.11352539 10.14233398 49.11352539 C8.12853454 43.07212707 6.37892171 37.28968732 5.01733398 31.11352539 C4.31695331 26.22401553 4.31695331 26.22401553 2.14233398 22.11352539 C1.96581299 22.89590576 1.78929199 23.67828613 1.60742188 24.484375 C0.81033129 28.00745773 0.00766019 31.52924546 -0.79516602 35.05102539 C-1.07295898 36.28272461 -1.35075195 37.51442383 -1.63696289 38.78344727 C-1.90444336 39.95327148 -2.17192383 41.1230957 -2.44750977 42.32836914 C-2.81670532 43.95440063 -2.81670532 43.95440063 -3.19335938 45.61328125 C-3.85766602 48.11352539 -3.85766602 48.11352539 -4.85766602 49.11352539 C-7.19064035 49.15445476 -9.52471826 49.15594262 -11.85766602 49.11352539 C-12.20159978 43.15200676 -11.2595342 38.26976766 -9.71313477 32.51977539 C-8.76457967 28.7428802 -8.04291893 24.94448478 -7.35766602 21.11352539 C-3.57513657 0.21848318 -3.57513657 0.21848318 0 0 Z " fill="#03FC42" transform="translate(167.857666015625,243.886474609375)"/>
<path d="M0 0 C7.25921681 -0.18945758 13.98678702 0.36859451 20.40625 4.11328125 C20.6479734 9.7937811 19.76617692 14.58857814 18.40625 20.11328125 C13.45625 20.11328125 8.50625 20.11328125 3.40625 20.11328125 C3.40625 15.82328125 3.40625 11.53328125 3.40625 7.11328125 C-0.81837623 7.69778957 -0.81837623 7.69778957 -2.71875 11.23828125 C-7.95863195 21.32762257 -7.74561567 32.04396108 -7.59375 43.11328125 C-5.42500748 42.60724133 -3.59407373 42.11344312 -1.59375 41.11328125 C-0.69031316 39.23064244 -0.69031316 39.23064244 0.03125 37.05078125 C0.29164063 36.31730469 0.55203125 35.58382812 0.8203125 34.828125 C1.01367188 34.26222656 1.20703125 33.69632812 1.40625 33.11328125 C-0.57375 33.11328125 -2.55375 33.11328125 -4.59375 33.11328125 C-3.71875 28.23828125 -3.71875 28.23828125 -2.59375 27.11328125 C-1.03202255 27.02642522 0.53354344 27.00625906 2.09765625 27.015625 C3.04189453 27.01884766 3.98613281 27.02207031 4.95898438 27.02539062 C5.95220703 27.03376953 6.94542969 27.04214844 7.96875 27.05078125 C8.96583984 27.05529297 9.96292969 27.05980469 10.99023438 27.06445312 C13.46229849 27.07628118 15.93424518 27.09276276 18.40625 27.11328125 C17.76679495 30.76026358 17.11862364 34.40564224 16.46875 38.05078125 C16.28634766 39.09169922 16.10394531 40.13261719 15.91601562 41.20507812 C15.65014648 42.68911133 15.65014648 42.68911133 15.37890625 44.203125 C15.21656494 45.11956787 15.05422363 46.03601074 14.88696289 46.98022461 C14.40625 49.11328125 14.40625 49.11328125 13.40625 50.11328125 C11.19140625 50.31640625 11.19140625 50.31640625 8.46875 50.36328125 C7.57285156 50.3890625 6.67695313 50.41484375 5.75390625 50.44140625 C4.97917969 50.333125 4.20445312 50.22484375 3.40625 50.11328125 C2.74625 49.12328125 2.08625 48.13328125 1.40625 47.11328125 C0.63087891 47.84417969 0.63087891 47.84417969 -0.16015625 48.58984375 C-3.40749361 50.62268736 -5.72339632 50.51266452 -9.53125 50.48828125 C-11.33916016 50.49988281 -11.33916016 50.49988281 -13.18359375 50.51171875 C-16.7955379 50.08970466 -18.73928069 49.33402588 -21.59375 47.11328125 C-21.59375 46.45328125 -21.59375 45.79328125 -21.59375 45.11328125 C-22.25375 45.11328125 -22.91375 45.11328125 -23.59375 45.11328125 C-26.81421349 39.85659878 -27.05280555 35.64839475 -26.96875 29.67578125 C-26.98035156 28.85529297 -26.99195313 28.03480469 -27.00390625 27.18945312 C-26.9665887 19.39630569 -24.63385241 13.18725082 -19.59375 7.11328125 C-13.20357181 2.33181925 -7.96068091 0.34768034 0 0 Z " fill="#04FC42" transform="translate(233.59375,242.88671875)"/>
<path d="M0 0 C5.94 0 11.88 0 18 0 C17.34 5.28 16.68 10.56 16 16 C16.66 15.01 17.32 14.02 18 13 C18.66 13 19.32 13 20 13 C20 12.34 20 11.68 20 11 C20.66 11 21.32 11 22 11 C22.66 9.35 23.32 7.7 24 6 C24.66 6 25.32 6 26 6 C26 5.34 26 4.68 26 4 C26.66 4 27.32 4 28 4 C28 3.34 28 2.68 28 2 C28.66 2 29.32 2 30 2 C30 1.34 30 0.68 30 0 C33.3 0 36.6 0 40 0 C39.34 1.65 38.68 3.3 38 5 C37.34 5 36.68 5 36 5 C35.731875 5.58394531 35.46375 6.16789063 35.1875 6.76953125 C33.98776545 9.02298004 32.66982858 10.76302256 31 12.6875 C30.484375 13.28949219 29.96875 13.89148438 29.4375 14.51171875 C28 16 28 16 26 17 C25.7365178 21.73555847 26.53060268 25.05897354 28.3125 29.4375 C28.76753906 30.571875 29.22257812 31.70625 29.69140625 32.875 C30.68342702 35.24400482 31.69884699 37.59463161 32.75 39.9375 C34 43 34 43 35 49 C29.06 49 23.12 49 17 49 C14.525 41.08 14.525 41.08 12 33 C10.68 38.28 9.36 43.56 8 49 C2.06 49 -3.88 49 -10 49 C-8.45856393 38.20994751 -6.50725146 27.58539451 -3.76171875 17.0390625 C-2.34704876 11.39489198 -1.19571989 5.69390423 0 0 Z " fill="#06FB44" transform="translate(95,244)"/>
<path d="M0 0 C6.84123562 -0.17621364 12.39831818 0.96975387 18.515625 4.12109375 C18.04056822 5.93467529 17.56046458 7.74693554 17.078125 9.55859375 C16.81128906 10.56792969 16.54445313 11.57726562 16.26953125 12.6171875 C15.515625 15.12109375 15.515625 15.12109375 14.515625 16.12109375 C12.32923047 16.19368321 10.14062111 16.20483158 7.953125 16.18359375 C6.15681641 16.17005859 6.15681641 16.17005859 4.32421875 16.15625 C3.39738281 16.14464844 2.47054688 16.13304687 1.515625 16.12109375 C1.185625 13.15109375 0.855625 10.18109375 0.515625 7.12109375 C-2.39954792 8.19510483 -4.26247676 8.89919551 -6.484375 11.12109375 C-6.65124948 13.70463593 -6.65124948 13.70463593 -6.484375 16.12109375 C-5.77152344 16.30285156 -5.05867188 16.48460937 -4.32421875 16.671875 C9.7914329 20.37652113 9.7914329 20.37652113 13.16796875 23.79296875 C16.00557056 28.69502869 15.27212774 34.67675437 14.515625 40.12109375 C12.24670138 44.99686578 8.64964664 47.51295249 3.70776367 49.52563477 C-0.9501915 50.79089289 -5.75516798 50.54858963 -10.546875 50.49609375 C-11.60970703 50.50769531 -12.67253906 50.51929688 -13.76757812 50.53125 C-19.32422332 50.5104256 -23.80186787 50.48491843 -28.484375 47.12109375 C-29.63456509 43.67052347 -29.28934706 42.81950131 -28.109375 39.49609375 C-27.83351562 38.69945312 -27.55765625 37.9028125 -27.2734375 37.08203125 C-26.484375 35.12109375 -26.484375 35.12109375 -25.484375 34.12109375 C-23.31956703 34.02216435 -21.15143715 33.99138275 -18.984375 33.99609375 C-17.7984375 33.99351562 -16.6125 33.9909375 -15.390625 33.98828125 C-12.484375 34.12109375 -12.484375 34.12109375 -11.484375 35.12109375 C-11.44344563 37.45406808 -11.44195777 39.788146 -11.484375 42.12109375 C-10.824375 42.12109375 -10.164375 42.12109375 -9.484375 42.12109375 C-9.484375 42.78109375 -9.484375 43.44109375 -9.484375 44.12109375 C-5.94789996 42.44592136 -4.6932187 41.62828558 -3.171875 37.93359375 C-2.945 37.00546875 -2.718125 36.07734375 -2.484375 35.12109375 C-3.144375 35.12109375 -3.804375 35.12109375 -4.484375 35.12109375 C-4.484375 34.46109375 -4.484375 33.80109375 -4.484375 33.12109375 C-5.28875 33.03859375 -6.093125 32.95609375 -6.921875 32.87109375 C-11.44371705 31.919127 -15.33140201 30.10529196 -19.484375 28.12109375 C-19.484375 27.46109375 -19.484375 26.80109375 -19.484375 26.12109375 C-20.144375 26.12109375 -20.804375 26.12109375 -21.484375 26.12109375 C-24.47565023 21.63418091 -24.31471098 17.37498955 -23.484375 12.12109375 C-20.70833979 6.71721026 -15.89462807 3.54637961 -10.484375 1.12109375 C-6.91017634 0.4179727 -3.61986574 0.17644 0 0 Z " fill="#06FB44" transform="translate(280.484375,242.87890625)"/>
<path d="M0 0 C0.79075928 0.00523682 1.58151855 0.01047363 2.39624023 0.01586914 C3.67724609 0.02070313 3.67724609 0.02070313 4.98413086 0.02563477 C5.88196289 0.03401367 6.77979492 0.04239258 7.70483398 0.05102539 C8.6065332 0.05553711 9.50823242 0.06004883 10.43725586 0.06469727 C12.67234712 0.07652315 14.90730835 0.09300319 17.14233398 0.11352539 C16.96581299 0.94489014 16.78929199 1.77625488 16.60742188 2.6328125 C15.94610647 5.75758761 15.2886899 8.88315207 14.63378906 12.00927734 C14.35113668 13.35465121 14.06699289 14.69971273 13.78125 16.04443359 C12.22128155 23.39076489 10.79152668 30.62726536 10.14233398 38.11352539 C14.02392278 40.70125125 15.67659875 39.99072338 20.14233398 39.11352539 C21.62733398 38.61852539 21.62733398 38.61852539 23.14233398 38.11352539 C23.28026367 37.27563477 23.41819336 36.43774414 23.56030273 35.57446289 C25.57478495 23.59572974 28.06501193 11.86046034 31.14233398 0.11352539 C33.78233398 0.11352539 36.42233398 0.11352539 39.14233398 0.11352539 C35.81746089 37.35210407 35.81746089 37.35210407 25.51733398 46.42602539 C17.4627904 50.45329718 8.6396157 51.15744376 -0.04516602 48.92602539 C-3.01981796 47.92994711 -4.93471602 47.05665515 -7.48266602 45.17602539 C-12.22017563 34.62429943 -7.24332089 20.88373598 -4.85766602 10.11352539 C-4.67816406 9.26193848 -4.49866211 8.41035156 -4.3137207 7.53295898 C-4.14001953 6.71778809 -3.96631836 5.90261719 -3.78735352 5.06274414 C-3.63250488 4.32757568 -3.47765625 3.59240723 -3.31811523 2.83496094 C-2.68875168 0.4820222 -2.46059198 0.15037131 0 0 Z " fill="#08FB46" transform="translate(175.857666015625,183.886474609375)"/>
<path d="M0 0 C0 0.66 0 1.32 0 2 C0.66 2 1.32 2 2 2 C2 2.66 2 3.32 2 4 C2.99 4.33 3.98 4.66 5 5 C8.1252118 9.6878177 9.13180092 14.0888867 8.75 19.625 C8.02844647 22.87199088 7.24846304 25.91556189 6 29 C5.01 29.495 5.01 29.495 4 30 C4 28.68 4 27.36 4 26 C2.02 25.67 0.04 25.34 -2 25 C-2 25.66 -2 26.32 -2 27 C-2.66 27 -3.32 27 -4 27 C-4 27.66 -4 28.32 -4 29 C-4.66 29 -5.32 29 -6 29 C-6.93423645 32.01031744 -7.04449911 32.86650268 -6 36 C-4.35 35.34 -2.7 34.68 -1 34 C-1.5625 35.875 -1.5625 35.875 -3 38 C-11.21105406 41.2200212 -17.20623788 40.24531072 -25.05859375 36.875 C-25.69925781 36.58625 -26.33992188 36.2975 -27 36 C-27 35.34 -27 34.68 -27 34 C-27.66 34 -28.32 34 -29 34 C-29 33.34 -29 32.68 -29 32 C-29.66 32 -30.32 32 -31 32 C-34.98136038 26.42609547 -35.55516007 20.67546134 -35 14 C-34.01319806 10.82813662 -32.85522098 8.78283147 -31 6 C-30.34 6 -29.68 6 -29 6 C-28.34 4.68 -27.68 3.36 -27 2 C-26.34 2 -25.68 2 -25 2 C-24.835 1.38125 -24.67 0.7625 -24.5 0.125 C-22.51998111 -2.68002676 -20.4281024 -3.08736943 -17.14453125 -3.75 C-10.93982805 -4.47331695 -5.63307774 -2.27299628 0 0 Z M-16 4 C-15.67 6.97 -15.34 9.94 -15 13 C-11.7 13.33 -8.4 13.66 -5 14 C-3.26638076 11.28441679 -3.26638076 11.28441679 -2 8 C-2.67993427 5.16924452 -2.67993427 5.16924452 -4 3 C-4.66 3 -5.32 3 -6 3 C-6 2.34 -6 1.68 -6 1 C-10.27343092 0.63370592 -12.48812804 1.59185923 -16 4 Z M-30 20 C-31.01540112 24.10223585 -31.01540112 24.10223585 -30 28 C-29.34 28 -28.68 28 -28 28 C-28 28.66 -28 29.32 -28 30 C-27.34 30 -26.68 30 -26 30 C-26 30.66 -26 31.32 -26 32 C-23.83125748 31.49396008 -22.00032373 31.00016187 -20 30 C-21.21044132 25.39257135 -21.21044132 25.39257135 -23 21 C-25.32156597 20.59270772 -27.6568787 20.25561323 -30 20 Z " fill="#1A1A1A" transform="translate(368,341)"/>
<path d="M0 0 C1.39120471 0.00015906 2.78241534 0.00585033 4.17358398 0.01586914 C4.90463852 0.01728409 5.63569305 0.01869904 6.38890076 0.02015686 C8.73253406 0.02577131 11.07607313 0.03832617 13.41967773 0.05102539 C15.00496282 0.05603853 16.59024939 0.06060176 18.17553711 0.06469727 C22.06945383 0.07574542 25.96329979 0.09301967 29.85717773 0.11352539 C29.19717773 2.42352539 28.53717773 4.73352539 27.85717773 7.11352539 C22.90717773 7.11352539 17.95717773 7.11352539 12.85717773 7.11352539 C12.19717773 11.07352539 11.53717773 15.03352539 10.85717773 19.11352539 C14.81717773 19.11352539 18.77717773 19.11352539 22.85717773 19.11352539 C21.98217773 25.98852539 21.98217773 25.98852539 20.85717773 27.11352539 C18.83753575 27.18596592 16.8155065 27.19729727 14.79467773 27.17602539 C13.68995117 27.16700195 12.58522461 27.15797852 11.44702148 27.14868164 C10.59237305 27.13708008 9.73772461 27.12547852 8.85717773 27.11352539 C8.74124268 27.70891113 8.62530762 28.30429688 8.50585938 28.91772461 C7.98013975 31.60858935 7.44996478 34.29855719 6.91967773 36.98852539 C6.73727539 37.92567383 6.55487305 38.86282227 6.36694336 39.82836914 C6.18969727 40.72426758 6.01245117 41.62016602 5.82983398 42.54321289 C5.66749268 43.37062988 5.50515137 44.19804687 5.33789062 45.05053711 C4.85717773 47.11352539 4.85717773 47.11352539 3.85717773 49.11352539 C-2.08282227 49.11352539 -8.02282227 49.11352539 -14.14282227 49.11352539 C-5.99331658 0.21649128 -5.99331658 0.21649128 0 0 Z " fill="#09FB47" transform="translate(273.142822265625,183.886474609375)"/>
<path d="M0 0 C13.86 0 27.72 0 42 0 C41.67 2.31 41.34 4.62 41 7 C36.71 7 32.42 7 28 7 C27.88527344 8.22460938 27.77054688 9.44921875 27.65234375 10.7109375 C26.97949989 16.75352472 25.77517013 22.67124928 24.5625 28.625 C24.34529297 29.718125 24.12808594 30.81125 23.90429688 31.9375 C20.83478843 47.16521157 20.83478843 47.16521157 19 49 C16.13732433 49.07325168 13.299281 49.09238205 10.4375 49.0625 C9.63119141 49.05798828 8.82488281 49.05347656 7.99414062 49.04882812 C5.99606244 49.03700518 3.99802217 49.01906914 2 49 C3.40533409 39.47163553 4.80508275 30.04869165 7.3046875 20.734375 C8.45773058 16.19993591 9.21142072 11.61015581 10 7 C6.37 7 2.74 7 -1 7 C-0.67 4.69 -0.34 2.38 0 0 Z " fill="#02FD42" transform="translate(129,184)"/>
<path d="M0 0 C0.74886475 0.00523682 1.49772949 0.01047363 2.26928711 0.01586914 C3.07817383 0.0190918 3.88706055 0.02231445 4.72045898 0.02563477 C5.5705957 0.03401367 6.42073242 0.04239258 7.29663086 0.05102539 C8.15063477 0.05553711 9.00463867 0.06004883 9.88452148 0.06469727 C12.00108749 0.07652166 14.11761771 0.0944577 16.23413086 0.11352539 C14.85239586 8.90354008 13.16052111 17.60130592 11.29663086 26.30102539 C11.04461914 27.50694336 10.79260742 28.71286133 10.53295898 29.95532227 C9.13225032 36.51465107 7.50546862 42.80124045 5.23413086 49.11352539 C-0.37586914 49.11352539 -5.98586914 49.11352539 -11.76586914 49.11352539 C-11.37295761 43.76992863 -10.77079269 38.7884768 -9.38696289 33.60961914 C-7.37326399 25.76182233 -5.94940145 17.8224198 -4.48461914 9.85766602 C-4.27579102 8.74198242 -4.06696289 7.62629883 -3.85180664 6.47680664 C-3.66666504 5.4691626 -3.48152344 4.46151855 -3.29077148 3.42333984 C-2.55007734 0.1639411 -2.55007734 0.1639411 0 0 Z " fill="#0CF948" transform="translate(142.765869140625,243.886474609375)"/>
<path d="M0 0 C5.61 0 11.22 0 17 0 C17.33 1.32 17.66 2.64 18 4 C16.35 4.33 14.7 4.66 13 5 C12.67 11.27 12.34 17.54 12 24 C11.01 24.33 10.02 24.66 9 25 C8.48319016 27.54288736 7.98504724 30.08494171 7.53515625 32.640625 C7.37917969 33.50171875 7.22320312 34.3628125 7.0625 35.25 C6.90910156 36.12140625 6.75570312 36.9928125 6.59765625 37.890625 C6.40042969 38.58671875 6.20320312 39.2828125 6 40 C5.01 40.495 5.01 40.495 4 41 C3.835 41.66 3.67 42.32 3.5 43 C3.335 43.66 3.17 44.32 3 45 C0.59454362 46.20272819 -0.94996953 46.10071472 -3.625 46.0625 C-4.85089844 46.04896484 -4.85089844 46.04896484 -6.1015625 46.03515625 C-6.72804687 46.02355469 -7.35453125 46.01195312 -8 46 C-8.05441656 44.10448978 -8.09298035 42.2085208 -8.125 40.3125 C-8.14820313 39.25675781 -8.17140625 38.20101562 -8.1953125 37.11328125 C-8 34 -8 34 -7.04101562 31.62304688 C-5.99761214 28.99398331 -5.52573305 26.71338578 -5.1484375 23.91796875 C-5.01953125 22.98662109 -4.890625 22.05527344 -4.7578125 21.09570312 C-4.63148438 20.13599609 -4.50515625 19.17628906 -4.375 18.1875 C-4.2409375 17.20845703 -4.106875 16.22941406 -3.96875 15.22070312 C-3.64010038 12.81451838 -3.31737913 10.40769281 -3 8 C-2.01 8 -1.02 8 0 8 C0 5.36 0 2.72 0 0 Z " fill="#03FC41" transform="translate(223,185)"/>
<path d="M0 0 C0.79075928 0.00523682 1.58151855 0.01047363 2.39624023 0.01586914 C3.67724609 0.02070313 3.67724609 0.02070313 4.98413086 0.02563477 C5.88196289 0.03401367 6.77979492 0.04239258 7.70483398 0.05102539 C8.6065332 0.05553711 9.50823242 0.06004883 10.43725586 0.06469727 C12.67234712 0.07652315 14.90730835 0.09300319 17.14233398 0.11352539 C16.96581299 0.94489014 16.78929199 1.77625488 16.60742188 2.6328125 C15.94610647 5.75758761 15.2886899 8.88315207 14.63378906 12.00927734 C14.35113668 13.35465121 14.06699289 14.69971273 13.78125 16.04443359 C12.22128155 23.39076489 10.79152668 30.62726536 10.14233398 38.11352539 C14.02392278 40.70125125 15.67659875 39.99072338 20.14233398 39.11352539 C21.62733398 38.61852539 21.62733398 38.61852539 23.14233398 38.11352539 C23.28026367 37.27563477 23.41819336 36.43774414 23.56030273 35.57446289 C25.57478495 23.59572974 28.06501193 11.86046034 31.14233398 0.11352539 C33.78233398 0.11352539 36.42233398 0.11352539 39.14233398 0.11352539 C35.81746089 37.35210407 35.81746089 37.35210407 25.51733398 46.42602539 C16.33607276 51.016656 7.05042689 50.90177005 -2.62329102 48.06274414 C-4.99102926 47.05686933 -6.26730494 46.12213078 -7.85766602 44.11352539 C-7.85766602 43.45352539 -7.85766602 42.79352539 -7.85766602 42.11352539 C-4.88572751 43.23804266 -2.52325914 44.3364633 0.14233398 46.11352539 C2.26571169 46.47785912 2.26571169 46.47785912 4.59155273 46.52758789 C5.43911133 46.56625977 6.28666992 46.60493164 7.15991211 46.64477539 C8.48152344 46.69118164 8.48152344 46.69118164 9.82983398 46.73852539 C10.72250977 46.77719727 11.61518555 46.81586914 12.53491211 46.85571289 C14.73718018 46.94992757 16.9394412 47.03554127 19.14233398 47.11352539 C19.47233398 46.12352539 19.80233398 45.13352539 20.14233398 44.11352539 C18.28608398 43.68040039 18.28608398 43.68040039 16.39233398 43.23852539 C13.38987672 42.53795203 10.86172857 41.57121889 8.14233398 40.11352539 C8.02158545 33.68702004 8.23249293 27.48241278 9.14233398 21.11352539 C9.47233398 20.78352539 9.80233398 20.45352539 10.14233398 20.11352539 C10.5099413 17.78534575 10.84474979 15.45168689 11.14233398 13.11352539 C11.80233398 13.11352539 12.46233398 13.11352539 13.14233398 13.11352539 C13.13073242 12.49864258 13.11913086 11.88375977 13.10717773 11.25024414 C13.0981543 10.44200195 13.08913086 9.63375977 13.07983398 8.80102539 C13.06823242 8.00051758 13.05663086 7.20000977 13.04467773 6.37524414 C13.14233398 4.11352539 13.14233398 4.11352539 14.14233398 1.11352539 C9.19233398 1.44352539 4.24233398 1.77352539 -0.85766602 2.11352539 C-1.18766602 4.09352539 -1.51766602 6.07352539 -1.85766602 8.11352539 C-2.18766602 8.11352539 -2.51766602 8.11352539 -2.85766602 8.11352539 C-2.90008325 5.78057764 -2.89859539 3.44649972 -2.85766602 1.11352539 C-1.85766602 0.11352539 -1.85766602 0.11352539 0 0 Z " fill="#4CEE78" transform="translate(175.857666015625,183.886474609375)"/>
<path d="M0 0 C7.25921681 -0.18945758 13.98678702 0.36859451 20.40625 4.11328125 C20.6479734 9.7937811 19.76617692 14.58857814 18.40625 20.11328125 C13.45625 20.11328125 8.50625 20.11328125 3.40625 20.11328125 C3.40625 15.82328125 3.40625 11.53328125 3.40625 7.11328125 C2.08625 7.44328125 0.76625 7.77328125 -0.59375 8.11328125 C-2.37754415 11.09681019 -2.37754415 11.09681019 -3.59375 14.11328125 C-4.70219919 10.78793368 -4.43829356 8.4914555 -3.59375 5.11328125 C-8.91545494 4.81765758 -8.91545494 4.81765758 -13.59375 7.11328125 C-14.58375 7.11328125 -15.57375 7.11328125 -16.59375 7.11328125 C-16.820625 8.06203125 -17.0475 9.01078125 -17.28125 9.98828125 C-18.59375 13.11328125 -18.59375 13.11328125 -21.21875 14.48828125 C-22.0025 14.69453125 -22.78625 14.90078125 -23.59375 15.11328125 C-24.5739748 20.80167243 -24.71323801 26.28622458 -24.65625 32.05078125 C-24.64948242 33.36272461 -24.64948242 33.36272461 -24.64257812 34.70117188 C-24.63089834 36.83857172 -24.61296689 38.97593588 -24.59375 41.11328125 C-27.38438998 38.32264127 -26.8830125 36.33875113 -26.91601562 32.52539062 C-26.91118164 31.23858398 -26.91118164 31.23858398 -26.90625 29.92578125 C-26.92236328 29.08724609 -26.93847656 28.24871094 -26.95507812 27.38476562 C-26.9594128 21.83204916 -26.12831302 18.05693387 -23.59375 13.11328125 C-23.078125 12.10265625 -22.5625 11.09203125 -22.03125 10.05078125 C-17.85873832 5.02236974 -12.48032211 1.84804506 -6.15625 0.23828125 C-4.1038931 0.16626873 -2.05166407 0.08960581 0 0 Z " fill="#1AF459" transform="translate(233.59375,242.88671875)"/>
<path d="M0 0 C6.27 0 12.54 0 19 0 C20.5304898 4.5914694 21.61177099 8.72119705 22.5 13.4375 C23.4356987 18.39568607 24.55493919 23.17274943 26 28 C26.18175781 27.21238281 26.36351562 26.42476563 26.55078125 25.61328125 C27.07876143 23.32536712 27.60745629 21.03761784 28.13671875 18.75 C28.70716202 16.27205639 29.27236475 13.79289987 29.83203125 11.3125 C30.22455078 9.58 30.22455078 9.58 30.625 7.8125 C30.86476562 6.74644531 31.10453125 5.68039063 31.3515625 4.58203125 C32 2 32 2 33 0 C35.64 0 38.28 0 41 0 C40.67413697 5.18009849 40.08696005 10.0719348 38.625 15.0625 C37.22870953 19.84106691 36.31577275 24.59782503 35.5 29.5 C34.39197405 36.13492113 32.92117246 42.54718923 31 49 C27.85418577 49.02888514 24.70840531 49.04675923 21.5625 49.0625 C20.21575195 49.07506836 20.21575195 49.07506836 18.84179688 49.08789062 C17.56079102 49.09272461 17.56079102 49.09272461 16.25390625 49.09765625 C15.46314697 49.10289307 14.6723877 49.10812988 13.85766602 49.11352539 C12 49 12 49 11 48 C10.95919217 46.00041636 10.95745644 43.99954746 11 42 C11.66 42 12.32 42 13 42 C13 43.65 13 45.3 13 47 C18.61 47 24.22 47 30 47 C30.061875 45.06125 30.12375 43.1225 30.1875 41.125 C30.22230469 40.03445313 30.25710937 38.94390625 30.29296875 37.8203125 C30.14794922 36.42425781 30.14794922 36.42425781 30 35 C29.01 34.34 28.02 33.68 27 33 C26.67 33.66 26.34 34.32 26 35 C23.80864424 31.24339013 22.98158429 27.18912351 22 23 C21.690625 21.80375 21.38125 20.6075 21.0625 19.375 C19.53515531 13.29005875 18.29815893 7.13675133 17 1 C11.39 1 5.78 1 0 1 C0 0.67 0 0.34 0 0 Z " fill="#2AED5E" transform="translate(166,244)"/>
<path d="M0 0 C-0.47505678 1.81358154 -0.95516042 3.62584179 -1.4375 5.4375 C-1.70433594 6.44683594 -1.97117187 7.45617187 -2.24609375 8.49609375 C-3 11 -3 11 -4 12 C-6.18639453 12.07258946 -8.37500389 12.08373783 -10.5625 12.0625 C-12.35880859 12.04896484 -12.35880859 12.04896484 -14.19140625 12.03515625 C-15.11824219 12.02355469 -16.04507812 12.01195312 -17 12 C-17.33 9.03 -17.66 6.06 -18 3 C-20.91517292 4.07401108 -22.77810176 4.77810176 -25 7 C-25.16687448 9.58354218 -25.16687448 9.58354218 -25 12 C-24.28714844 12.18175781 -23.57429688 12.36351562 -22.83984375 12.55078125 C-11.9830738 15.40013541 -11.9830738 15.40013541 -7 18 C-6.67 18.99 -6.34 19.98 -6 21 C-6.7734375 20.566875 -6.7734375 20.566875 -7.5625 20.125 C-10.62645015 18.71086916 -13.75327006 17.91990682 -17 17 C-18.44389416 16.54046045 -19.88162413 16.06109922 -21.3125 15.5625 C-21.96863281 15.33691406 -22.62476563 15.11132812 -23.30078125 14.87890625 C-25 14 -25 14 -27 11 C-26.74438677 8.6568787 -26.40729228 6.32156597 -26 4 C-26 2.68 -26 1.36 -26 0 C-28.64 0.33 -31.28 0.66 -34 1 C-32.67193192 -1.65613616 -31.77596622 -1.93232069 -29 -3 C-18.77392841 -4.76311579 -9.41275168 -4.84899329 0 0 Z " fill="#14F84E" transform="translate(299,247)"/>
<path d="M0 0 C5.61 0 11.22 0 17 0 C16.52730173 6.93290803 15.92538853 13.32531976 14 20 C11.03 20 8.06 20 5 20 C5 18.68 5 17.36 5 16 C4.01 16 3.02 16 2 16 C2 16.66 2 17.32 2 18 C1.01 18 0.02 18 -1 18 C-1 17.01 -1 16.02 -1 15 C-0.34 15 0.32 15 1 15 C1 14.34 1 13.68 1 13 C1.66 13 2.32 13 3 13 C3 12.34 3 11.68 3 11 C3.66 10.67 4.32 10.34 5 10 C4.67 8.35 4.34 6.7 4 5 C2.35 4.67 0.7 4.34 -1 4 C-0.67 2.68 -0.34 1.36 0 0 Z " fill="#04FC43" transform="translate(232,271)"/>
<path d="M0 0 C2.64 0 5.28 0 8 0 C6.78290893 12.77945619 6.78290893 12.77945619 5 18 C4.34 18.33 3.68 18.66 3 19 C2.34359935 21.44437265 2.34359935 21.44437265 1.9375 24.3125 C1.40851601 27.58695463 0.86022452 30.79509273 0 34 C-0.66 34 -1.32 34 -2 34 C-2 35.65 -2 37.3 -2 39 C-2.66 39 -3.32 39 -4 39 C-4 39.66 -4 40.32 -4 41 C-4.66 41 -5.32 41 -6 41 C-6 41.66 -6 42.32 -6 43 C-6.99 42.67 -7.98 42.34 -9 42 C-8.36449219 41.21109375 -7.72898438 40.4221875 -7.07421875 39.609375 C-4.28809337 35.42957298 -4.14468806 31.1544394 -3.8125 26.25 C-3.67628084 24.54662395 -3.53710215 22.84348118 -3.39453125 21.140625 C-3.31489136 20.01962402 -3.31489136 20.01962402 -3.23364258 18.87597656 C-3 17 -3 17 -2 15 C-1.6087065 12.45802036 -1.25520881 9.92608411 -0.9375 7.375 C-0.84662109 6.66859375 -0.75574219 5.9621875 -0.66210938 5.234375 C-0.43816881 3.4899959 -0.21866182 1.74504866 0 0 Z " fill="#08F946" transform="translate(207,184)"/>
<path d="M0 0 C3.3 0 6.6 0 10 0 C9.34 1.65 8.68 3.3 8 5 C7.34 5 6.68 5 6 5 C5.731875 5.58394531 5.46375 6.16789063 5.1875 6.76953125 C3.98776545 9.02298004 2.66982858 10.76302256 1 12.6875 C0.484375 13.28949219 -0.03125 13.89148438 -0.5625 14.51171875 C-2 16 -2 16 -4 17 C-4.2720904 21.76158194 -3.44753598 25.04971829 -1.625 29.4375 C0.19035343 33.93217109 1.79946862 38.30701369 3 43 C2.34 42.67 1.68 42.34 1 42 C1 40.68 1 39.36 1 38 C0.01 38 -0.98 38 -2 38 C-3.74227403 34.1421075 -4.64079949 30.32637895 -5.48046875 26.203125 C-5.98822372 23.7896563 -5.98822372 23.7896563 -7.3125 20.8125 C-8 18 -8 18 -6.625 14.625 C-5.820625 13.325625 -5.820625 13.325625 -5 12 C-5.598125 12.66 -6.19625 13.32 -6.8125 14 C-9 16 -9 16 -12 16 C-12.268125 16.61875 -12.53625 17.2375 -12.8125 17.875 C-14 20 -14 20 -17 22 C-17 18 -17 18 -14.625 15.25 C-12 13 -12 13 -10 13 C-10 12.34 -10 11.68 -10 11 C-9.34 11 -8.68 11 -8 11 C-7.34 9.35 -6.68 7.7 -6 6 C-5.34 6 -4.68 6 -4 6 C-4 5.34 -4 4.68 -4 4 C-3.34 4 -2.68 4 -2 4 C-2 3.34 -2 2.68 -2 2 C-1.34 2 -0.68 2 0 2 C0 1.34 0 0.68 0 0 Z " fill="#21F458" transform="translate(125,244)"/>
<path d="M0 0 C2.6015625 0.0234375 2.6015625 0.0234375 5.625 0.375 C6.62789063 0.48585938 7.63078125 0.59671875 8.6640625 0.7109375 C9.82035156 0.85402344 9.82035156 0.85402344 11 1 C11.33 3.64 11.66 6.28 12 9 C15.96 9 19.92 9 24 9 C24.66 10.32 25.32 11.64 26 13 C22.38521286 14.80739357 18.16767454 14.22756068 14.1875 14.25 C13.28451172 14.270625 12.38152344 14.29125 11.45117188 14.3125 C6.46610874 14.34180235 3.05191009 14.25467829 -1 11 C-2.89488952 9.10511048 -2.18019112 6.42860854 -2.23046875 3.91015625 C-2 2 -2 2 0 0 Z " fill="#05FB44" transform="translate(256,278)"/>
<path d="M0 0 C6.35987804 -0.20190089 11.85221129 0.3722167 18 2 C18.91457003 7.56157448 19.32086397 11.675665 17 17 C15.18757948 17.02687279 13.37504767 17.04633715 11.5625 17.0625 C10.55316406 17.07410156 9.54382813 17.08570313 8.50390625 17.09765625 C6 17 6 17 5 16 C4.76518307 13.81707226 4.58636677 11.62796826 4.4375 9.4375 C4.35371094 8.23996094 4.26992187 7.04242188 4.18359375 5.80859375 C4.12300781 4.88175781 4.06242188 3.95492187 4 3 C2.68 2.67 1.36 2.34 0 2 C0 1.34 0 0.68 0 0 Z " fill="#06FB42" transform="translate(234,245)"/>
<path d="M0 0 C3.5625 0.3125 3.5625 0.3125 5.5 1.3125 C7.23379421 4.57611262 7.17789361 7.76265055 6.5625 11.3125 C5.44581384 13.88426207 4.12858373 15.96337441 2.5625 18.3125 C1.9025 18.3125 1.2425 18.3125 0.5625 18.3125 C0.5625 18.9725 0.5625 19.6325 0.5625 20.3125 C-1.0875 20.6425 -2.7375 20.9725 -4.4375 21.3125 C-5.0975 19.9925 -5.7575 18.6725 -6.4375 17.3125 C-8.4175 18.3025 -8.4175 18.3025 -10.4375 19.3125 C-10.4375 18.6525 -10.4375 17.9925 -10.4375 17.3125 C-9.4475 16.6525 -8.4575 15.9925 -7.4375 15.3125 C-6.70614588 12.26914276 -6.70614588 12.26914276 -6.375 8.8125 C-5.40853364 0.49168488 -5.40853364 0.49168488 0 0 Z " fill="#03FC41" transform="translate(251.4375,186.6875)"/>
<path d="M0 0 C0.94602608 3.0851746 1.01578237 5.49259007 0.625 8.6875 C0.53476563 9.47511719 0.44453125 10.26273438 0.3515625 11.07421875 C0 13 0 13 -1 14 C-5.38475846 28.63573909 -5.38475846 28.63573909 -4 43 C-4.99 43.495 -4.99 43.495 -6 44 C-5.01 44 -4.02 44 -3 44 C-3.061875 42.081875 -3.061875 42.081875 -3.125 40.125 C-3.1953125 37.9453125 -3.1953125 37.9453125 -3 36 C-2.34 35.34 -1.68 34.68 -1 34 C1.15332482 29.70132564 1.61128178 25.39939085 2.125 20.6875 C2.21136719 19.94693359 2.29773438 19.20636719 2.38671875 18.44335938 C2.59734705 16.62961565 2.79952986 14.81489457 3 13 C4.32 13 5.64 13 7 13 C8.17571451 16.67410785 8.07366746 20.16929183 8 24 C7.01 23.01 6.02 22.02 5 21 C4.823479 21.78238037 4.64695801 22.56476074 4.46508789 23.37084961 C3.6679973 26.89393234 2.8653262 30.41572007 2.0625 33.9375 C1.78470703 35.16919922 1.50691406 36.40089844 1.22070312 37.66992188 C0.95322266 38.83974609 0.68574219 40.00957031 0.41015625 41.21484375 C0.04096069 42.84087524 0.04096069 42.84087524 -0.33569336 44.49975586 C-1 47 -1 47 -2 48 C-4.33297433 48.04092937 -6.66705225 48.04241723 -9 48 C-9.34393377 42.03848137 -8.40186819 37.15624227 -6.85546875 31.40625 C-5.90692 27.62938011 -5.18488916 23.83101349 -4.5 20 C-3.28469029 13.25365925 -1.7692992 6.62546084 0 0 Z " fill="#2FED64" transform="translate(165,245)"/>
<path d="M0 0 C1.33596541 3.79944772 0.77087936 7.00493554 0.1875 10.9375 C-0.06966797 12.74541016 -0.06966797 12.74541016 -0.33203125 14.58984375 C-1 18 -1 18 -2.03515625 20.546875 C-3.20152358 23.51237574 -3.41578185 26.13935805 -3.625 29.3125 C-3.69976562 30.38113281 -3.77453125 31.44976562 -3.8515625 32.55078125 C-3.90054688 33.35902344 -3.94953125 34.16726562 -4 35 C-2.5199159 34.88637738 -1.04089926 34.75877092 0.4375 34.625 C1.67306641 34.52058594 1.67306641 34.52058594 2.93359375 34.4140625 C3.95646484 34.20910156 3.95646484 34.20910156 5 34 C5.33 33.34 5.66 32.68 6 32 C6.66 32 7.32 32 8 32 C7.67 31.01 7.34 30.02 7 29 C7.99 28.34 8.98 27.68 10 27 C10.29211922 25.02008085 10.57568332 23.03671577 10.75 21.04296875 C11.06378172 18.47878375 11.90783586 16.32995017 13 14 C14.875 14.5625 14.875 14.5625 17 16 C18.86117261 20.74599015 19.20674844 24.93466333 19 30 C17.03698408 26.49461443 16.04097612 22.86648272 15 19 C14.70996094 20.06927734 14.70996094 20.06927734 14.4140625 21.16015625 C14.02347656 22.59681641 14.02347656 22.59681641 13.625 24.0625 C13.36976563 25.00222656 13.11453125 25.94195312 12.8515625 26.91015625 C11.92295489 30.2795536 10.96015528 33.63945652 10 37 C4.39 37 -1.22 37 -7 37 C-5.88092197 24.4663261 -3.24279951 12.14324924 0 0 Z " fill="#15EF51" transform="translate(219,196)"/>
<path d="M0 0 C4.16253275 -0.09938095 8.32442479 -0.17170617 12.48779297 -0.21972656 C13.90197795 -0.23975843 15.31608097 -0.26699248 16.72998047 -0.30175781 C18.77071419 -0.35065489 20.8103469 -0.37305123 22.8515625 -0.390625 C24.68968506 -0.4220459 24.68968506 -0.4220459 26.56494141 -0.45410156 C30.6245041 0.08255705 32.79367944 1.51907191 36 4 C35.67 4.66 35.34 5.32 35 6 C34.34 5.34 33.68 4.68 33 4 C29.41656024 3.83322718 29.41656024 3.83322718 26 4 C24.73972876 7.78081371 24.32188342 11.56061171 23.79296875 15.50390625 C23 18 23 18 20.92578125 19.33984375 C20.29027344 19.55769531 19.65476563 19.77554688 19 20 C19 20.66 19 21.32 19 22 C16.69 22 14.38 22 12 22 C12.22754589 19.37124622 12.48081739 16.74953041 12.75 14.125 C12.811875 13.37863281 12.87375 12.63226563 12.9375 11.86328125 C13.171875 9.6953125 13.171875 9.6953125 14 6 C16.078125 4.4921875 16.078125 4.4921875 18 4 C18 3.01 18 2.02 18 1 C12.39 1 6.78 1 1 1 C1 3.64 1 6.28 1 9 C0.01 9 -0.98 9 -2 9 C-1.125 2.25 -1.125 2.25 0 0 Z M17 6 C15.1866078 9.20010388 14.47786026 12.13283843 13.875 15.75 C13.70742187 16.73484375 13.53984375 17.7196875 13.3671875 18.734375 C13.24601563 19.48203125 13.12484375 20.2296875 13 21 C15.40326842 21.20867992 15.40326842 21.20867992 18 21 C21.08644287 17.663305 22.24204985 15.09298302 22.25 10.625 C22.1675 9.42875 22.085 8.2325 22 7 C20.35 6.67 18.7 6.34 17 6 Z " fill="#2BF261" transform="translate(222,184)"/>
<path d="M0 0 C0.87454834 0.00523682 1.74909668 0.01047363 2.65014648 0.01586914 C3.59438477 0.0190918 4.53862305 0.02231445 5.51147461 0.02563477 C6.50469727 0.03401367 7.49791992 0.04239258 8.52124023 0.05102539 C9.51833008 0.05553711 10.51541992 0.06004883 11.54272461 0.06469727 C14.01478872 0.07652532 16.48673541 0.0930069 18.95874023 0.11352539 C18.31928519 3.76050773 17.67111388 7.40588638 17.02124023 11.05102539 C16.83883789 12.09194336 16.65643555 13.13286133 16.46850586 14.20532227 C16.29125977 15.19467773 16.11401367 16.1840332 15.93139648 17.20336914 C15.76905518 18.11981201 15.60671387 19.03625488 15.43945312 19.98046875 C14.95874023 22.11352539 14.95874023 22.11352539 13.95874023 23.11352539 C11.74389648 23.31665039 11.74389648 23.31665039 9.02124023 23.36352539 C8.1253418 23.38930664 7.22944336 23.41508789 6.30639648 23.44165039 C5.14430664 23.27922852 5.14430664 23.27922852 3.95874023 23.11352539 C3.29874023 22.12352539 2.63874023 21.13352539 1.95874023 20.11352539 C1.44827148 20.6046582 0.93780273 21.09579102 0.41186523 21.60180664 C-2.93574959 23.66474762 -5.39335948 23.4093004 -9.29125977 23.30102539 C-10.55454102 23.27395508 -11.81782227 23.24688477 -13.11938477 23.21899414 C-14.08360352 23.18418945 -15.04782227 23.14938477 -16.04125977 23.11352539 C-16.04125977 22.78352539 -16.04125977 22.45352539 -16.04125977 22.11352539 C-9.60625977 21.61852539 -9.60625977 21.61852539 -3.04125977 21.11352539 C-3.04125977 20.12352539 -3.04125977 19.13352539 -3.04125977 18.11352539 C-4.69125977 17.78352539 -6.34125977 17.45352539 -8.04125977 17.11352539 C-8.37125977 15.13352539 -8.70125977 13.15352539 -9.04125977 11.11352539 C-7.04125977 14.11352539 -7.04125977 14.11352539 -7.04125977 16.11352539 C-4.87251725 15.60748547 -3.0415835 15.11368726 -1.04125977 14.11352539 C-0.13782292 12.23088658 -0.13782292 12.23088658 0.58374023 10.05102539 C0.84413086 9.31754883 1.10452148 8.58407227 1.37280273 7.82836914 C1.56616211 7.2624707 1.75952148 6.69657227 1.95874023 6.11352539 C-0.02125977 6.11352539 -2.00125977 6.11352539 -4.04125977 6.11352539 C-2.97364397 0.16538027 -2.97364397 0.16538027 0 0 Z M-1.04125977 1.11352539 C-1.37125977 2.43352539 -1.70125977 3.75352539 -2.04125977 5.11352539 C0.43374023 5.60852539 0.43374023 5.60852539 2.95874023 6.11352539 C3.28874023 7.76352539 3.61874023 9.41352539 3.95874023 11.11352539 C2.96874023 11.60852539 2.96874023 11.60852539 1.95874023 12.11352539 C1.95874023 12.77352539 1.95874023 13.43352539 1.95874023 14.11352539 C1.29874023 14.11352539 0.63874023 14.11352539 -0.04125977 14.11352539 C-0.04125977 14.77352539 -0.04125977 15.43352539 -0.04125977 16.11352539 C-0.70125977 16.11352539 -1.36125977 16.11352539 -2.04125977 16.11352539 C-2.04125977 17.10352539 -2.04125977 18.09352539 -2.04125977 19.11352539 C-1.05125977 19.11352539 -0.06125977 19.11352539 0.95874023 19.11352539 C0.95874023 18.45352539 0.95874023 17.79352539 0.95874023 17.11352539 C1.94874023 17.11352539 2.93874023 17.11352539 3.95874023 17.11352539 C3.95874023 18.43352539 3.95874023 19.75352539 3.95874023 21.11352539 C6.92874023 21.11352539 9.89874023 21.11352539 12.95874023 21.11352539 C13.46478947 18.7188281 13.96373541 16.32300823 14.45874023 13.92602539 C14.67336914 12.91572266 14.67336914 12.91572266 14.89233398 11.88500977 C15.65845837 8.14559312 15.95874023 4.97265265 15.95874023 1.11352539 C10.34874023 1.11352539 4.73874023 1.11352539 -1.04125977 1.11352539 Z " fill="#34E76B" transform="translate(233.041259765625,269.886474609375)"/>
<path d="M0 0 C1.39120471 0.00015906 2.78241534 0.00585033 4.17358398 0.01586914 C4.90463852 0.01728409 5.63569305 0.01869904 6.38890076 0.02015686 C8.73253406 0.02577131 11.07607313 0.03832617 13.41967773 0.05102539 C15.00496282 0.05603853 16.59024939 0.06060176 18.17553711 0.06469727 C22.06945383 0.07574542 25.96329979 0.09301967 29.85717773 0.11352539 C29.19717773 2.42352539 28.53717773 4.73352539 27.85717773 7.11352539 C22.90717773 7.11352539 17.95717773 7.11352539 12.85717773 7.11352539 C12.19717773 11.07352539 11.53717773 15.03352539 10.85717773 19.11352539 C14.81717773 19.11352539 18.77717773 19.11352539 22.85717773 19.11352539 C22.52717773 21.42352539 22.19717773 23.73352539 21.85717773 26.11352539 C21.52717773 26.11352539 21.19717773 26.11352539 20.85717773 26.11352539 C20.85717773 24.13352539 20.85717773 22.15352539 20.85717773 20.11352539 C17.22717773 20.11352539 13.59717773 20.11352539 9.85717773 20.11352539 C9.60717773 10.73852539 9.60717773 10.73852539 11.85717773 5.11352539 C16.80717773 5.11352539 21.75717773 5.11352539 26.85717773 5.11352539 C26.85717773 3.79352539 26.85717773 2.47352539 26.85717773 1.11352539 C17.28717773 1.11352539 7.71717773 1.11352539 -2.14282227 1.11352539 C-2.14282227 3.09352539 -2.14282227 5.07352539 -2.14282227 7.11352539 C-3.01782227 9.88696289 -3.01782227 9.88696289 -4.14282227 12.48852539 C-4.51407227 13.36250977 -4.88532227 14.23649414 -5.26782227 15.13696289 C-5.55657227 15.78922852 -5.84532227 16.44149414 -6.14282227 17.11352539 C-7.50103117 13.37392355 -6.77211123 10.70823291 -5.76782227 6.92602539 C-5.49196289 5.8599707 -5.21610352 4.79391602 -4.93188477 3.69555664 C-3.84497564 0.13888866 -3.84497564 0.13888866 0 0 Z " fill="#3BE167" transform="translate(273.142822265625,183.886474609375)"/>
<path d="M0 0 C13.86 0 27.72 0 42 0 C41.67 2.31 41.34 4.62 41 7 C36.71 7 32.42 7 28 7 C28 6.67 28 6.34 28 6 C31.96 6 35.92 6 40 6 C40 4.35 40 2.7 40 1 C27.46 1 14.92 1 2 1 C2 2.32 2 3.64 2 5 C5.63 5 9.26 5 13 5 C13 7.96026544 12.35704383 10.16159622 11.5 12.96484375 C10.94684032 15.2163765 10.7451588 17.37762722 10.5625 19.6875 C10.232768 23.26570281 9.6230708 25.3769292 7 28 C6.84360875 22.93683317 7.37233929 18.49601562 8.5 13.5625 C8.91765625 11.70818359 8.91765625 11.70818359 9.34375 9.81640625 C9.5603125 8.88699219 9.776875 7.95757812 10 7 C6.37 7 2.74 7 -1 7 C-0.67 4.69 -0.34 2.38 0 0 Z " fill="#30E162" transform="translate(129,184)"/>
<path d="M0 0 C5.61 0 11.22 0 17 0 C17 1.65 17 3.3 17 5 C13.04 5 9.08 5 5 5 C5.061875 5.9075 5.12375 6.815 5.1875 7.75 C5.1875 12.20857185 4.01045719 16.22717947 2.8671875 20.51171875 C1.26824458 26.94350264 0.16695235 33.47830886 -1 40 C-1.33 40 -1.66 40 -2 40 C-1.69916112 31.15118741 -1.34688376 22.82305211 1.296875 14.30859375 C3.10012442 8.59770763 3.10012442 8.59770763 2 3 C2.33 2.34 2.66 1.68 3 1 C2.01 0.67 1.02 0.34 0 0 Z " fill="#09F848" transform="translate(152,185)"/>
<path d="M0 0 C1.1859375 0.00257813 2.371875 0.00515625 3.59375 0.0078125 C4.7796875 0.00523437 5.965625 0.00265625 7.1875 0 C10.09375 0.1328125 10.09375 0.1328125 11.09375 1.1328125 C11.13467937 3.46578683 11.13616723 5.79986475 11.09375 8.1328125 C11.75375 8.1328125 12.41375 8.1328125 13.09375 8.1328125 C13.09375 8.7928125 13.09375 9.4528125 13.09375 10.1328125 C14.08375 10.4628125 15.07375 10.7928125 16.09375 11.1328125 C13.12375 10.6378125 13.12375 10.6378125 10.09375 10.1328125 C9.76375 7.4928125 9.43375 4.8528125 9.09375 2.1328125 C7.28132948 2.10593971 5.46879767 2.08647535 3.65625 2.0703125 C2.14224609 2.05291016 2.14224609 2.05291016 0.59765625 2.03515625 C-1.84646067 1.84668574 -1.84646067 1.84668574 -2.90625 3.1328125 C-3.41931187 7.20113681 -3.41931187 7.20113681 -2.90625 11.1328125 C1.41378997 15.05530278 6.40543988 14.58067091 11.90625 14.5078125 C12.77056641 14.51941406 13.63488281 14.53101563 14.52539062 14.54296875 C20.34658137 14.51660864 24.86384258 13.76863813 30.09375 11.1328125 C30.85477632 9.08960604 30.85477632 9.08960604 31.09375 7.1328125 C32.41375 7.1328125 33.73375 7.1328125 35.09375 7.1328125 C33.32337149 11.41122724 30.95353543 13.26663007 26.80249023 15.19995117 C22.03303408 16.84250115 17.15444173 16.46028611 12.15625 16.4453125 C11.08439453 16.46142578 10.01253906 16.47753906 8.90820312 16.49414062 C-1.24521836 16.50042757 -1.24521836 16.50042757 -5.90625 13.1328125 C-7.05644009 9.68224222 -6.71122206 8.83122006 -5.53125 5.5078125 C-5.25539062 4.71117187 -4.97953125 3.91453125 -4.6953125 3.09375 C-3.47691424 0.06584937 -3.437343 0.15708288 0 0 Z " fill="#51E57D" transform="translate(257.90625,276.8671875)"/>
<path d="M0 0 C1.98 0 3.96 0 6 0 C5.690625 0.99 5.38125 1.98 5.0625 3 C3.91566793 6.97731122 3.43287644 10.88767379 3 15 C2.34 15 1.68 15 1 15 C0.93941406 15.73605469 0.87882813 16.47210938 0.81640625 17.23046875 C0.73261719 18.20628906 0.64882812 19.18210937 0.5625 20.1875 C0.48128906 21.15042969 0.40007812 22.11335938 0.31640625 23.10546875 C0.02333849 25.78649602 -0.42703754 28.3662986 -1 31 C-1.33 30.34 -1.66 29.68 -2 29 C-2.66 29 -3.32 29 -4 29 C-3.835 27.845 -3.67 26.69 -3.5 25.5 C-3.11745109 22.51399323 -2.95590464 19.63450819 -3 16.625 C-3 13 -3 13 -2 11 C-1.79907217 9.50420396 -1.63663934 8.00303276 -1.5 6.5 C-1.11111111 2.22222222 -1.11111111 2.22222222 0 0 Z " fill="#05FA43" transform="translate(200,245)"/>
<path d="M0 0 C1.45839897 3.95705456 0.67906093 7.69831388 0.0625 11.75 C-0.03740234 12.44738281 -0.13730469 13.14476562 -0.24023438 13.86328125 C-0.48665873 15.57651726 -0.74240955 17.28840725 -1 19 C0.32 19 1.64 19 3 19 C3.309375 18.360625 3.61875 17.72125 3.9375 17.0625 C5 15 5 15 6 14 C8.33333333 14 10.66666667 14 13 14 C13.66 13.67 14.32 13.34 15 13 C14.125 19.875 14.125 19.875 13 21 C10.13732433 21.07325168 7.299281 21.09238205 4.4375 21.0625 C3.63119141 21.05798828 2.82488281 21.05347656 1.99414062 21.04882812 C-0.00393756 21.03700518 -2.00197783 21.01906914 -4 21 C-3.52626501 17.87415123 -3.04509049 14.74949284 -2.5625 11.625 C-2.42779297 10.73554688 -2.29308594 9.84609375 -2.15429688 8.9296875 C-2.02216797 8.07890625 -1.89003906 7.228125 -1.75390625 6.3515625 C-1.63345947 5.56604004 -1.5130127 4.78051758 -1.38891602 3.97119141 C-1 2 -1 2 0 0 Z " fill="#39F169" transform="translate(135,212)"/>
<path d="M0 0 C1.18613892 0.00785522 1.18613892 0.00785522 2.39624023 0.01586914 C3.67724609 0.02070313 3.67724609 0.02070313 4.98413086 0.02563477 C5.88196289 0.03401367 6.77979492 0.04239258 7.70483398 0.05102539 C8.6065332 0.05553711 9.50823242 0.06004883 10.43725586 0.06469727 C12.67234712 0.07652315 14.90730835 0.09300319 17.14233398 0.11352539 C16.96581299 0.94489014 16.78929199 1.77625488 16.60742188 2.6328125 C15.94610647 5.75758761 15.2886899 8.88315207 14.63378906 12.00927734 C14.35113668 13.35465121 14.06699289 14.69971273 13.78125 16.04443359 C12.22128155 23.39076489 10.79152668 30.62726536 10.14233398 38.11352539 C13.05998399 40.05862539 14.76770684 40.56628856 18.14233398 41.11352539 C18.14233398 41.44352539 18.14233398 41.77352539 18.14233398 42.11352539 C16.66265074 41.97303021 15.18358882 41.82597713 13.70483398 41.67602539 C12.88112305 41.59481445 12.05741211 41.51360352 11.20874023 41.42993164 C9.14233398 41.11352539 9.14233398 41.11352539 8.14233398 40.11352539 C7.71297028 33.74883996 8.24245766 27.41265965 9.14233398 21.11352539 C9.47233398 20.78352539 9.80233398 20.45352539 10.14233398 20.11352539 C10.5099413 17.78534575 10.84474979 15.45168689 11.14233398 13.11352539 C11.80233398 13.11352539 12.46233398 13.11352539 13.14233398 13.11352539 C13.13073242 12.49864258 13.11913086 11.88375977 13.10717773 11.25024414 C13.0981543 10.44200195 13.08913086 9.63375977 13.07983398 8.80102539 C13.06823242 8.00051758 13.05663086 7.20000977 13.04467773 6.37524414 C13.14233398 4.11352539 13.14233398 4.11352539 14.14233398 1.11352539 C9.19233398 1.44352539 4.24233398 1.77352539 -0.85766602 2.11352539 C-1.18766602 4.09352539 -1.51766602 6.07352539 -1.85766602 8.11352539 C-2.18766602 8.11352539 -2.51766602 8.11352539 -2.85766602 8.11352539 C-2.90008325 5.78057764 -2.89859539 3.44649972 -2.85766602 1.11352539 C-1.85766602 0.11352539 -1.85766602 0.11352539 0 0 Z " fill="#2EE663" transform="translate(175.857666015625,183.886474609375)"/>
<path d="M0 0 C0.66 0 1.32 0 2 0 C2.62198953 9.70994764 2.62198953 9.70994764 0.3125 14.5 C-1.97223882 16.96998791 -4.0014855 18.50074275 -7 20 C-6.65775391 20.92232422 -6.65775391 20.92232422 -6.30859375 21.86328125 C-6.02113281 22.67152344 -5.73367187 23.47976562 -5.4375 24.3125 C-5.14746094 25.11300781 -4.85742188 25.91351563 -4.55859375 26.73828125 C-4 29 -4 29 -5 32 C-8.54295139 29.63803241 -8.77042481 28.07984942 -9.66015625 24.04296875 C-10.05564067 21.66551642 -10.15030725 19.40491605 -10 17 C-8.68 17 -7.36 17 -6 17 C-6 16.34 -6 15.68 -6 15 C-5.34 14.67 -4.68 14.34 -4 14 C-2.19309528 11.02864557 -1.50119176 8.1493267 -0.875 4.75 C-0.70742188 3.85796875 -0.53984375 2.9659375 -0.3671875 2.046875 C-0.24601562 1.37140625 -0.12484375 0.6959375 0 0 Z " fill="#45EF74" transform="translate(258,190)"/>
<path d="M0 0 C0.66 0.33 1.32 0.66 2 1 C1.34 2.32 0.68 3.64 0 5 C-0.66 5 -1.32 5 -2 5 C-2 5.99 -2 6.98 -2 8 C-2.66 8 -3.32 8 -4 8 C-4 9.65 -4 11.3 -4 13 C-3.34 13 -2.68 13 -2 13 C-0.375 15.5 -0.375 15.5 1 18 C0.34 18.33 -0.32 18.66 -1 19 C-0.21625 19.61875 0.5675 20.2375 1.375 20.875 C4 23 4 23 6 25 C2.28400809 25.20086443 1.22791555 25.1519437 -2 23 C-2 22.34 -2 21.68 -2 21 C-2.66 21 -3.32 21 -4 21 C-6.9768418 16.5347373 -6.87297791 12.23059265 -6 7 C-4.35940887 4.21957957 -2.42636467 2.11584777 0 0 Z " fill="#0DF747" transform="translate(263,248)"/>
<path d="M0 0 C1.33596541 3.79944772 0.77087936 7.00493554 0.1875 10.9375 C-0.06966797 12.74541016 -0.06966797 12.74541016 -0.33203125 14.58984375 C-1 18 -1 18 -2.03515625 20.546875 C-3.20152358 23.51237574 -3.41578185 26.13935805 -3.625 29.3125 C-3.74875 31.189375 -3.8725 33.06625 -4 35 C2.93 35.495 2.93 35.495 10 36 C10 36.33 10 36.66 10 37 C4.39 37 -1.22 37 -7 37 C-5.88092197 24.4663261 -3.24279951 12.14324924 0 0 Z " fill="#59EB83" transform="translate(219,196)"/>
<path d="M0 0 C1.32 0.66 2.64 1.32 4 2 C3.175 2.70125 2.35 3.4025 1.5 4.125 C-1.23631541 6.72019279 -1.23631541 6.72019279 -1.3046875 9.77734375 C-0.96376208 13.38328566 -0.01255381 16.09694416 1.375 19.4375 C3.19035343 23.93217109 4.79946862 28.30701369 6 33 C5.34 32.67 4.68 32.34 4 32 C4 30.68 4 29.36 4 28 C3.01 28 2.02 28 1 28 C-0.74176822 24.14322752 -1.6371212 20.32714449 -2.484375 16.20703125 C-2.99642854 13.78743424 -2.99642854 13.78743424 -4.25 10.75 C-5.15960103 7.41479622 -4.58931821 6.0020455 -3 3 C-2.34 3 -1.68 3 -1 3 C-0.67 2.01 -0.34 1.02 0 0 Z " fill="#32EC65" transform="translate(122,254)"/>
<path d="M0 0 C2.9375 0.8125 2.9375 0.8125 6 2 C7.15019009 5.45057028 6.80497206 6.30159244 5.625 9.625 C5.34914063 10.42164063 5.07328125 11.21828125 4.7890625 12.0390625 C4 14 4 14 3 15 C0.81360547 15.07258946 -1.37500389 15.08373783 -3.5625 15.0625 C-5.35880859 15.04896484 -5.35880859 15.04896484 -7.19140625 15.03515625 C-8.11824219 15.02355469 -9.04507812 15.01195312 -10 15 C-10.33 12.03 -10.66 9.06 -11 6 C-10.34 6 -9.68 6 -9 6 C-8.67 8.31 -8.34 10.62 -8 13 C-5.03 13 -2.06 13 1 13 C1 12.34 1 11.68 1 11 C1.66 11 2.32 11 3 11 C3.33 8.36 3.66 5.72 4 3 C2.35 2.67 0.7 2.34 -1 2 C-0.67 1.34 -0.34 0.68 0 0 Z " fill="#4FED7E" transform="translate(292,244)"/>
<path d="M0 0 C2.9719385 1.12451727 5.33440687 2.22293791 8 4 C10.12337771 4.36433373 10.12337771 4.36433373 12.44921875 4.4140625 C13.29677734 4.45273438 14.14433594 4.49140625 15.01757812 4.53125 C16.33918945 4.57765625 16.33918945 4.57765625 17.6875 4.625 C19.02651367 4.68300781 19.02651367 4.68300781 20.39257812 4.7421875 C22.5948462 4.83640218 24.79710722 4.92201588 27 5 C27 4.34 27 3.68 27 3 C28.98 3 30.96 3 33 3 C28.9090882 7.84799613 22.4788865 7.77867085 16.5 8.3125 C11.26001865 7.84464452 5.3602312 6.94462527 1.203125 3.51953125 C0 2 0 2 0 0 Z " fill="#4FE87B" transform="translate(168,226)"/>
<path d="M0 0 C0.33 0 0.66 0 1 0 C1 3.96 1 7.92 1 12 C0.34 12 -0.32 12 -1 12 C-0.94199219 12.73863281 -0.88398437 13.47726562 -0.82421875 14.23828125 C-0.46315392 22.35708196 -2.09343062 27.91236699 -6 35 C-7.21436468 31.48818864 -6.75734025 29.28556675 -5.75 25.75 C-4.20032031 19.98490719 -3.04692563 14.21686123 -2.00292969 8.34472656 C-1.48697509 5.47215287 -0.92475024 2.77425072 0 0 Z " fill="#39EE6D" transform="translate(94,248)"/>
<path d="M0 0 C0.66 0 1.32 0 2 0 C2.33 1.98 2.66 3.96 3 6 C3.66 6 4.32 6 5 6 C5 8.64 5 11.28 5 14 C9.95 14 14.9 14 20 14 C20.33 13.01 20.66 12.02 21 11 C21.33 12.65 21.66 14.3 22 16 C16.06 16 10.12 16 4 16 C0 4.5 0 4.5 0 0 Z " fill="#5FF186" transform="translate(108,277)"/>
<path d="M0 0 C0.66 0.33 1.32 0.66 2 1 C1.01 2.485 1.01 2.485 0 4 C-0.99 4 -1.98 4 -3 4 C-3.226875 4.94875 -3.45375 5.8975 -3.6875 6.875 C-5 10 -5 10 -7.625 11.375 C-8.40875 11.58125 -9.1925 11.7875 -10 12 C-10.9802248 17.68839118 -11.11948801 23.17294333 -11.0625 28.9375 C-11.05573242 30.24944336 -11.05573242 30.24944336 -11.04882812 31.58789062 C-11.03714834 33.72529047 -11.01921689 35.86265463 -11 38 C-13.79063998 35.20936002 -13.2892625 33.22546988 -13.32226562 29.41210938 C-13.31743164 28.12530273 -13.31743164 28.12530273 -13.3125 26.8125 C-13.32861328 25.97396484 -13.34472656 25.13542969 -13.36132812 24.27148438 C-13.36761549 16.21736394 -11.00055499 10.42928499 -6 4 C-4.06732153 2.46620358 -2.13313171 1.26048692 0 0 Z " fill="#5AE781" transform="translate(220,246)"/>
<path d="M0 0 C2 3 2 3 2 5 C4.38564077 4.42415568 6.66682784 3.77772405 9 3 C9 3.66 9 4.32 9 5 C8.34 5 7.68 5 7 5 C7 5.99 7 6.98 7 8 C7.99 8 8.98 8 10 8 C10 7.34 10 6.68 10 6 C10.99 6 11.98 6 13 6 C13.33 7.32 13.66 8.64 14 10 C16.97 10.33 19.94 10.66 23 11 C23 11.33 23 11.66 23 12 C21.37581255 12.08090971 19.75048255 12.13914995 18.125 12.1875 C17.22007812 12.22230469 16.31515625 12.25710938 15.3828125 12.29296875 C14.20332031 12.14794922 14.20332031 12.14794922 13 12 C12.34 11.01 11.68 10.02 11 9 C10.48953125 9.49113281 9.9790625 9.98226563 9.453125 10.48828125 C6.10551018 12.55122223 3.64790028 12.29577501 -0.25 12.1875 C-1.51328125 12.16042969 -2.7765625 12.13335937 -4.078125 12.10546875 C-5.04234375 12.07066406 -6.0065625 12.03585937 -7 12 C-7 11.67 -7 11.34 -7 11 C-0.565 10.505 -0.565 10.505 6 10 C6 9.01 6 8.02 6 7 C4.35 6.67 2.7 6.34 1 6 C0.67 4.02 0.34 2.04 0 0 Z " fill="#49E874" transform="translate(224,281)"/>
<path d="M0 0 C0 2.31 0 4.62 0 7 C-0.99 7.495 -0.99 7.495 -2 8 C-2 5.36 -2 2.72 -2 0 C-8.56699525 -0.84843174 -14.94550593 -1.12561146 -21.5625 -1.0625 C-22.93245117 -1.05573242 -22.93245117 -1.05573242 -24.33007812 -1.04882812 C-26.55345738 -1.0371874 -28.77669121 -1.02083851 -31 -1 C-30.67 -1.66 -30.34 -2.32 -30 -3 C-20.20349316 -5.1296754 -8.86609543 -5.171889 0 0 Z " fill="#52EB7B" transform="translate(254,247)"/>
<path d="M0 0 C0.66 0.66 1.32 1.32 2 2 C1.96712417 4.72869407 1.43602229 7.2966618 1 10 C0.34 10 -0.32 10 -1 10 C-1 11.65 -1 13.3 -1 15 C-1.66 15 -2.32 15 -3 15 C-3 15.66 -3 16.32 -3 17 C-3.66 17 -4.32 17 -5 17 C-5 17.66 -5 18.32 -5 19 C-5.99 18.67 -6.98 18.34 -8 18 C-7.360625 17.21625 -6.72125 16.4325 -6.0625 15.625 C-3.21991345 11.44649822 -3.19460806 6.92358402 -3 2 C-2.01 2 -1.02 2 0 2 C0 1.34 0 0.68 0 0 Z " fill="#03FC42" transform="translate(206,208)"/>
<path d="M0 0 C2.64 0 5.28 0 8 0 C7.48446121 6.49850211 6.53332291 12.66226532 5 19 C4.67 19 4.34 19 4 19 C3.66721236 12.18401613 3.75798435 7.07877934 7 1 C5.02 1 3.04 1 1 1 C0.93941406 1.77085937 0.87882813 2.54171875 0.81640625 3.3359375 C0.69072266 4.84027344 0.69072266 4.84027344 0.5625 6.375 C0.48128906 7.37273437 0.40007812 8.37046875 0.31640625 9.3984375 C0 12 0 12 -1 14 C-1.66 14 -2.32 14 -3 14 C-2.58846263 9.02906176 -2.20399168 4.55491614 0 0 Z " fill="#45E571" transform="translate(199,244)"/>
<path d="M0 0 C0.33 0 0.66 0 1 0 C0.3105043 7.47349939 -1.04899991 14.71545333 -2.5625 22.0625 C-2.91344727 23.79016602 -2.91344727 23.79016602 -3.27148438 25.55273438 C-3.84413255 28.36922846 -4.42038059 31.18493382 -5 34 C-5.33 34 -5.66 34 -6 34 C-5.8335224 21.90767265 -3.88278164 11.44775841 0 0 Z " fill="#33E662" transform="translate(156,191)"/>
<path d="M0 0 C3.3 0 6.6 0 10 0 C9.34 1.65 8.68 3.3 8 5 C7.34 5 6.68 5 6 5 C5.731875 5.61875 5.46375 6.2375 5.1875 6.875 C4 9 4 9 1 11 C0.67 9.68 0.34 8.36 0 7 C1.32 7 2.64 7 4 7 C4 5.35 4 3.7 4 2 C2.35 2.33 0.7 2.66 -1 3 C-1.33 4.32 -1.66 5.64 -2 7 C-3.32 7.33 -4.64 7.66 -6 8 C-6 7.34 -6 6.68 -6 6 C-5.34 6 -4.68 6 -4 6 C-4 5.34 -4 4.68 -4 4 C-3.34 4 -2.68 4 -2 4 C-2 3.34 -2 2.68 -2 2 C-1.34 2 -0.68 2 0 2 C0 1.34 0 0.68 0 0 Z " fill="#42ED6D" transform="translate(125,244)"/>
<path d="M0 0 C2 1 2 1 3.125 3.3125 C4 6 4 6 4 10 C-1.94 10 -7.88 10 -14 10 C-14.66 8.68 -15.32 7.36 -16 6 C-15.67 5.01 -15.34 4.02 -15 3 C-15 3.66 -15 4.32 -15 5 C-14.34 5 -13.68 5 -13 5 C-13 5.99 -13 6.98 -13 8 C-8.38 8 -3.76 8 1 8 C0.67 5.36 0.34 2.72 0 0 Z " fill="#59EC83" transform="translate(254,223)"/>
<path d="M0 0 C0.94602608 3.0851746 1.01578237 5.49259007 0.625 8.6875 C0.53476563 9.47511719 0.44453125 10.26273438 0.3515625 11.07421875 C0 13 0 13 -1 14 C-2.59503228 20.38012913 -3.5835865 26.75862905 -4.4375 33.27734375 C-5 36 -5 36 -7 38 C-7.37855882 32.44780393 -6.29376227 27.83239192 -4.86328125 22.4765625 C-3.70214057 17.80047558 -2.84603096 13.08608392 -2.00268555 8.34399414 C-1.48693127 5.47162315 -0.92467439 2.77402318 0 0 Z " fill="#52ED7D" transform="translate(165,245)"/>
<path d="M0 0 C0.66 0.33 1.32 0.66 2 1 C1.505 1.391875 1.01 1.78375 0.5 2.1875 C-1.46148905 4.5576326 -1.11766325 6.00448982 -1 9 C-0.28714844 9.18175781 0.42570312 9.36351562 1.16015625 9.55078125 C12.0169262 12.40013541 12.0169262 12.40013541 17 15 C17.33 15.99 17.66 16.98 18 18 C17.2265625 17.566875 17.2265625 17.566875 16.4375 17.125 C13.37354985 15.71086916 10.24672994 14.91990682 7 14 C5.55610584 13.54046045 4.11837587 13.06109922 2.6875 12.5625 C2.03136719 12.33691406 1.37523437 12.11132812 0.69921875 11.87890625 C-1 11 -1 11 -3 8 C-2.75 4.375 -2.75 4.375 -2 1 C-1.34 0.67 -0.68 0.34 0 0 Z " fill="#3DE96E" transform="translate(275,250)"/>
<path d="M0 0 C0.33 0 0.66 0 1 0 C1 1.98 1 3.96 1 6 C4.3 6 7.6 6 11 6 C11.25309406 21.94492574 11.25309406 21.94492574 8.4375 26.5625 C7.963125 27.036875 7.48875 27.51125 7 28 C6.84360875 22.93683317 7.37233929 18.49601562 8.5 13.5625 C8.91765625 11.70818359 8.91765625 11.70818359 9.34375 9.81640625 C9.5603125 8.88699219 9.776875 7.95757812 10 7 C6.37 7 2.74 7 -1 7 C-0.67 4.69 -0.34 2.38 0 0 Z " fill="#73E793" transform="translate(129,184)"/>
<path d="M0 0 C9.9 0 19.8 0 30 0 C30 0.33 30 0.66 30 1 C20.43 1 10.86 1 1 1 C1 3.64 1 6.28 1 9 C0.01 9 -0.98 9 -2 9 C-1.125 2.25 -1.125 2.25 0 0 Z " fill="#38E667" transform="translate(222,184)"/>
<path d="M0 0 C0.99 0.33 1.98 0.66 3 1 C3.6875 3.0625 3.6875 3.0625 4 5 C4.66 5 5.32 5 6 5 C6 5.66 6 6.32 6 7 C6.66 7 7.32 7 8 7 C8 7.66 8 8.32 8 9 C8.99 9.33 9.98 9.66 11 10 C10.67 10.99 10.34 11.98 10 13 C9.01 13 8.02 13 7 13 C7 12.34 7 11.68 7 11 C6.34 11 5.68 11 5 11 C5 10.34 5 9.68 5 9 C4.34 9 3.68 9 3 9 C0.56839395 5.63316085 0 4.26649636 0 0 Z " fill="#444444" transform="translate(334,364)"/>
<path d="M0 0 C2.64 0 5.28 0 8 0 C7.41509121 6.14154225 6.45933748 12.00679849 5 18 C4.67 18 4.34 18 4 18 C3.94558344 16.10448978 3.90701965 14.2085208 3.875 12.3125 C3.85179687 11.25675781 3.82859375 10.20101562 3.8046875 9.11328125 C4.00141271 5.97748141 4.66942346 3.82354627 6 1 C4.35 1 2.7 1 1 1 C0.67 1.99 0.34 2.98 0 4 C0 2.68 0 1.36 0 0 Z " fill="#3EE66B" transform="translate(207,184)"/>
<path d="M0 0 C0 1.32 0 2.64 0 4 C-4.95 4 -9.9 4 -15 4 C-14.01 3.67 -13.02 3.34 -12 3 C-12 2.34 -12 1.68 -12 1 C-8.0186217 -0.3271261 -4.14954773 -0.06915913 0 0 Z " fill="#01FD45" transform="translate(300,185)"/>
<path d="M0 0 C1.65 0 3.3 0 5 0 C4.44271087 3.34373475 3.64826111 6.03312999 2 9 C1.67 8.34 1.34 7.68 1 7 C0.34 7 -0.32 7 -1 7 C-1 8.65 -1 10.3 -1 12 C-1.33 12 -1.66 12 -2 12 C-2 9.03 -2 6.06 -2 3 C-1.34 3 -0.68 3 0 3 C0 2.01 0 1.02 0 0 Z " fill="#18F655" transform="translate(208,185)"/>
<path d="M0 0 C2 2 2 2 2.125 4.625 C2.08375 5.40875 2.0425 6.1925 2 7 C1.34 7 0.68 7 0 7 C0.02320313 7.75925781 0.04640625 8.51851562 0.0703125 9.30078125 C0.08835937 10.29464844 0.10640625 11.28851563 0.125 12.3125 C0.14820313 13.29863281 0.17140625 14.28476563 0.1953125 15.30078125 C0 18 0 18 -2 21 C-2.38499891 22.65549531 -2.72793135 24.3222433 -3 26 C-3.33 26 -3.66 26 -4 26 C-4.41199284 20.09476936 -3.17636506 14.90778791 -1.75390625 9.18359375 C-1.03154723 6.13321757 -0.47965615 3.09680912 0 0 Z " fill="#4FEC7E" transform="translate(265,201)"/>
<path d="M0 0 C0.33 0 0.66 0 1 0 C1 1.65 1 3.3 1 5 C6.28 5 11.56 5 17 5 C17 5.66 17 6.32 17 7 C11.06 7 5.12 7 -1 7 C-0.67 4.69 -0.34 2.38 0 0 Z " fill="#55E87E" transform="translate(86,286)"/>
<path d="M0 0 C0 0.99 0 1.98 0 3 C-3.36974887 3.8985997 -6.65441178 4.14852081 -10.125 4.25 C-10.97320312 4.27578125 -11.82140625 4.3015625 -12.6953125 4.328125 C-15.44804317 3.9362108 -16.28643995 3.12795039 -18 1 C-17.37351563 1.09539062 -16.74703125 1.19078125 -16.1015625 1.2890625 C-14.87566406 1.45535156 -14.87566406 1.45535156 -13.625 1.625 C-12.81289062 1.74101562 -12.00078125 1.85703125 -11.1640625 1.9765625 C-10.44992188 1.98429687 -9.73578125 1.99203125 -9 2 C-8.34 1.34 -7.68 0.68 -7 0 C-4.3333581 -1.33332095 -2.83319697 -0.67102033 0 0 Z " fill="#1EF556" transform="translate(230,288)"/>
<path d="M0 0 C1.875 0.5625 1.875 0.5625 4 2 C5.86117261 6.74599015 6.20674844 10.93466333 6 16 C4.03698408 12.49461443 3.04097612 8.86648272 2 5 C1.34 7.97 0.68 10.94 0 14 C-0.33 14 -0.66 14 -1 14 C-1.027193 12.41676312 -1.04648306 10.83338938 -1.0625 9.25 C-1.07410156 8.36828125 -1.08570313 7.4865625 -1.09765625 6.578125 C-1.00826198 4.2181162 -0.66912821 2.25501476 0 0 Z " fill="#42EA6F" transform="translate(232,210)"/>
<path d="M0 0 C1.65322266 0.01740234 1.65322266 0.01740234 3.33984375 0.03515625 C4.99693359 0.04869141 4.99693359 0.04869141 6.6875 0.0625 C7.54214844 0.07410156 8.39679688 0.08570313 9.27734375 0.09765625 C9.27734375 0.42765625 9.27734375 0.75765625 9.27734375 1.09765625 C5.64734375 1.09765625 2.01734375 1.09765625 -1.72265625 1.09765625 C-1.64015625 1.88140625 -1.55765625 2.66515625 -1.47265625 3.47265625 C-1.81757136 8.47392531 -3.70911706 12.54921505 -5.72265625 17.09765625 C-7.08086515 13.35805441 -6.35194521 10.69236377 -5.34765625 6.91015625 C-5.07179688 5.84410156 -4.7959375 4.77804688 -4.51171875 3.6796875 C-3.42475449 0.12283911 -3.42475449 0.12283911 0 0 Z " fill="#4AEB78" transform="translate(272.72265625,183.90234375)"/>
<path d="M0 0 C0.66 0 1.32 0 2 0 C1.57258771 8.3124321 0.25809954 15.9901375 -2 24 C-2.33 24 -2.66 24 -3 24 C-2.50877547 15.86894139 -1.64733759 7.98079085 0 0 Z " fill="#32E964" transform="translate(201,260)"/>
<path d="M0 0 C2.14576637 -0.02685938 4.29162645 -0.04633088 6.4375 -0.0625 C7.63246094 -0.07410156 8.82742188 -0.08570313 10.05859375 -0.09765625 C13 0 13 0 14 1 C14.04092937 3.33297433 14.04241723 5.66705225 14 8 C14.66 8 15.32 8 16 8 C16 8.66 16 9.32 16 10 C16.99 10.33 17.98 10.66 19 11 C16.03 10.505 16.03 10.505 13 10 C12.67 7.36 12.34 4.72 12 2 C8.04 1.67 4.08 1.34 0 1 C0 0.67 0 0.34 0 0 Z " fill="#29EF86" transform="translate(255,277)"/>
<path d="M0 0 C1.10086585 3.30259754 0.87558911 4.43918229 0.125 7.75 C-0.7601239 11.82874661 -1.46032608 15.86249996 -2 20 C-2.66 20 -3.32 20 -4 20 C-3.85913398 17.39547729 -3.71251536 14.79149803 -3.5625 12.1875 C-3.50352539 11.08051758 -3.50352539 11.08051758 -3.44335938 9.95117188 C-3.25618965 6.76928658 -3.01279207 4.03837622 -2 1 C-1.34 0.67 -0.68 0.34 0 0 Z " fill="#33E964" transform="translate(227,260)"/>
<path d="M0 0 C0.33 0 0.66 0 1 0 C1.66 4.29 2.32 8.58 3 13 C4.32 13 5.64 13 7 13 C8.625 14.375 8.625 14.375 10 16 C10.66 16.66 11.32 17.32 12 18 C8.28400809 18.20086443 7.22791555 18.1519437 4 16 C4 15.34 4 14.68 4 14 C3.34 14 2.68 14 2 14 C-0.28062828 10.57905758 -0.21925007 9.31812778 -0.125 5.3125 C-0.10695313 4.31863281 -0.08890625 3.32476562 -0.0703125 2.30078125 C-0.04710937 1.54152344 -0.02390625 0.78226563 0 0 Z " fill="#60E984" transform="translate(257,255)"/>
<path d="M0 0 C4.62 0 9.24 0 14 0 C14 0.33 14 0.66 14 1 C10.04 1 6.08 1 2 1 C0.515 7.435 0.515 7.435 -1 14 C-1.33 14 -1.66 14 -2 14 C-2.19607616 8.31379141 -1.89608907 5.6882672 0 0 Z " fill="#64F088" transform="translate(280,210)"/>
<path d="M0 0 C0.99 0.495 0.99 0.495 2 1 C2.60107745 4.31726705 2.74433485 7.63374215 3 11 C6.63 11.33 10.26 11.66 14 12 C14.33 11.01 14.66 10.02 15 9 C15 10.32 15 11.64 15 13 C10.05 13 5.1 13 0 13 C0 8.71 0 4.42 0 0 Z " fill="#58E37E" transform="translate(237,250)"/>
<path d="M0 0 C4.95 0 9.9 0 15 0 C14.67 3.63 14.34 7.26 14 11 C13.67 11 13.34 11 13 11 C12.67 8.03 12.34 5.06 12 2 C9.02148438 2.04882812 9.02148438 2.04882812 6.04296875 2.09765625 C4 2 4 2 1 1 C0.67 2.65 0.34 4.3 0 6 C-1.125 2.25 -1.125 2.25 0 0 Z " fill="#14F151" transform="translate(96,245)"/>
<path d="M0 0 C0.33 0 0.66 0 1 0 C1 3.96 1 7.92 1 12 C0.34 12 -0.32 12 -1 12 C-1.66 15.3 -2.32 18.6 -3 22 C-4.31219445 18.06341666 -3.42669073 14.95219467 -2.625 11 C-2.48578125 10.27554687 -2.3465625 9.55109375 -2.203125 8.8046875 C-1.61470024 5.79594956 -0.97042855 2.91128565 0 0 Z " fill="#4DEB79" transform="translate(94,248)"/>
<path d="M0 0 C0.66 0.33 1.32 0.66 2 1 C0.68 7.6 -0.64 14.2 -2 21 C-2.33 21 -2.66 21 -3 21 C-3 16.71 -3 12.42 -3 8 C-2.34 8 -1.68 8 -1 8 C-0.67 5.36 -0.34 2.72 0 0 Z " fill="#2DE362" transform="translate(152,268)"/>
<path d="M0 0 C2.9375 0.8125 2.9375 0.8125 6 2 C7.31223496 5.93670488 6.24296256 8.12488144 5 12 C3.68 12.33 2.36 12.66 1 13 C1 12.34 1 11.68 1 11 C1.66 11 2.32 11 3 11 C3.33 8.36 3.66 5.72 4 3 C2.35 2.67 0.7 2.34 -1 2 C-0.67 1.34 -0.34 0.68 0 0 Z " fill="#3AEA6A" transform="translate(292,244)"/>
<path d="M0 0 C2.97 0.33 5.94 0.66 9 1 C9 4.63 9 8.26 9 12 C7.35 12.33 5.7 12.66 4 13 C4.7115625 12.1646875 4.7115625 12.1646875 5.4375 11.3125 C7.12395996 8.81653926 7.58953107 6.9553763 8 4 C7.34 4 6.68 4 6 4 C6 3.34 6 2.68 6 2 C3.03 1.505 3.03 1.505 0 1 C0 0.67 0 0.34 0 0 Z " fill="#47EE75" transform="translate(270,274)"/>
<path d="M0 0 C1.66171502 2.49257253 2.9387679 4.79516513 4.1875 7.5 C4.55230469 8.2734375 4.91710937 9.046875 5.29296875 9.84375 C6 12 6 12 5 15 C1.45704861 12.63803241 1.22957519 11.07984942 0.33984375 7.04296875 C-0.05564067 4.66551642 -0.15030725 2.40491605 0 0 Z " fill="#2EEE60" transform="translate(248,207)"/>
<path d="M0 0 C0.66 0 1.32 0 2 0 C2.33 1.65 2.66 3.3 3 5 C8.61 5.33 14.22 5.66 20 6 C20 6.33 20 6.66 20 7 C16.85418577 7.02888514 13.70840531 7.04675923 10.5625 7.0625 C9.21575195 7.07506836 9.21575195 7.07506836 7.84179688 7.08789062 C6.56079102 7.09272461 6.56079102 7.09272461 5.25390625 7.09765625 C4.46314697 7.10289307 3.6723877 7.10812988 2.85766602 7.11352539 C1 7 1 7 0 6 C-0.04080783 4.00041636 -0.04254356 1.99954746 0 0 Z " fill="#51DD78" transform="translate(177,286)"/>
<path d="M0 0 C1.32 0 2.64 0 4 0 C2.18033597 4.3975214 -0.31310432 6.15655216 -4.5 8.25 C-7.24392724 9.07317817 -8.32723423 8.79276951 -11 8 C-10.28972656 7.75765625 -9.57945312 7.5153125 -8.84765625 7.265625 C-7.92855469 6.93046875 -7.00945312 6.5953125 -6.0625 6.25 C-5.14597656 5.92515625 -4.22945313 5.6003125 -3.28515625 5.265625 C-0.8211165 4.22179047 -0.8211165 4.22179047 -0.18359375 1.859375 C-0.12300781 1.24578125 -0.06242187 0.6321875 0 0 Z " fill="#5CF085" transform="translate(289,284)"/>
<path d="M0 0 C0.33 0 0.66 0 1 0 C1 3.63 1 7.26 1 11 C0.34 11 -0.32 11 -1 11 C-1.33 13.64 -1.66 16.28 -2 19 C-2.66 18.67 -3.32 18.34 -4 18 C-3.52450066 15.37428665 -3.04477433 12.7494696 -2.5625 10.125 C-2.42779297 9.37863281 -2.29308594 8.63226563 -2.15429688 7.86328125 C-1.11328125 2.2265625 -1.11328125 2.2265625 0 0 Z " fill="#3DEE70" transform="translate(135,271)"/>
<path d="M0 0 C4.25 6.375 4.25 6.375 4.125 11.1875 C4.10695312 12.08855469 4.08890625 12.98960937 4.0703125 13.91796875 C4.03550781 14.94857422 4.03550781 14.94857422 4 16 C0.44221079 12.44221079 0.04831804 7.35290505 -0.125 2.5 C-0.08375 1.675 -0.0425 0.85 0 0 Z " fill="#49ED76" transform="translate(173,270)"/>
<path d="M0 0 C0.33 0 0.66 0 1 0 C1.08075665 2.29109597 1.13907731 4.58299267 1.1875 6.875 C1.22230469 8.15117187 1.25710937 9.42734375 1.29296875 10.7421875 C1.19628906 11.81726563 1.09960938 12.89234375 1 14 C0.01 14.66 -0.98 15.32 -2 16 C-2.2396943 10.36718401 -1.38529821 5.45461169 0 0 Z " fill="#3FEF70" transform="translate(138,255)"/>
<path d="M0 0 C0.66 0.33 1.32 0.66 2 1 C1.01 2.485 1.01 2.485 0 4 C-0.99 4 -1.98 4 -3 4 C-3.28875 4.969375 -3.5775 5.93875 -3.875 6.9375 C-5 10 -5 10 -7 11 C-6.875 7.75 -6.875 7.75 -6 4 C-2.9375 1.5625 -2.9375 1.5625 0 0 Z " fill="#46F27B" transform="translate(220,246)"/>
<path d="M0 0 C2.33944736 0.28730055 4.6739143 0.61936779 7 1 C7 1.66 7 2.32 7 3 C7.99 3.33 8.98 3.66 10 4 C10 4.33 10 4.66 10 5 C6.625 5.1875 6.625 5.1875 3 5 C2.34 4.01 1.68 3.02 1 2 C0.34 1.67 -0.32 1.34 -1 1 C-0.67 0.67 -0.34 0.34 0 0 Z " fill="#11F34A" transform="translate(271,245)"/>
<path d="M0 0 C1.03159626 3.09478879 0.97482862 4.52631393 0.5625 7.6875 C0.46066406 8.49574219 0.35882813 9.30398437 0.25390625 10.13671875 C0.17011719 10.75160156 0.08632812 11.36648437 0 12 C2.91765 13.9451 4.62537285 14.45276317 8 15 C8 15.33 8 15.66 8 16 C6.52031676 15.85950482 5.04125484 15.71245174 3.5625 15.5625 C2.73878906 15.48128906 1.91507813 15.40007812 1.06640625 15.31640625 C-1 15 -1 15 -2 14 C-2.12535652 12.39951798 -2.17574787 10.79284072 -2.1875 9.1875 C-2.20167969 8.31480469 -2.21585938 7.44210938 -2.23046875 6.54296875 C-1.99010406 3.89080915 -1.34187309 2.27535001 0 0 Z " fill="#3BE56B" transform="translate(186,210)"/>
<path d="M0 0 C1.85776765 3.13498292 2.20140476 5.37471432 2 9 C0.35 9.33 -1.3 9.66 -3 10 C-2.34 9.01 -1.68 8.02 -1 7 C-1.165 6.34 -1.33 5.68 -1.5 5 C-1.665 4.34 -1.83 3.68 -2 3 C-1.34 2.01 -0.68 1.02 0 0 Z " fill="#01FD3C" transform="translate(161,280)"/>
<path d="M0 0 C1.32 0.66 2.64 1.32 4 2 C3.34 2 2.68 2 2 2 C2 3.32 2 4.64 2 6 C0.35 6.33 -1.3 6.66 -3 7 C-3.1875 4.625 -3.1875 4.625 -3 2 C-2.01 1.34 -1.02 0.68 0 0 Z " fill="#05FA40" transform="translate(127,245)"/>
<path d="M0 0 C0.33 0.99 0.66 1.98 1 3 C-1.83430453 6.2542015 -3.68607774 7.5206753 -8 8 C-7.67 7.01 -7.34 6.02 -7 5 C-6.34 5 -5.68 5 -5 5 C-5 4.34 -5 3.68 -5 3 C-3.35 2.67 -1.7 2.34 0 2 C0 1.34 0 0.68 0 0 Z " fill="#50F085" transform="translate(257,202)"/>
<path d="M0 0 C2 3 2 3 2 5 C-3.61 4.67 -9.22 4.34 -15 4 C-15 3.67 -15 3.34 -15 3 C-10.05 3 -5.1 3 0 3 C0 2.01 0 1.02 0 0 Z " fill="#33E366" transform="translate(128,288)"/>
<path d="M0 0 C1.01586535 3.04759605 1.00433442 4.45093253 0.625 7.5625 C0.48964844 8.74005859 0.48964844 8.74005859 0.3515625 9.94140625 C0 12 0 12 -1 14 C-1.66 14 -2.32 14 -3 14 C-2.58846263 9.02906176 -2.20399168 4.55491614 0 0 Z " fill="#5EEE83" transform="translate(199,244)"/>
<path d="M0 0 C3.93673644 1.31224548 6.22719294 2.91910327 9 6 C3.50847458 5.38983051 3.50847458 5.38983051 1.125 3.5625 C0 2 0 2 0 0 Z " fill="#45EE7A" transform="translate(168,226)"/>
<path d="M0 0 C0.33 0 0.66 0 1 0 C1.4726477 8.19256018 1.4726477 8.19256018 -0.5 11.5625 C-0.995 12.036875 -1.49 12.51125 -2 13 C-2.19294408 8.17639811 -1.75747614 4.50353262 0 0 Z " fill="#4BEE77" transform="translate(138,199)"/>
<path d="M0 0 C1.32 0.33 2.64 0.66 4 1 C3.6875 3.375 3.6875 3.375 3 6 C2.01 6.66 1.02 7.32 0 8 C0 5.36 0 2.72 0 0 Z " fill="#01FD3F" transform="translate(207,192)"/>
<path d="M0 0 C0.99 0.33 1.98 0.66 3 1 C3.6875 3.0625 3.6875 3.0625 4 5 C4.66 5 5.32 5 6 5 C5.67 6.32 5.34 7.64 5 9 C4.34 9 3.68 9 3 9 C0.56839395 5.63316085 0 4.26649636 0 0 Z " fill="#595959" transform="translate(334,364)"/>
<path d="M0 0 C0.66 0 1.32 0 2 0 C1.46104623 3.7726764 0.00464642 5.68212991 -3 8 C-5.25 7.75 -5.25 7.75 -7 7 C-5.35 6.34 -3.7 5.68 -2 5 C-2 4.34 -2 3.68 -2 3 C-1.34 3 -0.68 3 0 3 C0 2.01 0 1.02 0 0 Z " fill="#39F06A" transform="translate(201,217)"/>
<path d="M0 0 C0.99 0 1.98 0 3 0 C3 3.96 3 7.92 3 12 C1.02 12.99 1.02 12.99 -1 14 C-0.690625 13.34 -0.38125 12.68 -0.0625 12 C1.24960255 8.29523985 1.60264135 4.90736009 2 1 C1.34 0.67 0.68 0.34 0 0 Z " fill="#50ED75" transform="translate(242,190)"/>
<path d="M0 0 C1.32 0.33 2.64 0.66 4 1 C2.7934375 1.37125 2.7934375 1.37125 1.5625 1.75 C-1.171081 2.72238859 -1.171081 2.72238859 -1.8125 5.125 C-1.874375 5.74375 -1.93625 6.3625 -2 7 C-3.32 7.33 -4.64 7.66 -6 8 C-6 7.34 -6 6.68 -6 6 C-5.34 6 -4.68 6 -4 6 C-4 5.34 -4 4.68 -4 4 C-3.34 4 -2.68 4 -2 4 C-2 3.34 -2 2.68 -2 2 C-1.34 2 -0.68 2 0 2 C0 1.34 0 0.68 0 0 Z " fill="#54EC7D" transform="translate(125,244)"/>
<path d="M0 0 C1.65 0 3.3 0 5 0 C5 1.32 5 2.64 5 4 C4.01 4.33 3.02 4.66 2 5 C1.34 4.67 0.68 4.34 0 4 C0 2.68 0 1.36 0 0 Z " fill="#07F943" transform="translate(208,185)"/>
<path d="M0 0 C0.66 0.33 1.32 0.66 2 1 C0.9024777 3.99324263 0.32317108 4.84610901 -2.625 6.25 C-3.40875 6.4975 -4.1925 6.745 -5 7 C-3.47793991 4.37098712 -2.15634036 2.15634036 0 0 Z " fill="#4FEC7B" transform="translate(263,248)"/>
<path d="M0 0 C0.66 0 1.32 0 2 0 C2 2.31 2 4.62 2 7 C1.01 7 0.02 7 -1 7 C-0.67 4.69 -0.34 2.38 0 0 Z " fill="#46F179" transform="translate(221,186)"/>
<path d="M0 0 C0.66 0.99 1.32 1.98 2 3 C1.67 3.99 1.34 4.98 1 6 C0.34 6 -0.32 6 -1 6 C-1 6.66 -1 7.32 -1 8 C-1.66 8 -2.32 8 -3 8 C-2.67 6.68 -2.34 5.36 -2 4 C-1.34 4 -0.68 4 0 4 C0 2.68 0 1.36 0 0 Z " fill="#3CF369" transform="translate(236,276)"/>
<path d="M0 0 C1.65 0 3.3 0 5 0 C5 1.65 5 3.3 5 5 C4.34 4.34 3.68 3.68 3 3 C0.93125966 2.3574765 0.93125966 2.3574765 -1 2 C-0.67 1.34 -0.34 0.68 0 0 Z " fill="#0BF946" transform="translate(247,247)"/>
<path d="M0 0 C0.99 0 1.98 0 3 0 C2.67 3.63 2.34 7.26 2 11 C1.67 11 1.34 11 1 11 C0.67 7.37 0.34 3.74 0 0 Z " fill="#0DF54A" transform="translate(108,245)"/>
<path d="M0 0 C0.99 0 1.98 0 3 0 C2.1875 2.4375 2.1875 2.4375 1 5 C0.01 5.33 -0.98 5.66 -2 6 C-2 4.68 -2 3.36 -2 2 C-1.34 2 -0.68 2 0 2 C0 1.34 0 0.68 0 0 Z " fill="#54F080" transform="translate(203,223)"/>
<path d="M0 0 C0.33 0 0.66 0 1 0 C1.125 6.75 1.125 6.75 0 9 C-0.66 9 -1.32 9 -2 9 C-2 7.35 -2 5.7 -2 4 C-1.34 4 -0.68 4 0 4 C0 2.68 0 1.36 0 0 Z " fill="#2CED5B" transform="translate(207,214)"/>
<path d="M0 0 C2.64 0 5.28 0 8 0 C8 3.10551666 7.4606285 4.35261084 6 7 C6 5.02 6 3.04 6 1 C4.02 1 2.04 1 0 1 C0 0.67 0 0.34 0 0 Z " fill="#14F250" transform="translate(134,189)"/>
</svg>
